400-italicGF.ufo
<glyph name="exclam" format="1">
  <advance width="291"/>
  <unicode hex="0021"/>
  <outline>
    <contour>
      <point x="188" y="700" type="line"/>
      <point x="288" y="700" type="line"/>
      <point x="183.5" y="200.5" type="line"/>
      <point x="123.5" y="200.5" type="line"/>
    </contour>
    <contour>
      <point x="70.5" y="40" type="curve" smooth="yes"/>
      <point x="70.5" y="70"/>
      <point x="95.5" y="95"/>
      <point x="125.5" y="95" type="curve" smooth="yes"/>
      <point x="155.5" y="95"/>
      <point x="180.5" y="70"/>
      <point x="180.5" y="40" type="curve" smooth="yes"/>
      <point x="180.5" y="10"/>
      <point x="155.5" y="-15"/>
      <point x="125.5" y="-15" type="curve" smooth="yes"/>
      <point x="95.5" y="-15"/>
      <point x="70.5" y="10"/>
    </contour>
  </outline>
</glyph>
<glyph name="numbersign" format="1">
  <advance width="587"/>
  <unicode hex="0023"/>
  <outline>
    <contour>
      <point x="120.5" y="440.5" type="line"/>
      <point x="131" y="504.5" type="line"/>
      <point x="612.5" y="504.5" type="line"/>
      <point x="602" y="440.5" type="line"/>
      <point x="468" y="440" type="line"/>
      <point x="454.5" y="440" type="line"/>
      <point x="268" y="440" type="line"/>
      <point x="254.5" y="440" type="line"/>
    </contour>
    <contour>
      <point x="41" y="200.5" type="line"/>
      <point x="51" y="264.5" type="line"/>
      <point x="176.5" y="265" type="line"/>
      <point x="192" y="265" type="line"/>
      <point x="386" y="265" type="line"/>
      <point x="405.5" y="265" type="line"/>
      <point x="532.5" y="264.5" type="line"/>
      <point x="522.5" y="200.5" type="line"/>
    </contour>
    <contour>
      <point x="532" y="699.5" type="line"/>
      <point x="609" y="699.5" type="line"/>
      <point x="323" y="0" type="line"/>
      <point x="247.5" y="0" type="line"/>
      <point x="340.5" y="228" type="line"/>
      <point x="348.5" y="246" type="line"/>
      <point x="435.5" y="462" type="line"/>
      <point x="442" y="478" type="line"/>
    </contour>
    <contour>
      <point x="328" y="699.5" type="line"/>
      <point x="405" y="699.5" type="line"/>
      <point x="315.5" y="482" type="line"/>
      <point x="309" y="466" type="line"/>
      <point x="219" y="244" type="line"/>
      <point x="212" y="226" type="line"/>
      <point x="119" y="0" type="line"/>
      <point x="45.5" y="0" type="line"/>
    </contour>
  </outline>
</glyph>
<glyph name="dollar" format="1">
  <advance width="562"/>
  <unicode hex="0024"/>
  <outline>
    <contour>
      <point x="359.5" y="817.5" type="line"/>
      <point x="432.5" y="817.5" type="line"/>
      <point x="409" y="668.5" type="line"/>
      <point x="336.5" y="668.5" type="line"/>
    </contour>
    <contour>
      <point x="241.5" y="47.5" type="line"/>
      <point x="314" y="47.5" type="line"/>
      <point x="289" y="-111.5" type="line"/>
      <point x="216.5" y="-111.5" type="line"/>
    </contour>
    <contour>
      <point x="490.5" y="514" type="line"/>
      <point x="469" y="571"/>
      <point x="439" y="627.5"/>
      <point x="367.5" y="628.5" type="curve" smooth="yes"/>
      <point x="297.5" y="629.5"/>
      <point x="248.5" y="594"/>
      <point x="239" y="534" type="curve" smooth="yes"/>
      <point x="226.5" y="457.5"/>
      <point x="302" y="426"/>
      <point x="372.5" y="396" type="curve" smooth="yes"/>
      <point x="450.5" y="362"/>
      <point x="528.5" y="301"/>
      <point x="515.5" y="189.5" type="curve" smooth="yes"/>
      <point x="500" y="73"/>
      <point x="409" y="-10"/>
      <point x="280" y="-9.5" type="curve" smooth="yes"/>
      <point x="165.5" y="-9"/>
      <point x="94" y="75.5"/>
      <point x="64" y="183.5" type="curve"/>
      <point x="139.5" y="226" type="line"/>
      <point x="166" y="142"/>
      <point x="204.5" y="71"/>
      <point x="292" y="70.5" type="curve" smooth="yes"/>
      <point x="366" y="70.5"/>
      <point x="417.5" y="116"/>
      <point x="428" y="183" type="curve" smooth="yes"/>
      <point x="441.5" y="269"/>
      <point x="367" y="307.5"/>
      <point x="295" y="338" type="curve" smooth="yes"/>
      <point x="219" y="370.5"/>
      <point x="138.5" y="429.5"/>
      <point x="152.5" y="540.5" type="curve" smooth="yes"/>
      <point x="167" y="638"/>
      <point x="266.5" y="710"/>
      <point x="374" y="709.5" type="curve" smooth="yes"/>
      <point x="477" y="709"/>
      <point x="540.5" y="637"/>
      <point x="563.5" y="559" type="curve"/>
    </contour>
  </outline>
</glyph>
<glyph name="ampersand" format="1">
  <advance width="655"/>
  <unicode hex="0026"/>
  <outline>
    <contour>
      <point x="259.5" y="384" type="line" smooth="yes"/>
      <point x="228" y="430.5"/>
      <point x="172.5" y="485"/>
      <point x="181" y="556.5" type="curve" smooth="yes"/>
      <point x="192.5" y="647.5"/>
      <point x="274.5" y="711"/>
      <point x="369.5" y="710.5" type="curve" smooth="yes"/>
      <point x="465.5" y="710"/>
      <point x="523.5" y="637.5"/>
      <point x="511.5" y="553.5" type="curve" smooth="yes"/>
      <point x="499" y="476"/>
      <point x="426" y="417.5"/>
      <point x="342" y="370" type="curve" smooth="yes"/>
      <point x="264" y="326.5"/>
      <point x="149" y="288"/>
      <point x="133.5" y="188" type="curve" smooth="yes"/>
      <point x="122.5" y="115"/>
      <point x="177.5" y="66"/>
      <point x="252.5" y="64.5" type="curve" smooth="yes"/>
      <point x="393.5" y="61"/>
      <point x="515.5" y="201.5"/>
      <point x="614" y="315" type="curve"/>
      <point x="671" y="275.5" type="line"/>
      <point x="556.5" y="146"/>
      <point x="424.5" y="-11.5"/>
      <point x="241.5" y="-9.5" type="curve" smooth="yes"/>
      <point x="130.5" y="-8.5"/>
      <point x="34" y="68.5"/>
      <point x="49" y="183" type="curve" smooth="yes"/>
      <point x="66.5" y="320"/>
      <point x="204" y="371"/>
      <point x="291" y="417" type="curve" smooth="yes"/>
      <point x="357.5" y="453"/>
      <point x="421.5" y="497.5"/>
      <point x="432" y="554" type="curve" smooth="yes"/>
      <point x="438.5" y="600.5"/>
      <point x="414" y="638.5"/>
      <point x="363" y="639.5" type="curve" smooth="yes"/>
      <point x="311.5" y="640.5"/>
      <point x="270.5" y="603.5"/>
      <point x="263.5" y="556" type="curve" smooth="yes"/>
      <point x="255.5" y="509"/>
      <point x="293.5" y="468"/>
      <point x="324" y="425" type="curve" smooth="yes"/>
      <point x="617.5" y="0" type="line"/>
      <point x="527.5" y="0" type="line"/>
    </contour>
  </outline>
</glyph>
<glyph name="quotesingle" format="1">
  <advance width="276"/>
  <unicode hex="0027"/>
  <outline>
    <contour>
      <point x="215.5" y="699.5" type="line"/>
      <point x="311.5" y="699.5" type="line"/>
      <point x="176.5" y="401" type="line"/>
      <point x="121.5" y="400.5" type="line"/>
    </contour>
  </outline>
</glyph>
<glyph name="parenleft" format="1">
  <advance width="300"/>
  <unicode hex="0028"/>
  <outline>
    <contour>
      <point x="300.5" y="779" type="curve"/>
      <point x="375" y="779" type="line"/>
      <point x="286.5" y="629.5"/>
      <point x="230.5" y="462.5"/>
      <point x="203" y="290" type="curve" smooth="yes"/>
      <point x="178.5" y="125.5"/>
      <point x="179.5" y="-42.5"/>
      <point x="224.5" y="-200.5" type="curve"/>
      <point x="152" y="-200.5" type="line"/>
      <point x="98" y="-43"/>
      <point x="90" y="125.5"/>
      <point x="114" y="290" type="curve" smooth="yes"/>
      <point x="141" y="464"/>
      <point x="202" y="632"/>
    </contour>
  </outline>
</glyph>
<glyph name="comma" format="1">
  <advance width="298"/>
  <unicode hex="002C"/>
  <outline>
    <contour>
      <point x="133.5" y="109" type="line"/>
      <point x="209.5" y="78" type="line"/>
      <point x="60" y="-169" type="line"/>
      <point x="4.5" y="-148" type="line"/>
    </contour>
  </outline>
</glyph>
<glyph name="slash" format="1">
  <advance width="499"/>
  <unicode hex="002F"/>
  <outline>
    <contour>
      <point x="497.5" y="699.5" type="line"/>
      <point x="580" y="699.5" type="line"/>
      <point x="40.5" y="-149.5" type="line"/>
      <point x="-38.5" y="-149" type="line"/>
    </contour>
  </outline>
</glyph>
<glyph name="four" format="1">
  <advance width="565"/>
  <unicode hex="0034"/>
  <outline>
    <contour>
      <point x="16.5" y="141" type="line"/>
      <point x="486.5" y="699" type="line"/>
      <point x="522.5" y="699.5" type="line"/>
      <point x="403" y="0" type="line"/>
      <point x="319" y="0" type="line"/>
      <point x="349.5" y="176" type="line"/>
      <point x="351.5" y="187" type="line"/>
      <point x="406" y="505.5" type="line"/>
      <point x="167" y="215.5" type="line"/>
      <point x="388" y="215" type="line"/>
      <point x="404.5" y="215" type="line"/>
      <point x="547.5" y="215" type="line"/>
      <point x="535" y="140" type="line"/>
    </contour>
  </outline>
</glyph>
<glyph name="five" format="1">
  <advance width="547"/>
  <unicode hex="0035"/>
  <outline>
    <contour>
      <point x="527.5" y="230" type="curve" smooth="yes"/>
      <point x="508.5" y="84.5"/>
      <point x="393" y="-9.5"/>
      <point x="255" y="-9.5" type="curve" smooth="yes"/>
      <point x="140.5" y="-9.5"/>
      <point x="72" y="53"/>
      <point x="32.5" y="138" type="curve"/>
      <point x="109" y="185.5" type="line"/>
      <point x="134.5" y="124.5"/>
      <point x="188" y="71"/>
      <point x="262" y="70.5" type="curve" smooth="yes"/>
      <point x="358.5" y="70"/>
      <point x="427" y="139.5"/>
      <point x="441" y="230" type="curve" smooth="yes"/>
      <point x="453.5" y="316.5"/>
      <point x="405" y="387"/>
      <point x="316" y="389.5" type="curve" smooth="yes"/>
      <point x="248.5" y="391.5"/>
      <point x="195.5" y="368"/>
      <point x="130.5" y="328" type="curve"/>
      <point x="276" y="700" type="line"/>
      <point x="598.5" y="700" type="line"/>
      <point x="586" y="625" type="line"/>
      <point x="331.5" y="625" type="line"/>
      <point x="254" y="440" type="line"/>
      <point x="287" y="455"/>
      <point x="322" y="465.5"/>
      <point x="357.5" y="465.5" type="curve" smooth="yes"/>
      <point x="481.5" y="465"/>
      <point x="542.5" y="351.5"/>
    </contour>
  </outline>
</glyph>
<glyph name="eight" format="1">
  <advance width="529"/>
  <unicode hex="0038"/>
  <outline>
    <contour>
      <point x="140.5" y="531.5" type="curve" smooth="yes"/>
      <point x="156" y="629.5"/>
      <point x="249.5" y="710"/>
      <point x="356" y="709.5" type="curve" smooth="yes"/>
      <point x="460.5" y="709"/>
      <point x="530.5" y="626.5"/>
      <point x="516.5" y="530.5" type="curve" smooth="yes"/>
      <point x="501" y="425.5"/>
      <point x="411.5" y="355.5"/>
      <point x="301.5" y="355.5" type="curve" smooth="yes"/>
      <point x="193" y="355.5"/>
      <point x="125" y="428.5"/>
    </contour>
    <contour>
      <point x="218" y="521" type="curve" smooth="yes"/>
      <point x="209" y="462.5"/>
      <point x="245" y="411.5"/>
      <point x="305" y="410.5" type="curve" smooth="yes"/>
      <point x="366" y="409.5"/>
      <point x="425" y="460"/>
      <point x="435.5" y="521" type="curve" smooth="yes"/>
      <point x="445" y="579.5"/>
      <point x="412.5" y="633.5"/>
      <point x="349" y="634.5" type="curve" smooth="yes"/>
      <point x="284.5" y="635.5"/>
      <point x="228.5" y="583"/>
    </contour>
    <contour>
      <point x="58" y="190.5" type="curve" smooth="yes"/>
      <point x="75.5" y="311"/>
      <point x="185" y="390"/>
      <point x="301.5" y="389.5" type="curve" smooth="yes"/>
      <point x="415.5" y="389.5"/>
      <point x="499.5" y="308"/>
      <point x="482.5" y="189.5" type="curve" smooth="yes"/>
      <point x="465" y="80"/>
      <point x="359.5" y="-10"/>
      <point x="239" y="-9.5" type="curve" smooth="yes"/>
      <point x="121.5" y="-9"/>
      <point x="42" y="84"/>
    </contour>
    <contour>
      <point x="139" y="200" type="curve" smooth="yes"/>
      <point x="127.5" y="125"/>
      <point x="174" y="66.5"/>
      <point x="246" y="65.5" type="curve" smooth="yes"/>
      <point x="319" y="64.5"/>
      <point x="392.5" y="122"/>
      <point x="405" y="200" type="curve" smooth="yes"/>
      <point x="415.5" y="268.5"/>
      <point x="369" y="333.5"/>
      <point x="298" y="334.5" type="curve" smooth="yes"/>
      <point x="225.5" y="335.5"/>
      <point x="151.5" y="271.5"/>
    </contour>
  </outline>
</glyph>
<glyph name="semicolon" format="1">
  <advance width="320"/>
  <unicode hex="003B"/>
  <outline>
    <contour>
      <point x="165" y="420" type="curve" smooth="yes"/>
      <point x="165" y="450"/>
      <point x="189.5" y="474.5"/>
      <point x="219.5" y="474.5" type="curve" smooth="yes"/>
      <point x="249.5" y="474.5"/>
      <point x="274" y="450"/>
      <point x="274" y="420" type="curve" smooth="yes"/>
      <point x="274" y="390"/>
      <point x="249.5" y="365.5"/>
      <point x="219.5" y="365.5" type="curve" smooth="yes"/>
      <point x="189.5" y="365.5"/>
      <point x="165" y="390"/>
    </contour>
    <contour>
      <point x="133.5" y="109" type="line"/>
      <point x="209.5" y="78" type="line"/>
      <point x="60" y="-169" type="line"/>
      <point x="4.5" y="-148" type="line"/>
    </contour>
  </outline>
</glyph>
<glyph name="less" format="1">
  <advance width="621"/>
  <unicode hex="003C"/>
  <outline>
    <contour>
      <point x="209" y="258.5" type="line"/>
      <point x="548" y="91" type="line"/>
      <point x="534.5" y="16" type="line"/>
      <point x="75.5" y="235.5" type="line"/>
      <point x="83" y="280" type="line"/>
      <point x="618.5" y="501" type="line"/>
      <point x="604" y="417.5" type="line"/>
    </contour>
  </outline>
</glyph>
<glyph name="equal" format="1">
  <advance width="596"/>
  <unicode hex="003D"/>
  <outline>
    <contour>
      <point x="60.5" y="140.5" type="line"/>
      <point x="72.5" y="215" type="line"/>
      <point x="545" y="215" type="line"/>
      <point x="532" y="140" type="line"/>
    </contour>
    <contour>
      <point x="86" y="290.5" type="line"/>
      <point x="98" y="365" type="line"/>
      <point x="570.5" y="365" type="line"/>
      <point x="558" y="290" type="line"/>
    </contour>
  </outline>
</glyph>
<glyph name="greater" format="1">
  <advance width="621"/>
  <unicode hex="003E"/>
  <outline>
    <contour>
      <point x="445.5" y="256.5" type="line"/>
      <point x="107" y="424" type="line"/>
      <point x="120.5" y="499" type="line"/>
      <point x="579" y="279.5" type="line"/>
      <point x="572" y="235" type="line"/>
      <point x="36.5" y="14" type="line"/>
      <point x="50.5" y="97.5" type="line"/>
    </contour>
  </outline>
</glyph>
<glyph name="B" format="1">
  <advance width="541"/>
  <unicode hex="0042"/>
  <outline>
    <contour>
      <point x="178.5" y="370.5" type="line"/>
      <point x="186" y="416.5" type="line"/>
      <point x="294" y="417" type="line" smooth="yes"/>
      <point x="361" y="417.5"/>
      <point x="421.5" y="455"/>
      <point x="433" y="520" type="curve" smooth="yes"/>
      <point x="444" y="583"/>
      <point x="399" y="624"/>
      <point x="334.5" y="624.5" type="curve" smooth="yes"/>
      <point x="240.5" y="625" type="line"/>
      <point x="146.5" y="75" type="line"/>
      <point x="244.5" y="75.5" type="line" smooth="yes"/>
      <point x="331.5" y="76"/>
      <point x="404" y="126.5"/>
      <point x="419" y="210" type="curve" smooth="yes"/>
      <point x="433" y="291.5"/>
      <point x="379" y="342.5"/>
      <point x="295.5" y="343" type="curve" smooth="yes"/>
      <point x="173.5" y="343.5" type="line"/>
      <point x="181.5" y="389.5" type="line"/>
      <point x="299" y="390" type="line" smooth="yes"/>
      <point x="422" y="388.5"/>
      <point x="520" y="330"/>
      <point x="501.5" y="204.5" type="curve" smooth="yes"/>
      <point x="482" y="71.5"/>
      <point x="369" y="0"/>
      <point x="238" y="0" type="curve" smooth="yes"/>
      <point x="49.5" y="0" type="line"/>
      <point x="169.5" y="700" type="line"/>
      <point x="341.5" y="700" type="line" smooth="yes"/>
      <point x="455.5" y="700"/>
      <point x="535.5" y="639"/>
      <point x="517.5" y="524.5" type="curve" smooth="yes"/>
      <point x="500.5" y="423"/>
      <point x="404" y="372"/>
      <point x="290.5" y="370.5" type="curve" smooth="yes"/>
    </contour>
  </outline>
</glyph>
<glyph name="H" format="1">
  <advance width="693"/>
  <unicode hex="0048"/>
  <outline>
    <contour>
      <point x="154.5" y="340.5" type="line"/>
      <point x="167.5" y="420" type="line"/>
      <point x="635" y="420" type="line"/>
      <point x="621.5" y="340.5" type="line"/>
    </contour>
    <contour>
      <point x="624.5" y="699.5" type="line"/>
      <point x="710.5" y="700" type="line"/>
      <point x="589" y="0" type="line"/>
      <point x="507" y="0" type="line"/>
    </contour>
    <contour>
      <point x="168.5" y="699.5" type="line"/>
      <point x="254" y="700" type="line"/>
      <point x="133" y="0" type="line"/>
      <point x="51" y="0" type="line"/>
    </contour>
  </outline>
</glyph>
<glyph name="J" format="1">
  <advance width="232"/>
  <unicode hex="004A"/>
  <outline>
    <contour>
      <point x="-112" y="-104.5" type="line"/>
      <point x="-97" y="-126.5"/>
      <point x="-74.5" y="-141"/>
      <point x="-42" y="-140" type="curve" smooth="yes"/>
      <point x="-3" y="-138"/>
      <point x="34" y="-103.5"/>
      <point x="41" y="-50" type="curve" smooth="yes"/>
      <point x="169.5" y="700" type="line"/>
      <point x="249" y="700" type="line"/>
      <point x="119.5" y="-60.5" type="line" smooth="yes"/>
      <point x="103.5" y="-157"/>
      <point x="39.5" y="-220.5"/>
      <point x="-55.5" y="-219.5" type="curve" smooth="yes"/>
      <point x="-103.5" y="-219"/>
      <point x="-143" y="-194.5"/>
      <point x="-164.5" y="-169" type="curve"/>
    </contour>
  </outline>
</glyph>
<glyph name="O" format="1">
  <advance width="766"/>
  <unicode hex="004F"/>
  <outline>
    <contour>
      <point x="159.5" y="350" type="curve" smooth="yes"/>
      <point x="137.5" y="209"/>
      <point x="213" y="76.5"/>
      <point x="366" y="75.5" type="curve" smooth="yes"/>
      <point x="521" y="74.5"/>
      <point x="647.5" y="201"/>
      <point x="672.5" y="350" type="curve" smooth="yes"/>
      <point x="694.5" y="491"/>
      <point x="619" y="623.5"/>
      <point x="466" y="624.5" type="curve" smooth="yes"/>
      <point x="311" y="625.5"/>
      <point x="184.5" y="499"/>
    </contour>
    <contour>
      <point x="70.5" y="350" type="curve" smooth="yes"/>
      <point x="101" y="546"/>
      <point x="269.5" y="710.5"/>
      <point x="474" y="710" type="curve" smooth="yes"/>
      <point x="675.5" y="709.5"/>
      <point x="789" y="537.5"/>
      <point x="761.5" y="350" type="curve" smooth="yes"/>
      <point x="731" y="154"/>
      <point x="562" y="-10.5"/>
      <point x="357.5" y="-10" type="curve" smooth="yes"/>
      <point x="156" y="-9.5"/>
      <point x="43" y="162.5"/>
    </contour>
  </outline>
</glyph>
<glyph name="P" format="1">
  <advance width="531"/>
  <unicode hex="0050"/>
  <outline>
    <contour>
      <point x="168.5" y="699.5" type="line"/>
      <point x="254" y="700" type="line"/>
      <point x="133" y="0" type="line"/>
      <point x="51" y="0" type="line"/>
    </contour>
    <contour>
      <point x="200.5" y="620" type="line"/>
      <point x="215" y="700" type="line"/>
      <point x="351.5" y="700" type="line" smooth="yes"/>
      <point x="478.5" y="700"/>
      <point x="569.5" y="614"/>
      <point x="550.5" y="489.5" type="curve" smooth="yes"/>
      <point x="531" y="362.5"/>
      <point x="416.5" y="280"/>
      <point x="285.5" y="280" type="curve" smooth="yes"/>
      <point x="142.5" y="280" type="line"/>
      <point x="157" y="360" type="line"/>
      <point x="293.5" y="360" type="line"/>
      <point x="380" y="362"/>
      <point x="451.5" y="406.5"/>
      <point x="466.5" y="490" type="curve" smooth="yes"/>
      <point x="480.5" y="571.5"/>
      <point x="426.5" y="619"/>
      <point x="343.5" y="619.5" type="curve" smooth="yes"/>
    </contour>
  </outline>
</glyph>
<glyph name="S" format="1">
  <advance width="531"/>
  <unicode hex="0053"/>
  <outline>
    <contour>
      <point x="106" y="212" type="line"/>
      <point x="143" y="127"/>
      <point x="187" y="70"/>
      <point x="271" y="70" type="curve" smooth="yes"/>
      <point x="361" y="70"/>
      <point x="416" y="136"/>
      <point x="416" y="200" type="curve" smooth="yes"/>
      <point x="416" y="279"/>
      <point x="355.91" y="303.976"/>
      <point x="285" y="336.5" type="curve" smooth="yes"/>
      <point x="223.839" y="364.254"/>
      <point x="130" y="412"/>
      <point x="130" y="519" type="curve" smooth="yes"/>
      <point x="130" y="623"/>
      <point x="214" y="710"/>
      <point x="343" y="710" type="curve" smooth="yes"/>
      <point x="456" y="710"/>
      <point x="522" y="638.5"/>
      <point x="552" y="560.5" type="curve"/>
      <point x="479" y="522" type="line"/>
      <point x="457" y="574"/>
      <point x="420" y="629.5"/>
      <point x="333" y="629.5" type="curve" smooth="yes"/>
      <point x="257" y="629.5"/>
      <point x="217.5" y="585"/>
      <point x="217.5" y="530" type="curve" smooth="yes"/>
      <point x="217.5" y="471"/>
      <point x="263.727" y="430.673"/>
      <point x="351" y="396.5" type="curve" smooth="yes"/>
      <point x="419.506" y="367.653"/>
      <point x="503" y="322"/>
      <point x="503" y="210" type="curve" smooth="yes"/>
      <point x="503" y="88"/>
      <point x="394" y="-10"/>
      <point x="268" y="-10" type="curve" smooth="yes"/>
      <point x="154" y="-10"/>
      <point x="73" y="73"/>
      <point x="38" y="166" type="curve"/>
    </contour>
  </outline>
</glyph>
<glyph name="W" format="1">
  <advance width="960"/>
  <unicode hex="0057"/>
  <outline>
    <contour>
      <point x="690" y="182.5" type="line"/>
      <point x="948.5" y="699.5" type="line"/>
      <point x="1044" y="699.5" type="line"/>
      <point x="661.5" y="-37" type="line"/>
      <point x="542.5" y="507" type="line"/>
      <point x="254" y="-37" type="line"/>
      <point x="100.5" y="700" type="line"/>
      <point x="192.5" y="700" type="line"/>
      <point x="291" y="182.5" type="line"/>
      <point x="577" y="737" type="line"/>
    </contour>
  </outline>
</glyph>
<glyph name="X" format="1">
  <advance width="538"/>
  <unicode hex="0058"/>
  <outline>
    <contour>
      <point x="506.5" y="699.5" type="line"/>
      <point x="607.5" y="699.5" type="line"/>
      <point x="352.5" y="365" type="line"/>
      <point x="511" y="0" type="line"/>
      <point x="415.5" y="0" type="line"/>
      <point x="301" y="291.5" type="line"/>
      <point x="91" y="0" type="line"/>
      <point x="-10" y="0" type="line"/>
      <point x="271" y="369" type="line"/>
      <point x="125.5" y="700" type="line"/>
      <point x="221" y="700" type="line"/>
      <point x="322" y="442.5" type="line"/>
    </contour>
  </outline>
</glyph>
<glyph name="Z" format="1">
  <advance width="528"/>
  <unicode hex="005A"/>
  <outline>
    <contour>
      <point x="111.5" y="620" type="line"/>
      <point x="126" y="700" type="line"/>
      <point x="604" y="699.5" type="line"/>
      <point x="141" y="80.5" type="line"/>
      <point x="478" y="80" type="line"/>
      <point x="463.5" y="0" type="line"/>
      <point x="-15" y="0" type="line"/>
      <point x="448.5" y="619.5" type="line"/>
    </contour>
  </outline>
</glyph>
<glyph name="backslash" format="1">
  <advance width="499"/>
  <unicode hex="005C"/>
  <outline>
    <contour>
      <point x="106" y="700.5" type="line"/>
      <point x="189" y="700" type="line"/>
      <point x="457" y="0" type="line"/>
      <point x="377.5" y="0" type="line"/>
    </contour>
  </outline>
</glyph>
<glyph name="bracketright" format="1">
  <advance width="291"/>
  <unicode hex="005D"/>
  <outline>
    <contour>
      <point x="76.5" y="-145" type="line"/>
      <point x="208" y="705" type="line"/>
      <point x="110" y="705" type="line"/>
      <point x="122" y="780" type="line"/>
      <point x="298" y="780" type="line"/>
      <point x="143.5" y="-220" type="line"/>
      <point x="-33" y="-220" type="line"/>
      <point x="-21.5" y="-145.5" type="line"/>
    </contour>
  </outline>
</glyph>
<glyph name="asciicircum" format="1">
  <advance width="494"/>
  <unicode hex="005E"/>
  <outline>
    <contour>
      <point x="329" y="620.5" type="line"/>
      <point x="194" y="460.5" type="line"/>
      <point x="111.5" y="460.5" type="line"/>
      <point x="320" y="709.5" type="line"/>
      <point x="359.5" y="710" type="line"/>
      <point x="483" y="459.5" type="line"/>
      <point x="407" y="459.5" type="line"/>
    </contour>
  </outline>
</glyph>
<glyph name="underscore" format="1">
  <advance width="485"/>
  <unicode hex="005F"/>
  <outline>
    <contour>
      <point x="-50" y="-132.5" type="line"/>
      <point x="-41.5" y="-78.5" type="line"/>
      <point x="445" y="-78.5" type="line"/>
      <point x="436.5" y="-132.5" type="line"/>
    </contour>
  </outline>
</glyph>
<glyph name="a" format="1">
  <advance width="468"/>
  <unicode hex="0061"/>
  <outline>
    <contour>
      <point x="103.5" y="138.5" type="curve" smooth="yes"/>
      <point x="96.5" y="89"/>
      <point x="133" y="61.5"/>
      <point x="183.5" y="60.5" type="curve" smooth="yes"/>
      <point x="260.5" y="58.5"/>
      <point x="317.5" y="110.5"/>
      <point x="336.5" y="179.5" type="curve"/>
      <point x="344" y="124" type="line"/>
      <point x="323.5" y="40"/>
      <point x="241.5" y="-10"/>
      <point x="157" y="-9.5" type="curve" smooth="yes"/>
      <point x="73.5" y="-9"/>
      <point x="11.5" y="48.5"/>
      <point x="23.5" y="135.5" type="curve" smooth="yes"/>
      <point x="38.5" y="229"/>
      <point x="125" y="286"/>
      <point x="230.5" y="285.5" type="curve" smooth="yes"/>
      <point x="307" y="285"/>
      <point x="352.5" y="253.5"/>
      <point x="377" y="224.5" type="curve"/>
      <point x="369.5" y="178.5" type="line"/>
      <point x="328" y="209"/>
      <point x="285" y="224"/>
      <point x="233.5" y="223.5" type="curve" smooth="yes"/>
      <point x="165.5" y="223"/>
      <point x="112.5" y="194"/>
    </contour>
    <contour>
      <point x="136" y="353" type="curve"/>
      <point x="107" y="414.5" type="line"/>
      <point x="152.5" y="442"/>
      <point x="213" y="470"/>
      <point x="287.5" y="469.5" type="curve" smooth="yes"/>
      <point x="383" y="469"/>
      <point x="455" y="418"/>
      <point x="440" y="330" type="curve" smooth="yes"/>
      <point x="383.5" y="0" type="line"/>
      <point x="304" y="0" type="line"/>
      <point x="362.5" y="324.5" type="line" smooth="yes"/>
      <point x="370" y="376.5"/>
      <point x="330.5" y="398"/>
      <point x="278.5" y="399" type="curve" smooth="yes"/>
      <point x="218" y="400"/>
      <point x="169" y="372.5"/>
    </contour>
  </outline>
</glyph>
<glyph name="f" format="1">
  <advance width="277"/>
  <unicode hex="0066"/>
  <outline>
    <contour>
      <point x="89.5" y="460" type="line"/>
      <point x="314.5" y="460" type="line"/>
      <point x="301" y="385" type="line"/>
      <point x="76" y="385" type="line"/>
    </contour>
    <contour>
      <point x="346" y="684.5" type="line"/>
      <point x="334.5" y="702"/>
      <point x="320.5" y="710.5"/>
      <point x="303.5" y="710.5" type="curve" smooth="yes"/>
      <point x="267" y="710"/>
      <point x="246.5" y="669.5"/>
      <point x="240" y="620" type="curve" smooth="yes"/>
      <point x="133.5" y="0" type="line"/>
      <point x="54" y="0" type="line"/>
      <point x="161.5" y="630.5" type="line" smooth="yes"/>
      <point x="175.5" y="723"/>
      <point x="229" y="791.5"/>
      <point x="317" y="789.5" type="curve" smooth="yes"/>
      <point x="355.5" y="789"/>
      <point x="380.5" y="770.5"/>
      <point x="398.5" y="748.5" type="curve"/>
    </contour>
  </outline>
</glyph>
<glyph name="g" format="1">
  <advance width="553"/>
  <unicode hex="0067"/>
  <outline>
    <contour>
      <point x="9.5" y="-30" type="curve"/>
      <point x="88.5" y="-30.5" type="line"/>
      <point x="83.5" y="-98"/>
      <point x="124.005" y="-153.681"/>
      <point x="207.5" y="-154.5" type="curve" smooth="yes"/>
      <point x="289.5" y="-155.5"/>
      <point x="366.986" y="-88.6842"/>
      <point x="381" y="10" type="curve" smooth="yes"/>
      <point x="458.5" y="460" type="line"/>
      <point x="538" y="460" type="line"/>
      <point x="461" y="10" type="line" smooth="yes"/>
      <point x="439.801" y="-131.445"/>
      <point x="339" y="-229"/>
      <point x="207" y="-229.5" type="curve" smooth="yes"/>
      <point x="78.4995" y="-229.909"/>
      <point x="-2" y="-146"/>
    </contour>
    <contour>
      <point x="45" y="230" type="curve" smooth="yes"/>
      <point x="64.5" y="365.5"/>
      <point x="175.5" y="471"/>
      <point x="305.5" y="470" type="curve" smooth="yes"/>
      <point x="429" y="469"/>
      <point x="471.5" y="353.5"/>
      <point x="455.5" y="230" type="curve" smooth="yes"/>
      <point x="437.5" y="99"/>
      <point x="352" y="-9"/>
      <point x="229.5" y="-9.5" type="curve" smooth="yes"/>
      <point x="100" y="-10"/>
      <point x="27" y="100"/>
    </contour>
    <contour>
      <point x="125" y="230" type="curve" smooth="yes"/>
      <point x="111.5" y="140.5"/>
      <point x="157.5" y="65.5"/>
      <point x="246" y="65.5" type="curve" smooth="yes"/>
      <point x="326" y="65.5"/>
      <point x="405" y="137.5"/>
      <point x="419.5" y="230" type="curve" smooth="yes"/>
      <point x="431.5" y="317"/>
      <point x="386.5" y="392.5"/>
      <point x="308" y="394.5" type="curve" smooth="yes"/>
      <point x="218.5" y="396.5"/>
      <point x="140" y="324"/>
    </contour>
  </outline>
</glyph>
<glyph name="j" format="1">
  <advance width="242"/>
  <unicode hex="006A"/>
  <outline>
    <contour>
      <point x="144" y="650" type="curve" smooth="yes"/>
      <point x="144" y="680"/>
      <point x="168" y="704"/>
      <point x="198" y="704" type="curve" smooth="yes"/>
      <point x="228" y="704"/>
      <point x="252" y="680"/>
      <point x="252" y="650" type="curve" smooth="yes"/>
      <point x="252" y="620"/>
      <point x="228" y="596"/>
      <point x="198" y="596" type="curve" smooth="yes"/>
      <point x="168" y="596"/>
      <point x="144" y="620"/>
    </contour>
    <contour>
      <point x="-65" y="-114.5" type="line"/>
      <point x="-56" y="-129"/>
      <point x="-39" y="-140"/>
      <point x="-22.5" y="-140.5" type="curve" smooth="yes"/>
      <point x="15.5" y="-142.5"/>
      <point x="35.5" y="-97"/>
      <point x="41" y="-50" type="curve" smooth="yes"/>
      <point x="128.5" y="460" type="line"/>
      <point x="208" y="460" type="line"/>
      <point x="119.5" y="-60.5" type="line" smooth="yes"/>
      <point x="105.5" y="-149"/>
      <point x="57.5" y="-221.5"/>
      <point x="-30.5" y="-219.5" type="curve" smooth="yes"/>
      <point x="-67.5" y="-219"/>
      <point x="-96.5" y="-204"/>
      <point x="-117.5" y="-178.5" type="curve"/>
    </contour>
  </outline>
</glyph>
<glyph name="k" format="1">
  <advance width="426"/>
  <unicode hex="006B"/>
  <outline>
    <contour>
      <point x="172.5" y="779.5" type="line"/>
      <point x="253.5" y="780" type="line"/>
      <point x="118.5" y="0" type="line"/>
      <point x="41" y="0" type="line"/>
    </contour>
    <contour>
      <point x="359.5" y="459.5" type="line"/>
      <point x="462" y="459.5" type="line"/>
      <point x="229.5" y="264" type="line"/>
      <point x="398.5" y="0" type="line"/>
      <point x="304" y="0" type="line"/>
      <point x="135.5" y="272.5" type="line"/>
    </contour>
  </outline>
</glyph>
<glyph name="m" format="1">
  <advance width="756"/>
  <unicode hex="006D"/>
  <outline>
    <contour>
      <point x="707" y="290" type="curve" smooth="yes"/>
      <point x="657.5" y="0" type="line"/>
      <point x="578" y="0" type="line"/>
      <point x="627.5" y="280" type="line" smooth="yes"/>
      <point x="635.405" y="341.857"/>
      <point x="627" y="394"/>
      <point x="564" y="394" type="curve" smooth="yes"/>
      <point x="496.442" y="394"/>
      <point x="448.419" y="344.701"/>
      <point x="439" y="281.5" type="curve" smooth="yes"/>
      <point x="390" y="0" type="line"/>
      <point x="312.5" y="0" type="line"/>
      <point x="360.5" y="280" type="line" smooth="yes"/>
      <point x="367.5" y="342"/>
      <point x="360.5" y="394"/>
      <point x="297.5" y="394" type="curve" smooth="yes"/>
      <point x="231.439" y="394"/>
      <point x="183.376" y="349.043"/>
      <point x="173.5" y="284.5" type="curve" smooth="yes"/>
      <point x="123.5" y="0" type="line"/>
      <point x="44" y="0" type="line"/>
      <point x="124" y="460" type="line"/>
      <point x="203" y="460" type="line"/>
      <point x="192.5" y="395.5" type="line"/>
      <point x="224" y="442"/>
      <point x="266.996" y="469.5"/>
      <point x="324" y="469.5" type="curve" smooth="yes"/>
      <point x="390" y="469.5"/>
      <point x="426.5" y="433.5"/>
      <point x="438.5" y="380.5" type="curve"/>
      <point x="474.5" y="435"/>
      <point x="525.5" y="469.5"/>
      <point x="591" y="469.5" type="curve" smooth="yes"/>
      <point x="690.5" y="469.5"/>
      <point x="718.5" y="386"/>
    </contour>
  </outline>
</glyph>
<glyph name="n" format="1">
  <advance width="509"/>
  <unicode hex="006E"/>
  <outline>
    <contour>
      <point x="380" y="280" type="line" smooth="yes"/>
      <point x="388.305" y="342.224"/>
      <point x="372.534" y="394.5"/>
      <point x="307" y="394.5" type="curve" smooth="yes"/>
      <point x="238" y="394.5"/>
      <point x="183.562" y="346.978"/>
      <point x="173.5" y="284" type="curve" smooth="yes"/>
      <point x="123.5" y="0" type="line"/>
      <point x="44" y="0" type="line"/>
      <point x="124" y="460" type="line"/>
      <point x="203" y="460" type="line"/>
      <point x="191.5" y="390.5" type="line"/>
      <point x="226" y="440.5"/>
      <point x="273" y="469.5"/>
      <point x="333.5" y="469.5" type="curve" smooth="yes"/>
      <point x="434.5" y="469.5"/>
      <point x="473.469" y="386.011"/>
      <point x="459.5" y="290" type="curve" smooth="yes"/>
      <point x="409.5" y="0" type="line"/>
      <point x="332" y="0" type="line"/>
    </contour>
  </outline>
</glyph>
<glyph name="s" format="1">
  <advance width="391"/>
  <unicode hex="0073"/>
  <outline>
    <contour>
      <point x="95.5" y="139" type="line"/>
      <point x="123.5" y="96"/>
      <point x="162" y="62"/>
      <point x="219" y="62" type="curve" smooth="yes"/>
      <point x="264" y="62"/>
      <point x="294.5" y="90"/>
      <point x="294.5" y="126" type="curve" smooth="yes"/>
      <point x="294.5" y="170.5"/>
      <point x="245.746" y="195.478"/>
      <point x="203.5" y="212.5" type="curve" smooth="yes"/>
      <point x="151.805" y="233.453"/>
      <point x="88" y="264.5"/>
      <point x="88" y="340.5" type="curve" smooth="yes"/>
      <point x="88" y="427.5"/>
      <point x="163" y="470"/>
      <point x="238" y="470" type="curve" smooth="yes"/>
      <point x="311" y="470"/>
      <point x="367.5" y="431.5"/>
      <point x="395.5" y="380.5" type="curve"/>
      <point x="336.5" y="340.5" type="line"/>
      <point x="311.5" y="374.5"/>
      <point x="276" y="401.5"/>
      <point x="233" y="401.5" type="curve" smooth="yes"/>
      <point x="191" y="401.5"/>
      <point x="164.5" y="381.5"/>
      <point x="164.5" y="350.5" type="curve" smooth="yes"/>
      <point x="164.5" y="313.5"/>
      <point x="201.291" y="295.472"/>
      <point x="245.5" y="276" type="curve" smooth="yes"/>
      <point x="314.458" y="245.583"/>
      <point x="373" y="217"/>
      <point x="373" y="135" type="curve" smooth="yes"/>
      <point x="373" y="55"/>
      <point x="306.5" y="-10"/>
      <point x="212.5" y="-10" type="curve" smooth="yes"/>
      <point x="120.5" y="-10"/>
      <point x="56" y="47"/>
      <point x="31" y="102" type="curve"/>
    </contour>
  </outline>
</glyph>
<glyph name="u" format="1">
  <advance width="509"/>
  <unicode hex="0075"/>
  <outline>
    <contour>
      <point x="154" y="180" type="line" smooth="yes"/>
      <point x="145.745" y="118.91"/>
      <point x="161.466" y="65.5"/>
      <point x="226.5" y="65.5" type="curve" smooth="yes"/>
      <point x="295.5" y="65.5"/>
      <point x="349.938" y="113.022"/>
      <point x="360" y="176" type="curve" smooth="yes"/>
      <point x="410" y="460" type="line"/>
      <point x="489.5" y="460" type="line"/>
      <point x="410" y="0" type="line"/>
      <point x="330.5" y="0" type="line"/>
      <point x="342" y="69.5" type="line"/>
      <point x="307.5" y="20"/>
      <point x="261" y="-9.5"/>
      <point x="200" y="-9.5" type="curve" smooth="yes"/>
      <point x="99.5" y="-9.5"/>
      <point x="59.9062" y="74.5327"/>
      <point x="74" y="170" type="curve" smooth="yes"/>
      <point x="124.5" y="460" type="line"/>
      <point x="201.5" y="459.5" type="line"/>
    </contour>
  </outline>
</glyph>
<glyph name="w" format="1">
  <advance width="659"/>
  <unicode hex="0077"/>
  <outline>
    <contour>
      <point x="57" y="460" type="line"/>
      <point x="143.5" y="460" type="line"/>
      <point x="203" y="163.5" type="line"/>
      <point x="383" y="497" type="line"/>
      <point x="454" y="161.5" type="line"/>
      <point x="618" y="459.5" type="line"/>
      <point x="709" y="459.5" type="line"/>
      <point x="427.5" y="-37" type="line"/>
      <point x="351.5" y="298" type="line"/>
      <point x="165.5" y="-37" type="line"/>
    </contour>
  </outline>
</glyph>
<glyph name="y" format="1">
  <advance width="426"/>
  <unicode hex="0079"/>
  <outline>
    <contour>
      <point x="481" y="459.5" type="line"/>
      <point x="72.5" y="-219.5" type="line"/>
      <point x="-18.5" y="-219.5" type="line"/>
      <point x="155.5" y="67.5" type="line"/>
      <point x="52" y="460" type="line"/>
      <point x="139.5" y="460" type="line"/>
      <point x="224" y="100" type="line"/>
      <point x="191.5" y="104.5" type="line"/>
      <point x="390" y="459.5" type="line"/>
    </contour>
  </outline>
</glyph>
<glyph name="braceright" format="1">
  <advance width="301"/>
  <unicode hex="007D"/>
  <outline>
    <contour>
      <point x="107.5" y="-80" type="curve" smooth="yes"/>
      <point x="133.5" y="90" type="line" smooth="yes"/>
      <point x="148.5" y="183"/>
      <point x="168.5" y="287.5"/>
      <point x="277" y="299.5" type="curve"/>
      <point x="274" y="280" type="line"/>
      <point x="169" y="295.5"/>
      <point x="183.5" y="406"/>
      <point x="195.5" y="490" type="curve" smooth="yes"/>
      <point x="222.5" y="660.5" type="line" smooth="yes"/>
      <point x="227" y="687.5"/>
      <point x="213.5" y="709"/>
      <point x="184" y="709.5" type="curve" smooth="yes"/>
      <point x="149" y="710" type="line"/>
      <point x="159" y="780" type="line"/>
      <point x="216.5" y="780" type="line" smooth="yes"/>
      <point x="274.5" y="780"/>
      <point x="305.5" y="716.5"/>
      <point x="297" y="640" type="curve" smooth="yes"/>
      <point x="264.5" y="430" type="line" smooth="yes"/>
      <point x="258" y="370"/>
      <point x="264" y="342.5"/>
      <point x="295" y="320" type="curve"/>
      <point x="286" y="260" type="line"/>
      <point x="249.5" y="241.5"/>
      <point x="230.5" y="212"/>
      <point x="222.5" y="150" type="curve" smooth="yes"/>
      <point x="190.5" y="-60.5" type="line" smooth="yes"/>
      <point x="179.5" y="-141.5"/>
      <point x="127.5" y="-199.5"/>
      <point x="69.5" y="-199.5" type="curve" smooth="yes"/>
      <point x="9" y="-199.5" type="line"/>
      <point x="19.5" y="-130" type="line"/>
      <point x="52.5" y="-130" type="line" smooth="yes"/>
      <point x="84" y="-130"/>
      <point x="102.5" y="-109"/>
    </contour>
  </outline>
</glyph>
<glyph name="asciitilde" format="1">
  <advance width="558"/>
  <unicode hex="007E"/>
  <outline>
    <contour>
      <point x="148.5" y="176" type="curve"/>
      <point x="76.5" y="181" type="line"/>
      <point x="76" y="188.5"/>
      <point x="75.5" y="197"/>
      <point x="76.5" y="205.5" type="curve" smooth="yes"/>
      <point x="80.5" y="228.5"/>
      <point x="92" y="253.5"/>
      <point x="110" y="275" type="curve" smooth="yes"/>
      <point x="137.5" y="307"/>
      <point x="177" y="326.5"/>
      <point x="219" y="326.5" type="curve" smooth="yes"/>
      <point x="259" y="326.5"/>
      <point x="295.5" y="307.5"/>
      <point x="331.5" y="279" type="curve" smooth="yes"/>
      <point x="354" y="261"/>
      <point x="376.5" y="247"/>
      <point x="396.5" y="247.5" type="curve" smooth="yes"/>
      <point x="424" y="248"/>
      <point x="441.5" y="269"/>
      <point x="446.5" y="296" type="curve" smooth="yes"/>
      <point x="448.5" y="304"/>
      <point x="448" y="313.5"/>
      <point x="446" y="323" type="curve"/>
      <point x="523" y="318" type="line"/>
      <point x="523.5" y="309.5"/>
      <point x="524.5" y="299"/>
      <point x="523" y="289.5" type="curve" smooth="yes"/>
      <point x="519.5" y="267"/>
      <point x="509" y="240"/>
      <point x="491.5" y="219" type="curve" smooth="yes"/>
      <point x="466" y="189"/>
      <point x="431" y="172"/>
      <point x="394.5" y="172.5" type="curve" smooth="yes"/>
      <point x="358.5" y="173"/>
      <point x="325" y="192.5"/>
      <point x="289.5" y="220" type="curve" smooth="yes"/>
      <point x="264.5" y="239.5"/>
      <point x="238" y="253"/>
      <point x="212" y="252.5" type="curve" smooth="yes"/>
      <point x="178" y="252"/>
      <point x="154.5" y="230"/>
      <point x="148.5" y="198" type="curve" smooth="yes"/>
      <point x="147" y="191"/>
      <point x="147.5" y="183.5"/>
    </contour>
  </outline>
</glyph>
<glyph name="copyright" format="1">
  <advance width="776"/>
  <unicode hex="00A9"/>
  <outline>
    <contour>
      <point x="269" y="350" type="curve" smooth="yes"/>
      <point x="256.5" y="263.5"/>
      <point x="303" y="186.5"/>
      <point x="392.5" y="185.5" type="curve" smooth="yes"/>
      <point x="450" y="184.5"/>
      <point x="498.5" y="212"/>
      <point x="535" y="246" type="curve"/>
      <point x="525.5" y="179.5" type="line"/>
      <point x="486.5" y="151"/>
      <point x="445.5" y="134"/>
      <point x="389.5" y="134.5" type="curve" smooth="yes"/>
      <point x="273" y="135"/>
      <point x="200.5" y="236"/>
      <point x="215.5" y="350" type="curve" smooth="yes"/>
      <point x="231.5" y="468.5"/>
      <point x="333" y="564.5"/>
      <point x="451" y="565.5" type="curve" smooth="yes"/>
      <point x="505" y="566"/>
      <point x="543" y="550"/>
      <point x="578" y="519.5" type="curve"/>
      <point x="568" y="453" type="line"/>
      <point x="540.5" y="490.5"/>
      <point x="501.5" y="514.5"/>
      <point x="448" y="514.5" type="curve" smooth="yes"/>
      <point x="357.5" y="514.5"/>
      <point x="283" y="441"/>
    </contour>
    <contour>
      <point x="129.5" y="350" type="curve" smooth="yes"/>
      <point x="106" y="188.5"/>
      <point x="203" y="41"/>
      <point x="374.5" y="40.5" type="curve" smooth="yes"/>
      <point x="549" y="40"/>
      <point x="694.5" y="180.5"/>
      <point x="720.5" y="350" type="curve" smooth="yes"/>
      <point x="744" y="511.5"/>
      <point x="647" y="659"/>
      <point x="475.5" y="659.5" type="curve" smooth="yes"/>
      <point x="301" y="660"/>
      <point x="155.5" y="519.5"/>
    </contour>
    <contour>
      <point x="74.5" y="350" type="curve" smooth="yes"/>
      <point x="102.5" y="550"/>
      <point x="273" y="710.5"/>
      <point x="477.5" y="710" type="curve" smooth="yes"/>
      <point x="678.5" y="709.5"/>
      <point x="800.5" y="542.5"/>
      <point x="775" y="350" type="curve" smooth="yes"/>
      <point x="747" y="150"/>
      <point x="577" y="-10.5"/>
      <point x="372.5" y="-10" type="curve" smooth="yes"/>
      <point x="171.5" y="-9.5"/>
      <point x="49" y="157.5"/>
    </contour>
  </outline>
</glyph>
<glyph name="degree" format="1">
  <advance width="269"/>
  <unicode hex="00B0"/>
  <outline>
    <contour>
      <point x="94" y="600.5" type="curve" smooth="yes"/>
      <point x="103.5" y="666"/>
      <point x="161.5" y="720"/>
      <point x="228.5" y="719.5" type="curve" smooth="yes"/>
      <point x="295.5" y="719"/>
      <point x="335.5" y="664"/>
      <point x="326.5" y="599.5" type="curve" smooth="yes"/>
      <point x="317" y="534"/>
      <point x="259" y="480"/>
      <point x="192" y="480.5" type="curve" smooth="yes"/>
      <point x="125" y="481"/>
      <point x="85" y="536"/>
    </contour>
    <contour>
      <point x="133.5" y="600" type="curve" smooth="yes"/>
      <point x="127" y="558.5"/>
      <point x="150" y="519"/>
      <point x="194" y="518.5" type="curve" smooth="yes"/>
      <point x="239" y="518"/>
      <point x="279.5" y="556"/>
      <point x="287" y="600" type="curve" smooth="yes"/>
      <point x="293.5" y="641.5"/>
      <point x="270.5" y="681"/>
      <point x="226.5" y="681.5" type="curve" smooth="yes"/>
      <point x="181.5" y="682"/>
      <point x="141" y="644"/>
    </contour>
  </outline>
</glyph>
<glyph name="plusminus" format="1">
  <advance width="596"/>
  <unicode hex="00B1"/>
  <outline>
    <contour>
      <point x="46.5" y="0" type="line"/>
      <point x="58" y="80" type="line"/>
      <point x="530.5" y="80" type="line"/>
      <point x="518" y="0" type="line"/>
    </contour>
    <contour>
      <point x="99.5" y="345" type="line"/>
      <point x="111.5" y="425" type="line"/>
      <point x="583.5" y="425" type="line"/>
      <point x="571" y="345" type="line"/>
    </contour>
    <contour>
      <point x="334" y="620" type="line"/>
      <point x="419.5" y="620" type="line"/>
      <point x="345.5" y="150" type="line"/>
      <point x="263.5" y="150.5" type="line"/>
    </contour>
  </outline>
</glyph>
<glyph name="uni00B3" format="1">
  <advance width="302"/>
  <unicode hex="00B3"/>
  <outline>
    <contour>
      <point x="192.5" y="488" type="curve"/>
      <point x="198" y="520" type="line"/>
      <point x="247" y="525"/>
      <point x="285.5" y="549.5"/>
      <point x="294" y="593" type="curve" smooth="yes"/>
      <point x="299.5" y="628"/>
      <point x="283.5" y="658"/>
      <point x="245" y="659.5" type="curve" smooth="yes"/>
      <point x="205.5" y="661.5"/>
      <point x="175.5" y="629.5"/>
      <point x="165" y="597" type="curve"/>
      <point x="115.5" y="597.5" type="line"/>
      <point x="130.5" y="657.5"/>
      <point x="179.5" y="706.5"/>
      <point x="248.5" y="705.5" type="curve" smooth="yes"/>
      <point x="315.5" y="704.5"/>
      <point x="354" y="651.5"/>
      <point x="344.5" y="593.5" type="curve" smooth="yes"/>
      <point x="333" y="528"/>
      <point x="266.5" y="492.5"/>
    </contour>
    <contour>
      <point x="176.5" y="274.5" type="curve" smooth="yes"/>
      <point x="99" y="274.5"/>
      <point x="59.5" y="325.5"/>
      <point x="63" y="391" type="curve"/>
      <point x="113.5" y="391" type="line"/>
      <point x="113.5" y="352.5"/>
      <point x="133.5" y="323.5"/>
      <point x="179.5" y="322.5" type="curve" smooth="yes"/>
      <point x="225" y="321.5"/>
      <point x="264.5" y="354.5"/>
      <point x="271" y="397.5" type="curve" smooth="yes"/>
      <point x="279.5" y="450"/>
      <point x="238.5" y="470.5"/>
      <point x="190" y="475" type="curve"/>
      <point x="195.5" y="507.5" type="line"/>
      <point x="270" y="503.5"/>
      <point x="334" y="471.5"/>
      <point x="322" y="390.5" type="curve" smooth="yes"/>
      <point x="312" y="322"/>
      <point x="248" y="274.5"/>
    </contour>
  </outline>
</glyph>
<glyph name="mu" format="1">
  <advance width="509"/>
  <unicode hex="00B5"/>
  <outline>
    <contour>
      <point x="203.5" y="460" type="line"/>
      <point x="151.073" y="168.544" type="line" smooth="yes"/>
      <point x="143.811" y="109.565"/>
      <point x="165.974" y="65.0462"/>
      <point x="226.5" y="65.5" type="curve" smooth="yes"/>
      <point x="295.72" y="66.0541"/>
      <point x="350.026" y="113.491"/>
      <point x="360.232" y="176.016" type="curve" smooth="yes"/>
      <point x="410" y="460" type="line"/>
      <point x="489.5" y="460" type="line"/>
      <point x="410" y="0" type="line"/>
      <point x="330.5" y="0" type="line"/>
      <point x="340.403" y="59.6492" type="line"/>
      <point x="305.099" y="17.6806"/>
      <point x="256.533" y="-9.5"/>
      <point x="200" y="-9.5" type="curve" smooth="yes"/>
      <point x="169.693" y="-9.5"/>
      <point x="145.296" y="-2.37694"/>
      <point x="126.128" y="10.4811" type="curve"/>
      <point x="68.5" y="-320" type="line"/>
      <point x="-8.5" y="-319.5" type="line"/>
      <point x="123" y="460" type="line"/>
    </contour>
  </outline>
</glyph>
<glyph name="paragraph" format="1">
  <advance width="560"/>
  <unicode hex="00B6"/>
  <outline>
    <contour>
      <point x="298.109" y="270.717" type="line"/>
      <point x="176.823" y="277.87"/>
      <point x="93.8558" y="356.744"/>
      <point x="113" y="485.5" type="curve" smooth="yes"/>
      <point x="134" y="620"/>
      <point x="243" y="699.5"/>
      <point x="371" y="699.5" type="curve" smooth="yes"/>
      <point x="595.5" y="699.5" type="line"/>
      <point x="439" y="-219.5" type="line"/>
      <point x="370" y="-219.5" type="line"/>
      <point x="515.76" y="635.5" type="line"/>
      <point x="429.26" y="635.5" type="line"/>
      <point x="283.5" y="-219.5" type="line"/>
      <point x="214.5" y="-219.5" type="line"/>
    </contour>
  </outline>
</glyph>
<glyph name="ordmasculine" format="1">
  <advance width="269"/>
  <unicode hex="00BA"/>
  <outline>
    <contour>
      <point x="90.5" y="580.5" type="curve" smooth="yes"/>
      <point x="100" y="646"/>
      <point x="158" y="700"/>
      <point x="225" y="699.5" type="curve" smooth="yes"/>
      <point x="292" y="699"/>
      <point x="332" y="644"/>
      <point x="323" y="579.5" type="curve" smooth="yes"/>
      <point x="313.5" y="514"/>
      <point x="255.5" y="460"/>
      <point x="188.5" y="460.5" type="curve" smooth="yes"/>
      <point x="121.5" y="461"/>
      <point x="81.5" y="516"/>
    </contour>
    <contour>
      <point x="130" y="580" type="curve" smooth="yes"/>
      <point x="123.5" y="538.5"/>
      <point x="146.5" y="499"/>
      <point x="190.5" y="498.5" type="curve" smooth="yes"/>
      <point x="235.5" y="498"/>
      <point x="276" y="536"/>
      <point x="283.5" y="580" type="curve" smooth="yes"/>
      <point x="290" y="621.5"/>
      <point x="267" y="661"/>
      <point x="223" y="661.5" type="curve" smooth="yes"/>
      <point x="178" y="662"/>
      <point x="137.5" y="624"/>
    </contour>
  </outline>
</glyph>
<glyph name="guillemotright" format="1">
  <advance width="494"/>
  <unicode hex="00BB"/>
  <outline>
    <contour>
      <point x="229" y="251.5" type="line"/>
      <point x="116" y="446" type="line"/>
      <point x="171" y="490" type="line"/>
      <point x="317.5" y="252" type="line"/>
      <point x="94.5" y="20.5" type="line"/>
      <point x="51" y="66.5" type="line"/>
    </contour>
    <contour>
      <point x="384.5" y="251.5" type="line"/>
      <point x="271.5" y="446" type="line"/>
      <point x="326.5" y="490" type="line"/>
      <point x="472.5" y="252" type="line"/>
      <point x="249.5" y="20.5" type="line"/>
      <point x="206.5" y="66.5" type="line"/>
    </contour>
  </outline>
</glyph>
<glyph name="onequarter" format="1">
  <advance width="731"/>
  <unicode hex="00BC"/>
  <outline>
    <contour>
      <point x="690" y="699" type="line"/>
      <point x="755.5" y="698.5" type="line"/>
      <point x="133" y="0" type="line"/>
      <point x="67.5" y="0" type="line"/>
    </contour>
    <contour>
      <point x="106.5" y="612" type="line"/>
      <point x="114.5" y="664" type="line"/>
      <point x="263" y="700.5" type="line"/>
      <point x="189.5" y="274.5" type="line"/>
      <point x="138.5" y="274.5" type="line"/>
      <point x="199.5" y="637.5" type="line"/>
    </contour>
    <contour>
      <point x="373.5" y="85" type="line"/>
      <point x="419.5" y="128" type="line"/>
      <point x="596" y="129" type="line"/>
      <point x="606" y="129" type="line"/>
      <point x="692" y="128.5" type="line"/>
      <point x="684.5" y="84.5" type="line"/>
    </contour>
    <contour>
      <point x="427.5" y="85" type="line"/>
      <point x="373" y="85.5" type="line"/>
      <point x="655.5" y="419" type="line"/>
      <point x="677.5" y="419.5" type="line"/>
      <point x="606.5" y="0" type="line"/>
      <point x="555.5" y="0" type="line"/>
      <point x="573.5" y="106" type="line"/>
      <point x="574.5" y="112" type="line"/>
      <point x="607" y="301.5" type="line"/>
    </contour>
  </outline>
</glyph>
<glyph name="onehalf" format="1">
  <advance width="794"/>
  <unicode hex="00BD"/>
  <outline>
    <contour>
      <point x="690" y="699" type="line"/>
      <point x="755.5" y="698.5" type="line"/>
      <point x="133" y="0" type="line"/>
      <point x="67.5" y="0" type="line"/>
    </contour>
    <contour>
      <point x="106.5" y="612" type="line"/>
      <point x="114.5" y="664" type="line"/>
      <point x="263" y="700.5" type="line"/>
      <point x="189.5" y="274.5" type="line"/>
      <point x="138.5" y="274.5" type="line"/>
      <point x="199.5" y="637.5" type="line"/>
    </contour>
    <contour>
      <point x="451.5" y="3" type="line"/>
      <point x="678" y="214" type="line" smooth="yes"/>
      <point x="706.5" y="240.5"/>
      <point x="732.5" y="270"/>
      <point x="738.5" y="306" type="curve" smooth="yes"/>
      <point x="744" y="342"/>
      <point x="725.5" y="378"/>
      <point x="680" y="380" type="curve" smooth="yes"/>
      <point x="623" y="383"/>
      <point x="585" y="333"/>
      <point x="572.5" y="279" type="curve"/>
      <point x="521.5" y="279" type="line"/>
      <point x="538.5" y="360"/>
      <point x="594.5" y="429.5"/>
      <point x="683" y="428.5" type="curve" smooth="yes"/>
      <point x="764.5" y="428"/>
      <point x="799" y="361.5"/>
      <point x="789" y="301.5" type="curve" smooth="yes"/>
      <point x="781.5" y="256.5"/>
      <point x="751.5" y="218.5"/>
      <point x="716.5" y="186" type="curve" smooth="yes"/>
      <point x="564.5" y="50.5" type="line"/>
      <point x="747.5" y="49.5" type="line"/>
      <point x="739.5" y="2.5" type="line"/>
    </contour>
  </outline>
</glyph>
<glyph name="Acircumflex" format="1">
  <advance width="640"/>
  <unicode hex="00C2"/>
  <outline>
    <contour>
      <point x="151.5" y="211" type="line"/>
      <point x="193" y="289.5" type="line"/>
      <point x="495.5" y="290" type="line"/>
      <point x="511.5" y="210" type="line"/>
    </contour>
    <contour>
      <point x="388" y="542" type="line"/>
      <point x="225.5" y="264" type="line"/>
      <point x="215" y="246" type="line"/>
      <point x="71" y="0" type="line"/>
      <point x="-25" y="0" type="line"/>
      <point x="418.5" y="736.5" type="line"/>
      <point x="608" y="0" type="line"/>
      <point x="516.5" y="0" type="line"/>
      <point x="458.5" y="240" type="line"/>
      <point x="454.5" y="260" type="line"/>
    </contour>
    <contour>
      <point x="441" y="849.5" type="line"/>
      <point x="317" y="755.5" type="line"/>
      <point x="272.5" y="796.5" type="line"/>
      <point x="451" y="935" type="line"/>
      <point x="585" y="794" type="line"/>
      <point x="531" y="755.5" type="line"/>
    </contour>
  </outline>
</glyph>
<glyph name="Adieresis" format="1">
  <advance width="640"/>
  <unicode hex="00C4"/>
  <outline>
    <contour>
      <point x="151.5" y="211" type="line"/>
      <point x="193" y="289.5" type="line"/>
      <point x="495.5" y="290" type="line"/>
      <point x="511.5" y="210" type="line"/>
    </contour>
    <contour>
      <point x="388" y="542" type="line"/>
      <point x="225.5" y="264" type="line"/>
      <point x="215" y="246" type="line"/>
      <point x="71" y="0" type="line"/>
      <point x="-25" y="0" type="line"/>
      <point x="418.5" y="736.5" type="line"/>
      <point x="608" y="0" type="line"/>
      <point x="516.5" y="0" type="line"/>
      <point x="458.5" y="240" type="line"/>
      <point x="454.5" y="260" type="line"/>
    </contour>
    <contour>
      <point x="481.5" y="851" type="curve" smooth="yes"/>
      <point x="484.5" y="878"/>
      <point x="516" y="906"/>
      <point x="543.5" y="904.5" type="curve" smooth="yes"/>
      <point x="572" y="903"/>
      <point x="592" y="877"/>
      <point x="589" y="849" type="curve" smooth="yes"/>
      <point x="586" y="822"/>
      <point x="554.5" y="794"/>
      <point x="527" y="795.5" type="curve" smooth="yes"/>
      <point x="498.5" y="797"/>
      <point x="478.5" y="823"/>
    </contour>
    <contour>
      <point x="287" y="851" type="curve" smooth="yes"/>
      <point x="290" y="878"/>
      <point x="322" y="906"/>
      <point x="349.5" y="904.5" type="curve" smooth="yes"/>
      <point x="378" y="903"/>
      <point x="398" y="877"/>
      <point x="395" y="849" type="curve" smooth="yes"/>
      <point x="392" y="822"/>
      <point x="360.5" y="794"/>
      <point x="333" y="795.5" type="curve" smooth="yes"/>
      <point x="304.5" y="797"/>
      <point x="284" y="823"/>
    </contour>
  </outline>
</glyph>
<glyph name="Iacute" format="1">
  <advance width="237"/>
  <unicode hex="00CD"/>
  <outline>
    <contour>
      <point x="168.5" y="699.5" type="line"/>
      <point x="254" y="700" type="line"/>
      <point x="133" y="0" type="line"/>
      <point x="51" y="0" type="line"/>
    </contour>
    <contour>
      <point x="375" y="917.5" type="line"/>
      <point x="176" y="770.5" type="line"/>
      <point x="135.5" y="801.5" type="line"/>
      <point x="307.5" y="959.5" type="line"/>
    </contour>
  </outline>
</glyph>
<glyph name="Ntilde" format="1">
  <advance width="752"/>
  <unicode hex="00D1"/>
  <outline>
    <contour>
      <point x="684" y="700" type="line"/>
      <point x="768" y="700" type="line"/>
      <point x="642" y="-34" type="line"/>
      <point x="223.5" y="521.5" type="line"/>
      <point x="133.5" y="0" type="line"/>
      <point x="49" y="0" type="line"/>
      <point x="175" y="734" type="line"/>
      <point x="594" y="178.5" type="line"/>
    </contour>
    <contour>
      <point x="316" y="793.5" type="line"/>
      <point x="335.5" y="836"/>
      <point x="380.5" y="875"/>
      <point x="429" y="873.5" type="curve" smooth="yes"/>
      <point x="481" y="872.5"/>
      <point x="495" y="826"/>
      <point x="541.5" y="827.5" type="curve" smooth="yes"/>
      <point x="565" y="828.5"/>
      <point x="585.5" y="850"/>
      <point x="605" y="874.5" type="curve"/>
      <point x="644.5" y="830.5" type="line"/>
      <point x="621.5" y="796.5"/>
      <point x="580" y="757.5"/>
      <point x="531" y="759.5" type="curve" smooth="yes"/>
      <point x="484.5" y="761"/>
      <point x="464" y="806.5"/>
      <point x="422" y="805.5" type="curve" smooth="yes"/>
      <point x="386.5" y="804.5"/>
      <point x="372" y="773.5"/>
      <point x="363.5" y="755.5" type="curve"/>
    </contour>
  </outline>
</glyph>
<glyph name="Uacute" format="1">
  <advance width="607"/>
  <unicode hex="00DA"/>
  <outline>
    <contour>
      <point x="165" y="700" type="line"/>
      <point x="249" y="700" type="line"/>
      <point x="167.5" y="230" type="line" smooth="yes"/>
      <point x="156" y="144.5"/>
      <point x="189" y="71.5"/>
      <point x="286" y="70.5" type="curve" smooth="yes"/>
      <point x="384" y="69.5"/>
      <point x="447" y="140.5"/>
      <point x="463.5" y="230" type="curve"/>
      <point x="544.5" y="700" type="line"/>
      <point x="628.5" y="700" type="line"/>
      <point x="548" y="230" type="line" smooth="yes"/>
      <point x="525" y="97.5"/>
      <point x="421.5" y="-9.5"/>
      <point x="278" y="-9.5" type="curve" smooth="yes"/>
      <point x="137" y="-9.5"/>
      <point x="67" y="101"/>
      <point x="84.5" y="230" type="curve"/>
    </contour>
    <contour>
      <point x="560.5" y="917.5" type="line"/>
      <point x="361.5" y="771" type="line"/>
      <point x="320" y="801.5" type="line"/>
      <point x="492" y="959.5" type="line"/>
    </contour>
  </outline>
</glyph>
<glyph name="Ucircumflex" format="1">
  <advance width="607"/>
  <unicode hex="00DB"/>
  <outline>
    <contour>
      <point x="165" y="700" type="line"/>
      <point x="249" y="700" type="line"/>
      <point x="167.5" y="230" type="line" smooth="yes"/>
      <point x="156" y="144.5"/>
      <point x="189" y="71.5"/>
      <point x="286" y="70.5" type="curve" smooth="yes"/>
      <point x="384" y="69.5"/>
      <point x="447" y="140.5"/>
      <point x="463.5" y="230" type="curve"/>
      <point x="544.5" y="700" type="line"/>
      <point x="628.5" y="700" type="line"/>
      <point x="548" y="230" type="line" smooth="yes"/>
      <point x="525" y="97.5"/>
      <point x="421.5" y="-9.5"/>
      <point x="278" y="-9.5" type="curve" smooth="yes"/>
      <point x="137" y="-9.5"/>
      <point x="67" y="101"/>
      <point x="84.5" y="230" type="curve"/>
    </contour>
    <contour>
      <point x="427" y="864.5" type="line"/>
      <point x="303" y="770.5" type="line"/>
      <point x="259" y="811.5" type="line"/>
      <point x="437" y="950" type="line"/>
      <point x="571" y="809" type="line"/>
      <point x="517" y="770.5" type="line"/>
    </contour>
  </outline>
</glyph>
<glyph name="Udieresis" format="1">
  <advance width="607"/>
  <unicode hex="00DC"/>
  <outline>
    <contour>
      <point x="165" y="700" type="line"/>
      <point x="249" y="700" type="line"/>
      <point x="167.5" y="230" type="line" smooth="yes"/>
      <point x="156" y="144.5"/>
      <point x="189" y="71.5"/>
      <point x="286" y="70.5" type="curve" smooth="yes"/>
      <point x="384" y="69.5"/>
      <point x="447" y="140.5"/>
      <point x="463.5" y="230" type="curve"/>
      <point x="544.5" y="700" type="line"/>
      <point x="628.5" y="700" type="line"/>
      <point x="548" y="230" type="line" smooth="yes"/>
      <point x="525" y="97.5"/>
      <point x="421.5" y="-9.5"/>
      <point x="278" y="-9.5" type="curve" smooth="yes"/>
      <point x="137" y="-9.5"/>
      <point x="67" y="101"/>
      <point x="84.5" y="230" type="curve"/>
    </contour>
    <contour>
      <point x="460.5" y="826" type="curve" smooth="yes"/>
      <point x="463.5" y="853"/>
      <point x="495" y="881"/>
      <point x="522.5" y="879.5" type="curve" smooth="yes"/>
      <point x="551" y="878"/>
      <point x="571.5" y="852"/>
      <point x="568.5" y="824" type="curve" smooth="yes"/>
      <point x="565.5" y="797"/>
      <point x="534" y="769"/>
      <point x="506.5" y="770.5" type="curve" smooth="yes"/>
      <point x="478" y="772"/>
      <point x="457.5" y="798"/>
    </contour>
    <contour>
      <point x="266.5" y="826" type="curve" smooth="yes"/>
      <point x="269.5" y="853"/>
      <point x="301" y="881"/>
      <point x="328.5" y="879.5" type="curve" smooth="yes"/>
      <point x="357" y="878"/>
      <point x="377.5" y="852"/>
      <point x="374.5" y="824" type="curve" smooth="yes"/>
      <point x="371.5" y="797"/>
      <point x="339.5" y="769"/>
      <point x="312" y="770.5" type="curve" smooth="yes"/>
      <point x="283.5" y="772"/>
      <point x="263.5" y="798"/>
    </contour>
  </outline>
</glyph>
<glyph name="Yacute" format="1">
  <advance width="544"/>
  <unicode hex="00DD"/>
  <outline>
    <contour>
      <point x="528.5" y="917.5" type="line"/>
      <point x="329.5" y="770.5" type="line"/>
      <point x="289" y="801.5" type="line"/>
      <point x="460.5" y="959.5" type="line"/>
    </contour>
    <contour>
      <point x="538" y="699.5" type="line"/>
      <point x="634.5" y="699.5" type="line"/>
      <point x="338" y="299.5" type="line"/>
      <point x="286.5" y="0" type="line"/>
      <point x="202.5" y="0" type="line"/>
      <point x="256" y="304" type="line"/>
      <point x="98" y="700" type="line"/>
      <point x="189" y="700" type="line"/>
      <point x="307.5" y="377.5" type="line"/>
    </contour>
  </outline>
</glyph>
<glyph name="adieresis" format="1">
  <advance width="470"/>
  <unicode hex="00E4"/>
  <outline>
    <contour>
      <point x="103.5" y="135" type="curve" smooth="yes"/>
      <point x="95.5" y="86.5"/>
      <point x="128.5" y="62.5"/>
      <point x="182.5" y="61.5" type="curve" smooth="yes"/>
      <point x="263.5" y="60"/>
      <point x="319.5" y="103.5"/>
      <point x="338.5" y="179.5" type="curve"/>
      <point x="346" y="129" type="line"/>
      <point x="325.5" y="44.5"/>
      <point x="251" y="-10"/>
      <point x="156.5" y="-9.5" type="curve" smooth="yes"/>
      <point x="69.5" y="-9"/>
      <point x="10.5" y="43.5"/>
      <point x="22.5" y="125.5" type="curve" smooth="yes"/>
      <point x="37" y="228.5"/>
      <point x="133" y="286"/>
      <point x="238.5" y="285.5" type="curve" smooth="yes"/>
      <point x="309.5" y="285.5"/>
      <point x="355" y="253.5"/>
      <point x="379" y="224.5" type="curve"/>
      <point x="371.5" y="178.5" type="line"/>
      <point x="331" y="209"/>
      <point x="289.5" y="225"/>
      <point x="237" y="224.5" type="curve" smooth="yes"/>
      <point x="167.5" y="224"/>
      <point x="113.5" y="193"/>
    </contour>
    <contour>
      <point x="142" y="352" type="curve"/>
      <point x="113" y="414.5" type="line"/>
      <point x="158" y="442"/>
      <point x="217.5" y="470"/>
      <point x="291" y="469.5" type="curve" smooth="yes"/>
      <point x="385.5" y="469"/>
      <point x="453.5" y="419"/>
      <point x="442" y="330" type="curve"/>
      <point x="385.5" y="0" type="line"/>
      <point x="306" y="0" type="line"/>
      <point x="364.5" y="330" type="line"/>
      <point x="365" y="375"/>
      <point x="332.5" y="398"/>
      <point x="284" y="399" type="curve" smooth="yes"/>
      <point x="225" y="400"/>
      <point x="175.5" y="371.5"/>
    </contour>
    <contour>
      <point x="356.5" y="586" type="curve" smooth="yes"/>
      <point x="359.5" y="613"/>
      <point x="391" y="641"/>
      <point x="418.5" y="639.5" type="curve" smooth="yes"/>
      <point x="447" y="638"/>
      <point x="467.5" y="612"/>
      <point x="464.5" y="584" type="curve" smooth="yes"/>
      <point x="461.5" y="557"/>
      <point x="429.5" y="529"/>
      <point x="402" y="530.5" type="curve" smooth="yes"/>
      <point x="373.5" y="532"/>
      <point x="353.5" y="558"/>
    </contour>
    <contour>
      <point x="162.5" y="586" type="curve" smooth="yes"/>
      <point x="165.5" y="613"/>
      <point x="197" y="641"/>
      <point x="224.5" y="639.5" type="curve" smooth="yes"/>
      <point x="253" y="638"/>
      <point x="273" y="612"/>
      <point x="270" y="584" type="curve" smooth="yes"/>
      <point x="267" y="557"/>
      <point x="235.5" y="529"/>
      <point x="208" y="530.5" type="curve" smooth="yes"/>
      <point x="179.5" y="532"/>
      <point x="159.5" y="558"/>
    </contour>
  </outline>
</glyph>
<glyph name="aring" format="1">
  <advance width="470"/>
  <unicode hex="00E5"/>
  <outline>
    <contour>
      <point x="103.5" y="135" type="curve" smooth="yes"/>
      <point x="95.5" y="86.5"/>
      <point x="128.5" y="62.5"/>
      <point x="182.5" y="61.5" type="curve" smooth="yes"/>
      <point x="263.5" y="60"/>
      <point x="319.5" y="103.5"/>
      <point x="338.5" y="179.5" type="curve"/>
      <point x="346" y="129" type="line"/>
      <point x="325.5" y="44.5"/>
      <point x="251" y="-10"/>
      <point x="156.5" y="-9.5" type="curve" smooth="yes"/>
      <point x="69.5" y="-9"/>
      <point x="10.5" y="43.5"/>
      <point x="22.5" y="125.5" type="curve" smooth="yes"/>
      <point x="37" y="228.5"/>
      <point x="133" y="286"/>
      <point x="238.5" y="285.5" type="curve" smooth="yes"/>
      <point x="309.5" y="285.5"/>
      <point x="355" y="253.5"/>
      <point x="379" y="224.5" type="curve"/>
      <point x="371.5" y="178.5" type="line"/>
      <point x="331" y="209"/>
      <point x="289.5" y="225"/>
      <point x="237" y="224.5" type="curve" smooth="yes"/>
      <point x="167.5" y="224"/>
      <point x="113.5" y="193"/>
    </contour>
    <contour>
      <point x="142" y="352" type="curve"/>
      <point x="113" y="414.5" type="line"/>
      <point x="158" y="442"/>
      <point x="217.5" y="470"/>
      <point x="291" y="469.5" type="curve" smooth="yes"/>
      <point x="385.5" y="469"/>
      <point x="453.5" y="419"/>
      <point x="442" y="330" type="curve"/>
      <point x="385.5" y="0" type="line"/>
      <point x="306" y="0" type="line"/>
      <point x="364.5" y="330" type="line"/>
      <point x="365" y="375"/>
      <point x="332.5" y="398"/>
      <point x="284" y="399" type="curve" smooth="yes"/>
      <point x="225" y="400"/>
      <point x="175.5" y="371.5"/>
    </contour>
    <contour>
      <point x="221.5" y="631" type="curve" smooth="yes"/>
      <point x="229" y="686"/>
      <point x="283" y="730"/>
      <point x="336" y="729.5" type="curve" smooth="yes"/>
      <point x="389" y="729"/>
      <point x="428.5" y="683.5"/>
      <point x="421" y="629" type="curve" smooth="yes"/>
      <point x="413.5" y="574"/>
      <point x="359" y="530"/>
      <point x="306" y="530.5" type="curve" smooth="yes"/>
      <point x="253" y="531"/>
      <point x="214" y="576.5"/>
    </contour>
    <contour>
      <point x="271.5" y="629.5" type="curve" smooth="yes"/>
      <point x="268.5" y="603"/>
      <point x="286" y="579"/>
      <point x="310" y="577.5" type="curve" smooth="yes"/>
      <point x="334.5" y="575.5"/>
      <point x="368" y="603"/>
      <point x="371" y="630.5" type="curve" smooth="yes"/>
      <point x="374" y="657"/>
      <point x="356" y="681"/>
      <point x="332" y="682.5" type="curve" smooth="yes"/>
      <point x="307.5" y="684.5"/>
      <point x="274.5" y="657"/>
    </contour>
  </outline>
</glyph>
<glyph name="iacute" format="1">
  <advance width="252"/>
  <unicode hex="00ED"/>
  <outline>
    <contour>
      <point x="137" y="459.5" type="line"/>
      <point x="218" y="460" type="line"/>
      <point x="137.5" y="0" type="line"/>
      <point x="60.5" y="0" type="line"/>
    </contour>
    <contour>
      <point x="374.5" y="697.5" type="line"/>
      <point x="175.5" y="551" type="line"/>
      <point x="134" y="581.5" type="line"/>
      <point x="306" y="739.5" type="line"/>
    </contour>
  </outline>
</glyph>
<glyph name="idieresis" format="1">
  <advance width="252"/>
  <unicode hex="00EF"/>
  <outline>
    <contour>
      <point x="137" y="459.5" type="line"/>
      <point x="218" y="460" type="line"/>
      <point x="137.5" y="0" type="line"/>
      <point x="60.5" y="0" type="line"/>
    </contour>
    <contour>
      <point x="247" y="616" type="curve" smooth="yes"/>
      <point x="250" y="643"/>
      <point x="281.5" y="671"/>
      <point x="309" y="669.5" type="curve" smooth="yes"/>
      <point x="337.5" y="668"/>
      <point x="358" y="642"/>
      <point x="355" y="614" type="curve" smooth="yes"/>
      <point x="352" y="587"/>
      <point x="320.5" y="559"/>
      <point x="293" y="560.5" type="curve" smooth="yes"/>
      <point x="264.5" y="562"/>
      <point x="244" y="588"/>
    </contour>
    <contour>
      <point x="53" y="616" type="curve" smooth="yes"/>
      <point x="56" y="643"/>
      <point x="87.5" y="671"/>
      <point x="115" y="669.5" type="curve" smooth="yes"/>
      <point x="143.5" y="668"/>
      <point x="164" y="642"/>
      <point x="161" y="614" type="curve" smooth="yes"/>
      <point x="158" y="587"/>
      <point x="126.5" y="559"/>
      <point x="99" y="560.5" type="curve" smooth="yes"/>
      <point x="70.5" y="562"/>
      <point x="50" y="588"/>
    </contour>
  </outline>
</glyph>
<glyph name="eth" format="1">
  <advance width="576"/>
  <unicode hex="00F0"/>
  <outline>
    <contour>
      <point x="263" y="-10" type="curve" smooth="yes"/>
      <point x="134" y="-10"/>
      <point x="50" y="75"/>
      <point x="50" y="205" type="curve" smooth="yes"/>
      <point x="50" y="351"/>
      <point x="177" y="457"/>
      <point x="297" y="457" type="curve" smooth="yes"/>
      <point x="357" y="457"/>
      <point x="407" y="433"/>
      <point x="464" y="386" type="curve"/>
      <point x="423" y="386" type="line"/>
      <point x="384" y="489"/>
      <point x="327" y="571"/>
      <point x="213" y="669" type="curve"/>
      <point x="261" y="725" type="line"/>
      <point x="455" y="541"/>
      <point x="526" y="409"/>
      <point x="526" y="275" type="curve" smooth="yes"/>
      <point x="526" y="130"/>
      <point x="427" y="-10"/>
    </contour>
    <contour>
      <point x="263" y="67" type="curve" smooth="yes"/>
      <point x="370" y="67"/>
      <point x="442" y="161"/>
      <point x="442" y="255" type="curve" smooth="yes"/>
      <point x="442" y="345"/>
      <point x="388" y="395"/>
      <point x="313" y="395" type="curve" smooth="yes"/>
      <point x="223" y="395"/>
      <point x="131" y="310"/>
      <point x="131" y="205" type="curve" smooth="yes"/>
      <point x="131" y="121"/>
      <point x="186" y="67"/>
    </contour>
    <contour>
      <point x="224" y="503" type="line"/>
      <point x="206" y="550" type="line"/>
      <point x="486" y="657" type="line"/>
      <point x="504" y="610" type="line"/>
    </contour>
  </outline>
</glyph>
<glyph name="otilde" format="1">
  <advance width="529"/>
  <unicode hex="00F5"/>
  <outline>
    <contour>
      <point x="45" y="230" type="curve" smooth="yes"/>
      <point x="65" y="362"/>
      <point x="179.5" y="469.5"/>
      <point x="315" y="469.5" type="curve" smooth="yes"/>
      <point x="449" y="469.5"/>
      <point x="527.5" y="357.5"/>
      <point x="509" y="230" type="curve" smooth="yes"/>
      <point x="489" y="98"/>
      <point x="374.5" y="-9.5"/>
      <point x="239" y="-9.5" type="curve" smooth="yes"/>
      <point x="105" y="-9.5"/>
      <point x="26.5" y="102.5"/>
    </contour>
    <contour>
      <point x="125" y="230" type="curve" smooth="yes"/>
      <point x="111.5" y="145.5"/>
      <point x="155.5" y="66"/>
      <point x="246" y="65.5" type="curve" smooth="yes"/>
      <point x="337.5" y="65"/>
      <point x="414" y="140.5"/>
      <point x="429" y="230" type="curve" smooth="yes"/>
      <point x="442.5" y="314.5"/>
      <point x="398.5" y="394"/>
      <point x="308" y="394.5" type="curve" smooth="yes"/>
      <point x="216.5" y="395"/>
      <point x="140" y="319.5"/>
    </contour>
    <contour>
      <point x="173.5" y="568.5" type="line"/>
      <point x="174" y="613"/>
      <point x="250" y="649"/>
      <point x="286.5" y="648.5" type="curve" smooth="yes"/>
      <point x="338.5" y="647.5"/>
      <point x="352" y="601"/>
      <point x="399" y="602.5" type="curve" smooth="yes"/>
      <point x="422.5" y="603.5"/>
      <point x="443" y="625"/>
      <point x="462.5" y="649.5" type="curve"/>
      <point x="502.5" y="605.5" type="line"/>
      <point x="479.5" y="571.5"/>
      <point x="438" y="532.5"/>
      <point x="389" y="534.5" type="curve" smooth="yes"/>
      <point x="342.5" y="536"/>
      <point x="321.5" y="581.5"/>
      <point x="279.5" y="580.5" type="curve" smooth="yes"/>
      <point x="244" y="579.5"/>
      <point x="229.5" y="548.5"/>
      <point x="221" y="530.5" type="curve"/>
    </contour>
  </outline>
</glyph>
<glyph name="ydieresis" format="1">
  <advance width="426"/>
  <unicode hex="00FF"/>
  <outline>
    <contour>
      <point x="481" y="459.5" type="line"/>
      <point x="72.5" y="-219.5" type="line"/>
      <point x="-18.5" y="-219.5" type="line"/>
      <point x="155.5" y="67.5" type="line"/>
      <point x="52" y="460" type="line"/>
      <point x="143.5" y="460" type="line"/>
      <point x="224" y="100" type="line"/>
      <point x="191.5" y="104.5" type="line"/>
      <point x="390" y="459.5" type="line"/>
    </contour>
    <contour>
      <point x="329.5" y="586" type="curve" smooth="yes"/>
      <point x="332.5" y="613"/>
      <point x="364" y="641"/>
      <point x="391.5" y="639.5" type="curve" smooth="yes"/>
      <point x="420" y="638"/>
      <point x="440" y="612"/>
      <point x="437" y="584" type="curve" smooth="yes"/>
      <point x="434" y="557"/>
      <point x="402.5" y="529"/>
      <point x="375" y="530.5" type="curve" smooth="yes"/>
      <point x="346.5" y="532"/>
      <point x="326.5" y="558"/>
    </contour>
    <contour>
      <point x="135.5" y="586" type="curve" smooth="yes"/>
      <point x="138.5" y="613"/>
      <point x="170" y="641"/>
      <point x="197.5" y="639.5" type="curve" smooth="yes"/>
      <point x="226" y="638"/>
      <point x="246" y="612"/>
      <point x="243" y="584" type="curve" smooth="yes"/>
      <point x="240" y="557"/>
      <point x="208.5" y="529"/>
      <point x="181" y="530.5" type="curve" smooth="yes"/>
      <point x="152.5" y="532"/>
      <point x="132.5" y="558"/>
    </contour>
  </outline>
</glyph>
<glyph name="Ccircumflex" format="1">
  <advance width="664"/>
  <unicode hex="0108"/>
  <outline>
    <contour>
      <point x="159.5" y="350" type="curve" smooth="yes"/>
      <point x="138" y="208"/>
      <point x="217" y="77"/>
      <point x="361" y="75.5" type="curve" smooth="yes"/>
      <point x="457.5" y="74.5"/>
      <point x="539" y="120"/>
      <point x="600" y="178" type="curve"/>
      <point x="582.5" y="66.5" type="line"/>
      <point x="517.5" y="17.5"/>
      <point x="446.5" y="-10.5"/>
      <point x="352.5" y="-10" type="curve" smooth="yes"/>
      <point x="157" y="-9"/>
      <point x="43" y="161.5"/>
      <point x="70.5" y="350" type="curve" smooth="yes"/>
      <point x="101" y="548"/>
      <point x="270.5" y="709"/>
      <point x="469.5" y="710" type="curve" smooth="yes"/>
      <point x="558.5" y="710.5"/>
      <point x="621.5" y="685.5"/>
      <point x="678" y="632.5" type="curve"/>
      <point x="660" y="521" type="line"/>
      <point x="617" y="586"/>
      <point x="549.5" y="624.5"/>
      <point x="461" y="624.5" type="curve" smooth="yes"/>
      <point x="315" y="624"/>
      <point x="184.5" y="501"/>
    </contour>
    <contour>
      <point x="501.5" y="864.5" type="line"/>
      <point x="378" y="770.5" type="line"/>
      <point x="333.5" y="811.5" type="line"/>
      <point x="511.5" y="950" type="line"/>
      <point x="645.5" y="809" type="line"/>
      <point x="592" y="770.5" type="line"/>
    </contour>
  </outline>
</glyph>
<glyph name="Cdotaccent" format="1">
  <advance width="664"/>
  <unicode hex="010A"/>
  <outline>
    <contour>
      <point x="159.5" y="350" type="curve" smooth="yes"/>
      <point x="138" y="208"/>
      <point x="217" y="77"/>
      <point x="361" y="75.5" type="curve" smooth="yes"/>
      <point x="457.5" y="74.5"/>
      <point x="539" y="120"/>
      <point x="600" y="178" type="curve"/>
      <point x="582.5" y="66.5" type="line"/>
      <point x="517.5" y="17.5"/>
      <point x="446.5" y="-10.5"/>
      <point x="352.5" y="-10" type="curve" smooth="yes"/>
      <point x="157" y="-9"/>
      <point x="43" y="161.5"/>
      <point x="70.5" y="350" type="curve" smooth="yes"/>
      <point x="101" y="548"/>
      <point x="270.5" y="709"/>
      <point x="469.5" y="710" type="curve" smooth="yes"/>
      <point x="558.5" y="710.5"/>
      <point x="621.5" y="685.5"/>
      <point x="678" y="632.5" type="curve"/>
      <point x="660" y="521" type="line"/>
      <point x="617" y="586"/>
      <point x="549.5" y="624.5"/>
      <point x="461" y="624.5" type="curve" smooth="yes"/>
      <point x="315" y="624"/>
      <point x="184.5" y="501"/>
    </contour>
    <contour>
      <point x="438.5" y="826" type="curve" smooth="yes"/>
      <point x="441.5" y="853"/>
      <point x="473" y="881"/>
      <point x="500.5" y="879.5" type="curve" smooth="yes"/>
      <point x="529" y="878"/>
      <point x="549" y="852"/>
      <point x="546" y="824" type="curve" smooth="yes"/>
      <point x="543" y="797"/>
      <point x="511.5" y="769"/>
      <point x="484" y="770.5" type="curve" smooth="yes"/>
      <point x="455.5" y="772"/>
      <point x="435.5" y="798"/>
    </contour>
  </outline>
</glyph>
<glyph name="cdotaccent" format="1">
  <advance width="463"/>
  <unicode hex="010B"/>
  <outline>
    <contour>
      <point x="120" y="230" type="curve" smooth="yes"/>
      <point x="106.5" y="145"/>
      <point x="151.5" y="67"/>
      <point x="241.5" y="65.5" type="curve" smooth="yes"/>
      <point x="313.5" y="64.5"/>
      <point x="377.5" y="103.5"/>
      <point x="413.5" y="148" type="curve"/>
      <point x="398" y="48.5" type="line"/>
      <point x="357" y="12.5"/>
      <point x="296.5" y="-9.5"/>
      <point x="234" y="-9.5" type="curve" smooth="yes"/>
      <point x="100" y="-9"/>
      <point x="22" y="102.5"/>
      <point x="40.5" y="230" type="curve" smooth="yes"/>
      <point x="60.5" y="363"/>
      <point x="174.5" y="469"/>
      <point x="310.5" y="469.5" type="curve" smooth="yes"/>
      <point x="369.5" y="469.5"/>
      <point x="424" y="449"/>
      <point x="458.5" y="410.5" type="curve"/>
      <point x="442.5" y="311" type="line"/>
      <point x="422.5" y="361"/>
      <point x="370" y="395"/>
      <point x="303.5" y="394.5" type="curve" smooth="yes"/>
      <point x="212" y="394"/>
      <point x="135.5" y="320"/>
    </contour>
    <contour>
      <point x="279" y="586" type="curve" smooth="yes"/>
      <point x="282" y="613"/>
      <point x="313.5" y="641"/>
      <point x="341" y="639.5" type="curve" smooth="yes"/>
      <point x="369.5" y="638"/>
      <point x="389.5" y="612"/>
      <point x="386.5" y="584" type="curve" smooth="yes"/>
      <point x="383.5" y="557"/>
      <point x="352" y="529"/>
      <point x="324.5" y="530.5" type="curve" smooth="yes"/>
      <point x="296" y="532"/>
      <point x="276" y="558"/>
    </contour>
  </outline>
</glyph>
<glyph name="Dcaron" format="1">
  <advance width="659"/>
  <unicode hex="010E"/>
  <outline>
    <contour>
      <point x="168.5" y="699.5" type="line"/>
      <point x="254" y="700" type="line"/>
      <point x="133" y="0" type="line"/>
      <point x="51" y="0" type="line"/>
    </contour>
    <contour>
      <point x="257.5" y="0" type="curve"/>
      <point x="95" y="0" type="line"/>
      <point x="110" y="85" type="line"/>
      <point x="266" y="85" type="line"/>
      <point x="423.5" y="88"/>
      <point x="544.5" y="195.5"/>
      <point x="570.5" y="350" type="curve" smooth="yes"/>
      <point x="594" y="497"/>
      <point x="516.5" y="611.5"/>
      <point x="362" y="615" type="curve"/>
      <point x="200" y="615" type="line"/>
      <point x="215" y="700" type="line"/>
      <point x="370.5" y="700" type="line"/>
      <point x="570.5" y="696.5"/>
      <point x="683" y="542"/>
      <point x="654.5" y="350" type="curve" smooth="yes"/>
      <point x="623.5" y="150"/>
      <point x="461.5" y="3"/>
    </contour>
    <contour>
      <point x="436.5" y="855.5" type="line"/>
      <point x="560" y="949.5" type="line"/>
      <point x="604.5" y="908.5" type="line"/>
      <point x="426.5" y="770" type="line"/>
      <point x="292.5" y="911" type="line"/>
      <point x="346" y="949.5" type="line"/>
    </contour>
  </outline>
</glyph>
<glyph name="Dcroat" format="1">
  <advance width="659"/>
  <unicode hex="0110"/>
  <outline>
    <contour>
      <point x="31" y="310.5" type="line"/>
      <point x="43.5" y="385" type="line"/>
      <point x="336" y="385" type="line"/>
      <point x="323.5" y="310" type="line"/>
    </contour>
    <contour>
      <point x="168.5" y="699.5" type="line"/>
      <point x="254" y="700" type="line"/>
      <point x="133" y="0" type="line"/>
      <point x="51" y="0" type="line"/>
    </contour>
    <contour>
      <point x="257.5" y="0" type="curve"/>
      <point x="95" y="0" type="line"/>
      <point x="110" y="85" type="line"/>
      <point x="266" y="85" type="line"/>
      <point x="423.5" y="88"/>
      <point x="544.5" y="195.5"/>
      <point x="570.5" y="350" type="curve" smooth="yes"/>
      <point x="594" y="497"/>
      <point x="516.5" y="611.5"/>
      <point x="362" y="615" type="curve"/>
      <point x="200" y="615" type="line"/>
      <point x="215" y="700" type="line"/>
      <point x="370.5" y="700" type="line"/>
      <point x="570.5" y="696.5"/>
      <point x="683" y="542"/>
      <point x="654.5" y="350" type="curve" smooth="yes"/>
      <point x="623.5" y="150"/>
      <point x="461.5" y="3"/>
    </contour>
  </outline>
</glyph>
<glyph name="ebreve" format="1">
  <advance width="499"/>
  <unicode hex="0115"/>
  <outline>
    <contour>
      <point x="92" y="210.5" type="line"/>
      <point x="103" y="277.5" type="line"/>
      <point x="400.5" y="278" type="line"/>
      <point x="401.5" y="344.5"/>
      <point x="376" y="398.5"/>
      <point x="299" y="399.5" type="curve" smooth="yes"/>
      <point x="216" y="400.5"/>
      <point x="149.5" y="339"/>
      <point x="132.5" y="260" type="curve"/>
      <point x="125" y="230" type="line"/>
      <point x="112" y="141"/>
      <point x="145" y="67"/>
      <point x="236.5" y="65.5" type="curve" smooth="yes"/>
      <point x="302" y="64.5"/>
      <point x="352.5" y="102.5"/>
      <point x="391" y="147.5" type="curve"/>
      <point x="450" y="105.5" type="line"/>
      <point x="393.5" y="39"/>
      <point x="326.5" y="-10.5"/>
      <point x="219.5" y="-9.5" type="curve" smooth="yes"/>
      <point x="91" y="-8"/>
      <point x="28.5" y="106.5"/>
      <point x="45" y="230" type="curve" smooth="yes"/>
      <point x="47.5" y="247"/>
      <point x="51.5" y="263"/>
      <point x="57" y="279" type="curve" smooth="yes"/>
      <point x="91.5" y="386"/>
      <point x="187" y="470"/>
      <point x="305.5" y="469.5" type="curve" smooth="yes"/>
      <point x="438.5" y="469"/>
      <point x="495" y="361.5"/>
      <point x="479.5" y="234" type="curve" smooth="yes"/>
      <point x="478.5" y="226"/>
      <point x="477.5" y="218.5"/>
      <point x="475.5" y="210.5" type="curve"/>
    </contour>
    <contour>
      <point x="188.5" y="670" type="curve"/>
      <point x="257.5" y="669.5" type="line"/>
      <point x="256" y="636.5"/>
      <point x="268.5" y="596"/>
      <point x="327" y="595.5" type="curve" smooth="yes"/>
      <point x="387.5" y="595"/>
      <point x="412" y="637.5"/>
      <point x="425.5" y="669.5" type="curve"/>
      <point x="496.5" y="669" type="line"/>
      <point x="477.5" y="597"/>
      <point x="418" y="530.5"/>
      <point x="321" y="530.5" type="curve" smooth="yes"/>
      <point x="225" y="530.5"/>
      <point x="183" y="596.5"/>
    </contour>
  </outline>
</glyph>
<glyph name="Edotaccent" format="1">
  <advance width="533"/>
  <unicode hex="0116"/>
  <outline>
    <contour>
      <point x="96.5" y="0" type="line"/>
      <point x="109.5" y="80" type="line"/>
      <point x="454" y="80" type="line"/>
      <point x="440.5" y="0" type="line"/>
    </contour>
    <contour>
      <point x="202.5" y="620.5" type="line"/>
      <point x="215.5" y="700" type="line"/>
      <point x="559.5" y="700" type="line"/>
      <point x="546" y="620" type="line"/>
    </contour>
    <contour>
      <point x="154.5" y="340.5" type="line"/>
      <point x="168" y="420" type="line"/>
      <point x="492.5" y="420" type="line"/>
      <point x="479" y="340" type="line"/>
    </contour>
    <contour>
      <point x="168.5" y="699.5" type="line"/>
      <point x="254" y="700" type="line"/>
      <point x="133" y="0" type="line"/>
      <point x="51" y="0" type="line"/>
    </contour>
    <contour>
      <point x="331.5" y="826" type="curve" smooth="yes"/>
      <point x="334.5" y="853"/>
      <point x="366" y="881"/>
      <point x="393.5" y="879.5" type="curve" smooth="yes"/>
      <point x="422" y="878"/>
      <point x="442.5" y="852"/>
      <point x="439.5" y="824" type="curve" smooth="yes"/>
      <point x="436.5" y="797"/>
      <point x="404.5" y="769"/>
      <point x="377" y="770.5" type="curve" smooth="yes"/>
      <point x="348.5" y="772"/>
      <point x="328.5" y="798"/>
    </contour>
  </outline>
</glyph>
<glyph name="edotaccent" format="1">
  <advance width="499"/>
  <unicode hex="0117"/>
  <outline>
    <contour>
      <point x="92" y="210.5" type="line"/>
      <point x="103" y="277.5" type="line"/>
      <point x="400.5" y="278" type="line"/>
      <point x="401.5" y="344.5"/>
      <point x="376" y="398.5"/>
      <point x="299" y="399.5" type="curve" smooth="yes"/>
      <point x="216" y="400.5"/>
      <point x="149.5" y="339"/>
      <point x="132.5" y="260" type="curve"/>
      <point x="125" y="230" type="line"/>
      <point x="112" y="141"/>
      <point x="145" y="67"/>
      <point x="236.5" y="65.5" type="curve" smooth="yes"/>
      <point x="302" y="64.5"/>
      <point x="352.5" y="102.5"/>
      <point x="391" y="147.5" type="curve"/>
      <point x="450" y="105.5" type="line"/>
      <point x="393.5" y="39"/>
      <point x="326.5" y="-10.5"/>
      <point x="219.5" y="-9.5" type="curve" smooth="yes"/>
      <point x="91" y="-8"/>
      <point x="28.5" y="106.5"/>
      <point x="45" y="230" type="curve" smooth="yes"/>
      <point x="47.5" y="247"/>
      <point x="51.5" y="263"/>
      <point x="57" y="279" type="curve" smooth="yes"/>
      <point x="91.5" y="386"/>
      <point x="187" y="470"/>
      <point x="305.5" y="469.5" type="curve" smooth="yes"/>
      <point x="438.5" y="469"/>
      <point x="495" y="361.5"/>
      <point x="479.5" y="234" type="curve" smooth="yes"/>
      <point x="478.5" y="226"/>
      <point x="477.5" y="218.5"/>
      <point x="475.5" y="210.5" type="curve"/>
    </contour>
    <contour>
      <point x="274" y="586" type="curve" smooth="yes"/>
      <point x="277" y="613"/>
      <point x="308.5" y="641"/>
      <point x="336" y="639.5" type="curve" smooth="yes"/>
      <point x="364.5" y="638"/>
      <point x="385" y="612"/>
      <point x="382" y="584" type="curve" smooth="yes"/>
      <point x="379" y="557"/>
      <point x="347" y="529"/>
      <point x="319.5" y="530.5" type="curve" smooth="yes"/>
      <point x="291" y="532"/>
      <point x="271" y="558"/>
    </contour>
  </outline>
</glyph>
<glyph name="Ecaron" format="1">
  <advance width="533"/>
  <unicode hex="011A"/>
  <outline>
    <contour>
      <point x="96.5" y="0" type="line"/>
      <point x="109.5" y="80" type="line"/>
      <point x="454" y="80" type="line"/>
      <point x="440.5" y="0" type="line"/>
    </contour>
    <contour>
      <point x="202.5" y="620.5" type="line"/>
      <point x="215.5" y="700" type="line"/>
      <point x="559.5" y="700" type="line"/>
      <point x="546" y="620" type="line"/>
    </contour>
    <contour>
      <point x="154.5" y="340.5" type="line"/>
      <point x="168" y="420" type="line"/>
      <point x="492.5" y="420" type="line"/>
      <point x="479" y="340" type="line"/>
    </contour>
    <contour>
      <point x="168.5" y="699.5" type="line"/>
      <point x="254" y="700" type="line"/>
      <point x="133" y="0" type="line"/>
      <point x="51" y="0" type="line"/>
    </contour>
    <contour>
      <point x="388" y="855.5" type="line"/>
      <point x="511.5" y="949.5" type="line"/>
      <point x="556" y="908.5" type="line"/>
      <point x="378" y="770" type="line"/>
      <point x="244" y="911" type="line"/>
      <point x="297.5" y="949.5" type="line"/>
    </contour>
  </outline>
</glyph>
<glyph name="Gcircumflex" format="1">
  <advance width="752"/>
  <unicode hex="011C"/>
  <outline>
    <contour>
      <point x="411.5" y="275" type="line"/>
      <point x="426" y="355" type="line"/>
      <point x="741.5" y="354.5" type="line"/>
      <point x="708" y="166"/>
      <point x="569.5" y="-10"/>
      <point x="357.5" y="-10" type="curve" smooth="yes"/>
      <point x="155.5" y="-10"/>
      <point x="42.5" y="160"/>
      <point x="70.5" y="350" type="curve" smooth="yes"/>
      <point x="101.5" y="549.5"/>
      <point x="269" y="709.5"/>
      <point x="474.5" y="710" type="curve" smooth="yes"/>
      <point x="593" y="710.5"/>
      <point x="685" y="658.5"/>
      <point x="735" y="560" type="curve"/>
      <point x="668.5" y="506.5" type="line"/>
      <point x="632.5" y="583"/>
      <point x="561.5" y="625"/>
      <point x="466" y="624.5" type="curve" smooth="yes"/>
      <point x="313.5" y="624"/>
      <point x="185" y="502.5"/>
      <point x="159.5" y="350" type="curve" smooth="yes"/>
      <point x="137.5" y="206.5"/>
      <point x="215.5" y="76"/>
      <point x="366" y="75.5" type="curve" smooth="yes"/>
      <point x="502" y="75"/>
      <point x="593" y="169.5"/>
      <point x="639.5" y="275" type="curve"/>
    </contour>
    <contour>
      <point x="506.5" y="864.5" type="line"/>
      <point x="382.5" y="770.5" type="line"/>
      <point x="338.5" y="811.5" type="line"/>
      <point x="516.5" y="950" type="line"/>
      <point x="650.5" y="809" type="line"/>
      <point x="597" y="770.5" type="line"/>
    </contour>
  </outline>
</glyph>
<glyph name="uni0123" format="1">
  <advance width="553"/>
  <unicode hex="0123"/>
  <outline>
    <contour>
      <point x="9" y="-30" type="curve"/>
      <point x="88" y="-30.5" type="line"/>
      <point x="83" y="-97.5"/>
      <point x="122.5" y="-153.5"/>
      <point x="206" y="-154.5" type="curve" smooth="yes"/>
      <point x="288" y="-155.5"/>
      <point x="364.5" y="-88"/>
      <point x="380.5" y="10" type="curve"/>
      <point x="458" y="460" type="line"/>
      <point x="538.5" y="460" type="line"/>
      <point x="462" y="10" type="line" smooth="yes"/>
      <point x="439.5" y="-131"/>
      <point x="329" y="-229"/>
      <point x="202" y="-229.5" type="curve" smooth="yes"/>
      <point x="73.5" y="-230"/>
      <point x="-1.5" y="-146.5"/>
    </contour>
    <contour>
      <point x="44.5" y="230" type="curve" smooth="yes"/>
      <point x="63.5" y="365.5"/>
      <point x="174" y="471"/>
      <point x="304" y="470" type="curve" smooth="yes"/>
      <point x="427.5" y="469"/>
      <point x="471.5" y="354.5"/>
      <point x="456" y="230" type="curve" smooth="yes"/>
      <point x="438.5" y="99"/>
      <point x="353.5" y="-9"/>
      <point x="231" y="-9.5" type="curve" smooth="yes"/>
      <point x="101.5" y="-10.5"/>
      <point x="27" y="99.5"/>
    </contour>
    <contour>
      <point x="125.5" y="230" type="curve" smooth="yes"/>
      <point x="112" y="141"/>
      <point x="156" y="65.5"/>
      <point x="244.5" y="65.5" type="curve" smooth="yes"/>
      <point x="324.5" y="65.5"/>
      <point x="404" y="137.5"/>
      <point x="419" y="230" type="curve" smooth="yes"/>
      <point x="431.5" y="316"/>
      <point x="388" y="392.5"/>
      <point x="309.5" y="394.5" type="curve" smooth="yes"/>
      <point x="220" y="397"/>
      <point x="141" y="324"/>
    </contour>
    <contour>
      <point x="343.542" y="546.459" type="line"/>
      <point x="273.331" y="591.443" type="line"/>
      <point x="453.934" y="816.976" type="line"/>
      <point x="505.47" y="786.133" type="line"/>
    </contour>
  </outline>
</glyph>
<glyph name="hcircumflex" format="1">
  <advance width="509"/>
  <unicode hex="0125"/>
  <outline>
    <contour>
      <point x="258" y="780" type="line"/>
      <point x="123.5" y="0" type="line"/>
      <point x="44.5" y="0" type="line"/>
      <point x="178.5" y="780" type="line"/>
    </contour>
    <contour>
      <point x="380" y="280" type="line" smooth="yes"/>
      <point x="387.5" y="342.5"/>
      <point x="372.5" y="393"/>
      <point x="307" y="394.5" type="curve" smooth="yes"/>
      <point x="236.5" y="396"/>
      <point x="187.5" y="341.5"/>
      <point x="171.5" y="281" type="curve"/>
      <point x="135.5" y="281" type="line"/>
      <point x="155.5" y="380"/>
      <point x="232" y="469.5"/>
      <point x="333.5" y="469.5" type="curve" smooth="yes"/>
      <point x="433.5" y="469.5"/>
      <point x="471.5" y="390.5"/>
      <point x="459.5" y="290" type="curve"/>
      <point x="409.5" y="0" type="line"/>
      <point x="332" y="0" type="line"/>
    </contour>
    <contour>
      <point x="253.5" y="934.5" type="line"/>
      <point x="129.5" y="840.5" type="line"/>
      <point x="85.5" y="881.5" type="line"/>
      <point x="263.5" y="1020" type="line"/>
      <point x="397.5" y="879" type="line"/>
      <point x="344" y="840.5" type="line"/>
    </contour>
  </outline>
</glyph>
<glyph name="hbar" format="1">
  <advance width="509"/>
  <unicode hex="0127"/>
  <outline>
    <contour>
      <point x="258.5" y="780" type="line"/>
      <point x="124" y="0" type="line"/>
      <point x="43.5" y="0" type="line"/>
      <point x="178" y="780" type="line"/>
    </contour>
    <contour>
      <point x="380" y="280" type="line" smooth="yes"/>
      <point x="387.5" y="342"/>
      <point x="374" y="392.5"/>
      <point x="308.5" y="394" type="curve" smooth="yes"/>
      <point x="238" y="396"/>
      <point x="188.5" y="341.5"/>
      <point x="172.5" y="281" type="curve"/>
      <point x="145" y="281.5" type="line"/>
      <point x="163.5" y="380"/>
      <point x="232" y="469"/>
      <point x="332.5" y="469.5" type="curve" smooth="yes"/>
      <point x="432.5" y="470"/>
      <point x="472" y="391"/>
      <point x="460" y="290" type="curve"/>
      <point x="409.5" y="0" type="line"/>
      <point x="332.5" y="0" type="line"/>
    </contour>
    <contour>
      <point x="85" y="625.5" type="line"/>
      <point x="97" y="700" type="line"/>
      <point x="402" y="700" type="line"/>
      <point x="390" y="625.5" type="line"/>
    </contour>
  </outline>
</glyph>
<glyph name="Itilde" format="1">
  <advance width="237"/>
  <unicode hex="0128"/>
  <outline>
    <contour>
      <point x="168.5" y="699.5" type="line"/>
      <point x="254" y="700" type="line"/>
      <point x="133" y="0" type="line"/>
      <point x="51" y="0" type="line"/>
    </contour>
    <contour>
      <point x="69" y="808.5" type="line"/>
      <point x="88.5" y="851"/>
      <point x="133.5" y="890"/>
      <point x="182" y="888.5" type="curve" smooth="yes"/>
      <point x="234" y="887.5"/>
      <point x="248" y="841"/>
      <point x="294.5" y="842.5" type="curve" smooth="yes"/>
      <point x="318" y="843.5"/>
      <point x="338.5" y="865"/>
      <point x="358" y="889.5" type="curve"/>
      <point x="397.5" y="845.5" type="line"/>
      <point x="374.5" y="811.5"/>
      <point x="333.5" y="772.5"/>
      <point x="284.5" y="774.5" type="curve" smooth="yes"/>
      <point x="238" y="776"/>
      <point x="217" y="821.5"/>
      <point x="175" y="820.5" type="curve" smooth="yes"/>
      <point x="139.5" y="819.5"/>
      <point x="125" y="788.5"/>
      <point x="116.5" y="770.5" type="curve"/>
    </contour>
  </outline>
</glyph>
<glyph name="itilde" format="1">
  <advance width="252"/>
  <unicode hex="0129"/>
  <outline>
    <contour>
      <point x="137" y="459.5" type="line"/>
      <point x="218" y="460" type="line"/>
      <point x="137.5" y="0" type="line"/>
      <point x="60.5" y="0" type="line"/>
    </contour>
    <contour>
      <point x="35" y="568.5" type="line"/>
      <point x="54.5" y="611"/>
      <point x="99.5" y="650"/>
      <point x="148" y="648.5" type="curve" smooth="yes"/>
      <point x="200" y="647.5"/>
      <point x="214" y="601"/>
      <point x="260.5" y="602.5" type="curve" smooth="yes"/>
      <point x="284" y="603.5"/>
      <point x="304.5" y="625"/>
      <point x="324" y="649.5" type="curve"/>
      <point x="363.5" y="605.5" type="line"/>
      <point x="340.5" y="571.5"/>
      <point x="299" y="532.5"/>
      <point x="250" y="534.5" type="curve" smooth="yes"/>
      <point x="203.5" y="536"/>
      <point x="183" y="581.5"/>
      <point x="141" y="580.5" type="curve" smooth="yes"/>
      <point x="105.5" y="579.5"/>
      <point x="91" y="548.5"/>
      <point x="82.5" y="530.5" type="curve"/>
    </contour>
  </outline>
</glyph>
<glyph name="imacron" format="1">
  <advance width="252"/>
  <unicode hex="012B"/>
  <outline>
    <contour>
      <point x="137" y="459.5" type="line"/>
      <point x="218" y="460" type="line"/>
      <point x="137.5" y="0" type="line"/>
      <point x="60.5" y="0" type="line"/>
    </contour>
    <contour>
      <point x="20" y="530.5" type="line"/>
      <point x="32.5" y="605" type="line"/>
      <point x="373.5" y="605" type="line"/>
      <point x="361" y="530" type="line"/>
    </contour>
  </outline>
</glyph>
<glyph name="Ibreve" format="1">
  <advance width="237"/>
  <unicode hex="012C"/>
  <outline>
    <contour>
      <point x="168.5" y="699.5" type="line"/>
      <point x="254" y="700" type="line"/>
      <point x="133" y="0" type="line"/>
      <point x="51" y="0" type="line"/>
    </contour>
    <contour>
      <point x="93.5" y="910" type="curve"/>
      <point x="162.5" y="909.5" type="line"/>
      <point x="161" y="876.5"/>
      <point x="173.5" y="836"/>
      <point x="232" y="835.5" type="curve" smooth="yes"/>
      <point x="292.5" y="835"/>
      <point x="317.5" y="877.5"/>
      <point x="331" y="909.5" type="curve"/>
      <point x="401.5" y="909" type="line"/>
      <point x="382.5" y="837"/>
      <point x="323.5" y="770.5"/>
      <point x="226.5" y="770.5" type="curve" smooth="yes"/>
      <point x="130.5" y="770.5"/>
      <point x="88" y="836.5"/>
    </contour>
  </outline>
</glyph>
<glyph name="iogonek" format="1">
  <advance width="252"/>
  <unicode hex="012F"/>
  <outline>
    <contour>
      <point x="156" y="651" type="curve" smooth="yes"/>
      <point x="159" y="678"/>
      <point x="190.5" y="706"/>
      <point x="218" y="704.5" type="curve" smooth="yes"/>
      <point x="246.5" y="703"/>
      <point x="267" y="677"/>
      <point x="264" y="649" type="curve" smooth="yes"/>
      <point x="261" y="622"/>
      <point x="229.5" y="594"/>
      <point x="202" y="595.5" type="curve" smooth="yes"/>
      <point x="173.5" y="597"/>
      <point x="153" y="623"/>
    </contour>
    <contour>
      <point x="137" y="459.5" type="line"/>
      <point x="218" y="460" type="line"/>
      <point x="137.5" y="0" type="line"/>
      <point x="60.5" y="0" type="line"/>
    </contour>
    <contour>
      <point x="119.5" y="-130" type="curve"/>
      <point x="144.5" y="-181.5" type="line"/>
      <point x="122.5" y="-201"/>
      <point x="93" y="-219"/>
      <point x="54" y="-219.5" type="curve" smooth="yes"/>
      <point x="-18" y="-220.5"/>
      <point x="-60.5" y="-180"/>
      <point x="-51.5" y="-119.5" type="curve" smooth="yes"/>
      <point x="-40.5" y="-53.5"/>
      <point x="34" y="-8.5"/>
      <point x="100.5" y="24.5" type="curve"/>
      <point x="138.5" y="0" type="line"/>
      <point x="92" y="-22.5"/>
      <point x="37.5" y="-56"/>
      <point x="30.5" y="-100" type="curve" smooth="yes"/>
      <point x="27.5" y="-129"/>
      <point x="39.5" y="-147.5"/>
      <point x="67" y="-149.5" type="curve" smooth="yes"/>
      <point x="89" y="-151"/>
      <point x="105" y="-140.5"/>
    </contour>
  </outline>
</glyph>
<glyph name="uni0136" format="1">
  <advance width="548"/>
  <unicode hex="0136"/>
  <outline>
    <contour>
      <point x="168.5" y="699.5" type="line"/>
      <point x="254" y="700" type="line"/>
      <point x="133" y="0" type="line"/>
      <point x="51" y="0" type="line"/>
    </contour>
    <contour>
      <point x="517" y="699.5" type="line"/>
      <point x="624" y="699.5" type="line"/>
      <point x="270.5" y="370" type="line"/>
      <point x="515" y="0" type="line"/>
      <point x="416" y="0" type="line"/>
      <point x="171" y="372.5" type="line"/>
    </contour>
    <contour>
      <point x="275" y="-61" type="line"/>
      <point x="351.5" y="-92" type="line"/>
      <point x="201.5" y="-339" type="line"/>
      <point x="146.5" y="-318" type="line"/>
    </contour>
  </outline>
</glyph>
<glyph name="kgreenlandic" format="1">
  <advance width="426"/>
  <unicode hex="0138"/>
  <outline>
    <contour>
      <point x="118" y="459.5" type="line"/>
      <point x="198.5" y="460" type="line"/>
      <point x="118.5" y="0" type="line"/>
      <point x="41" y="0" type="line"/>
    </contour>
    <contour>
      <point x="359.5" y="459.5" type="line"/>
      <point x="462" y="459.5" type="line"/>
      <point x="232" y="268" type="line"/>
      <point x="398.5" y="0" type="line"/>
      <point x="304" y="0" type="line"/>
      <point x="135.5" y="272.5" type="line"/>
    </contour>
  </outline>
</glyph>
<glyph name="Lacute" format="1">
  <advance width="436"/>
  <unicode hex="0139"/>
  <outline>
    <contour>
      <point x="169.5" y="700" type="line"/>
      <point x="254" y="700" type="line"/>
      <point x="147.5" y="80" type="line"/>
      <point x="414.5" y="80" type="line"/>
      <point x="400.5" y="0" type="line"/>
      <point x="49.5" y="0" type="line"/>
    </contour>
    <contour>
      <point x="509" y="917.5" type="line"/>
      <point x="310" y="771" type="line"/>
      <point x="268.5" y="801.5" type="line"/>
      <point x="440.5" y="959.5" type="line"/>
    </contour>
  </outline>
</glyph>
<glyph name="uni013B" format="1">
  <advance width="436"/>
  <unicode hex="013B"/>
  <outline>
    <contour>
      <point x="169.5" y="700" type="line"/>
      <point x="254" y="700" type="line"/>
      <point x="147.5" y="80" type="line"/>
      <point x="414.5" y="80" type="line"/>
      <point x="400.5" y="0" type="line"/>
      <point x="49.5" y="0" type="line"/>
    </contour>
    <contour>
      <point x="217" y="-61" type="line"/>
      <point x="293" y="-92" type="line"/>
      <point x="143.5" y="-339" type="line"/>
      <point x="88" y="-318" type="line"/>
    </contour>
  </outline>
</glyph>
<glyph name="uni013C" format="1">
  <advance width="223"/>
  <unicode hex="013C"/>
  <outline>
    <contour>
      <point x="177.5" y="779.5" type="line"/>
      <point x="258" y="780" type="line"/>
      <point x="123" y="0" type="line"/>
      <point x="46" y="0" type="line"/>
    </contour>
    <contour>
      <point x="76" y="-61" type="line"/>
      <point x="152.5" y="-92" type="line"/>
      <point x="2.5" y="-339" type="line"/>
      <point x="-52.5" y="-318" type="line"/>
    </contour>
  </outline>
</glyph>
<glyph name="lcaron" format="1">
  <advance width="223"/>
  <unicode hex="013E"/>
  <outline>
    <contour>
      <point x="177.5" y="779.5" type="line"/>
      <point x="258" y="780" type="line"/>
      <point x="123" y="0" type="line"/>
      <point x="46" y="0" type="line"/>
    </contour>
    <contour>
      <point x="388.5" y="779" type="line"/>
      <point x="464.5" y="748" type="line"/>
      <point x="315" y="501" type="line"/>
      <point x="259.5" y="522" type="line"/>
    </contour>
  </outline>
</glyph>
<glyph name="Ldot" format="1">
  <advance width="436"/>
  <unicode hex="013F"/>
  <outline>
    <contour>
      <point x="169.5" y="700" type="line"/>
      <point x="254" y="700" type="line"/>
      <point x="147.5" y="80" type="line"/>
      <point x="414.5" y="80" type="line"/>
      <point x="400.5" y="0" type="line"/>
      <point x="49.5" y="0" type="line"/>
    </contour>
    <contour>
      <point x="290.5" y="416" type="curve" smooth="yes"/>
      <point x="293.5" y="443"/>
      <point x="325" y="471"/>
      <point x="352.5" y="469.5" type="curve" smooth="yes"/>
      <point x="381" y="468"/>
      <point x="401.5" y="442"/>
      <point x="398.5" y="414" type="curve" smooth="yes"/>
      <point x="395.5" y="387"/>
      <point x="364" y="359"/>
      <point x="336.5" y="360.5" type="curve" smooth="yes"/>
      <point x="308" y="362"/>
      <point x="287.5" y="388"/>
    </contour>
  </outline>
</glyph>
<glyph name="ldot" format="1">
  <advance width="359"/>
  <unicode hex="0140"/>
  <outline>
    <contour>
      <point x="177.5" y="779.5" type="line"/>
      <point x="258" y="780" type="line"/>
      <point x="123" y="0" type="line"/>
      <point x="46" y="0" type="line"/>
    </contour>
    <contour>
      <point x="252" y="416" type="curve" smooth="yes"/>
      <point x="255" y="443"/>
      <point x="286.5" y="471"/>
      <point x="314" y="469.5" type="curve" smooth="yes"/>
      <point x="342.5" y="468"/>
      <point x="362.5" y="442"/>
      <point x="359.5" y="414" type="curve" smooth="yes"/>
      <point x="356.5" y="387"/>
      <point x="325" y="359"/>
      <point x="297.5" y="360.5" type="curve" smooth="yes"/>
      <point x="269" y="362"/>
      <point x="249" y="388"/>
    </contour>
  </outline>
</glyph>
<glyph name="Lslash" format="1">
  <advance width="436"/>
  <unicode hex="0141"/>
  <outline>
    <contour>
      <point x="36.5" y="340.5" type="line"/>
      <point x="25.5" y="396" type="line"/>
      <point x="316" y="564.5" type="line"/>
      <point x="327.5" y="509" type="line"/>
    </contour>
    <contour>
      <point x="169.5" y="700" type="line"/>
      <point x="254" y="700" type="line"/>
      <point x="147.5" y="80" type="line"/>
      <point x="414.5" y="80" type="line"/>
      <point x="400.5" y="0" type="line"/>
      <point x="49.5" y="0" type="line"/>
    </contour>
  </outline>
</glyph>
<glyph name="Ncaron" format="1">
  <advance width="752"/>
  <unicode hex="0147"/>
  <outline>
    <contour>
      <point x="508.5" y="880.5" type="line"/>
      <point x="632.5" y="974.5" type="line"/>
      <point x="676.5" y="933.5" type="line"/>
      <point x="498.5" y="795" type="line"/>
      <point x="364.5" y="936" type="line"/>
      <point x="418.5" y="974.5" type="line"/>
    </contour>
    <contour>
      <point x="684" y="700" type="line"/>
      <point x="768" y="700" type="line"/>
      <point x="642" y="-34" type="line"/>
      <point x="223.5" y="521.5" type="line"/>
      <point x="133.5" y="0" type="line"/>
      <point x="49" y="0" type="line"/>
      <point x="175" y="734" type="line"/>
      <point x="594" y="178.5" type="line"/>
    </contour>
  </outline>
</glyph>
<glyph name="Eng" format="1">
  <advance width="775"/>
  <unicode hex="014A"/>
  <outline>
    <contour>
      <point x="480" y="-220" type="curve" smooth="yes"/>
      <point x="440" y="-220"/>
      <point x="414.5" y="-207"/>
      <point x="399" y="-180" type="curve"/>
      <point x="454" y="-114" type="line"/>
      <point x="461.5" y="-130"/>
      <point x="477.5" y="-140"/>
      <point x="498.5" y="-140" type="curve" smooth="yes"/>
      <point x="532.5" y="-140"/>
      <point x="551" y="-114"/>
      <point x="561.5" y="-50" type="curve" smooth="yes"/>
      <point x="578" y="49" type="line"/>
      <point x="207" y="521" type="line"/>
      <point x="120" y="0" type="line"/>
      <point x="35" y="0" type="line"/>
      <point x="158" y="735" type="line"/>
      <point x="595" y="179" type="line"/>
      <point x="682" y="700" type="line"/>
      <point x="767" y="700" type="line"/>
      <point x="640" y="-60" type="line" smooth="yes"/>
      <point x="623" y="-161"/>
      <point x="564" y="-220"/>
    </contour>
  </outline>
</glyph>
<glyph name="eng" format="1">
  <advance width="525"/>
  <unicode hex="014B"/>
  <outline>
    <contour>
      <point x="235" y="-220" type="curve" smooth="yes"/>
      <point x="199" y="-220"/>
      <point x="168" y="-205"/>
      <point x="154" y="-180" type="curve"/>
      <point x="209" y="-114" type="line"/>
      <point x="217" y="-132"/>
      <point x="231.5" y="-140"/>
      <point x="253.5" y="-140" type="curve" smooth="yes"/>
      <point x="285.5" y="-140"/>
      <point x="306.5" y="-111"/>
      <point x="316.5" y="-50" type="curve" smooth="yes"/>
      <point x="372" y="280" type="line" smooth="yes"/>
      <point x="384.5" y="356"/>
      <point x="358" y="395"/>
      <point x="293" y="395" type="curve" smooth="yes"/>
      <point x="225" y="395"/>
      <point x="168.5" y="348"/>
      <point x="157" y="280" type="curve" smooth="yes"/>
      <point x="110" y="0" type="line"/>
      <point x="30" y="0" type="line"/>
      <point x="107" y="460" type="line"/>
      <point x="187" y="460" type="line"/>
      <point x="175" y="388" type="line"/>
      <point x="213.5" y="440"/>
      <point x="267.5" y="470"/>
      <point x="325.5" y="470" type="curve" smooth="yes"/>
      <point x="425.5" y="470"/>
      <point x="472.5" y="404"/>
      <point x="453.5" y="290" type="curve" smooth="yes"/>
      <point x="395" y="-60" type="line" smooth="yes"/>
      <point x="377.5" y="-165"/>
      <point x="323" y="-220"/>
    </contour>
  </outline>
</glyph>
<glyph name="Omacron" format="1">
  <advance width="766"/>
  <unicode hex="014C"/>
  <outline>
    <contour>
      <point x="159.5" y="350" type="curve" smooth="yes"/>
      <point x="137.5" y="209"/>
      <point x="213" y="76.5"/>
      <point x="366" y="75.5" type="curve" smooth="yes"/>
      <point x="521" y="74.5"/>
      <point x="647.5" y="201"/>
      <point x="672.5" y="350" type="curve" smooth="yes"/>
      <point x="694.5" y="491"/>
      <point x="619" y="623.5"/>
      <point x="466" y="624.5" type="curve" smooth="yes"/>
      <point x="311" y="625.5"/>
      <point x="184.5" y="499"/>
    </contour>
    <contour>
      <point x="70.5" y="350" type="curve" smooth="yes"/>
      <point x="101" y="546"/>
      <point x="270" y="710.5"/>
      <point x="474.5" y="710" type="curve" smooth="yes"/>
      <point x="676" y="709.5"/>
      <point x="789" y="537.5"/>
      <point x="761.5" y="350" type="curve" smooth="yes"/>
      <point x="731" y="154"/>
      <point x="562" y="-10.5"/>
      <point x="357.5" y="-10" type="curve" smooth="yes"/>
      <point x="156" y="-9.5"/>
      <point x="43" y="162.5"/>
    </contour>
    <contour>
      <point x="318" y="770.5" type="line"/>
      <point x="330.5" y="845" type="line"/>
      <point x="672" y="845" type="line"/>
      <point x="659" y="770" type="line"/>
    </contour>
  </outline>
</glyph>
<glyph name="Rcaron" format="1">
  <advance width="543"/>
  <unicode hex="0158"/>
  <outline>
    <contour>
      <point x="230.5" y="345" type="line"/>
      <point x="322" y="345" type="line"/>
      <point x="505.5" y="0" type="line"/>
      <point x="406.5" y="0" type="line"/>
    </contour>
    <contour>
      <point x="168.5" y="699.5" type="line"/>
      <point x="254" y="700" type="line"/>
      <point x="133" y="0" type="line"/>
      <point x="51" y="0" type="line"/>
    </contour>
    <contour>
      <point x="201.5" y="625" type="line"/>
      <point x="215" y="700" type="line"/>
      <point x="351.5" y="700" type="line"/>
      <point x="478.5" y="697.5"/>
      <point x="569.5" y="614"/>
      <point x="550.5" y="489.5" type="curve" smooth="yes"/>
      <point x="531" y="362.5"/>
      <point x="416.5" y="282.5"/>
      <point x="285.5" y="280" type="curve"/>
      <point x="142.5" y="280" type="line"/>
      <point x="156" y="355" type="line"/>
      <point x="292.5" y="355" type="line"/>
      <point x="379.5" y="357.5"/>
      <point x="451.5" y="406.5"/>
      <point x="466.5" y="490" type="curve" smooth="yes"/>
      <point x="480.5" y="571"/>
      <point x="428" y="622"/>
      <point x="344.5" y="624.5" type="curve"/>
    </contour>
    <contour>
      <point x="363.5" y="855.5" type="line"/>
      <point x="487.5" y="949.5" type="line"/>
      <point x="531.5" y="908.5" type="line"/>
      <point x="353.5" y="770" type="line"/>
      <point x="219.5" y="911" type="line"/>
      <point x="273.5" y="949.5" type="line"/>
    </contour>
  </outline>
</glyph>
<glyph name="Scaron" format="1">
  <advance width="531"/>
  <unicode hex="0160"/>
  <outline>
    <contour>
      <point x="119" y="226" type="line"/>
      <point x="144" y="142.5"/>
      <point x="180.5" y="71"/>
      <point x="268" y="70.5" type="curve" smooth="yes"/>
      <point x="342.5" y="70"/>
      <point x="394.5" y="116"/>
      <point x="406.5" y="183" type="curve" smooth="yes"/>
      <point x="421.5" y="268.5"/>
      <point x="348.5" y="307.5"/>
      <point x="276.5" y="338" type="curve" smooth="yes"/>
      <point x="202" y="370.5"/>
      <point x="121.5" y="430"/>
      <point x="136" y="535.5" type="curve" smooth="yes"/>
      <point x="152" y="639.5"/>
      <point x="251.5" y="710"/>
      <point x="361" y="709.5" type="curve" smooth="yes"/>
      <point x="464" y="709"/>
      <point x="527" y="637"/>
      <point x="548.5" y="559" type="curve"/>
      <point x="474.5" y="514" type="line"/>
      <point x="454" y="570.5"/>
      <point x="425.5" y="627.5"/>
      <point x="354" y="628.5" type="curve" smooth="yes"/>
      <point x="288.5" y="629"/>
      <point x="232.5" y="588.5"/>
      <point x="222.5" y="529" type="curve" smooth="yes"/>
      <point x="209.5" y="458.5"/>
      <point x="285.5" y="425.5"/>
      <point x="354.5" y="396" type="curve" smooth="yes"/>
      <point x="432.5" y="361.5"/>
      <point x="508.5" y="300.5"/>
      <point x="494" y="189.5" type="curve" smooth="yes"/>
      <point x="477" y="73"/>
      <point x="385" y="-10"/>
      <point x="255.5" y="-9.5" type="curve" smooth="yes"/>
      <point x="141" y="-9"/>
      <point x="71" y="76"/>
      <point x="42.5" y="184" type="curve"/>
    </contour>
    <contour>
      <point x="386" y="855.5" type="line"/>
      <point x="509.5" y="949.5" type="line"/>
      <point x="554" y="908.5" type="line"/>
      <point x="376" y="770" type="line"/>
      <point x="242" y="911" type="line"/>
      <point x="295.5" y="949.5" type="line"/>
    </contour>
  </outline>
</glyph>
<glyph name="scaron" format="1">
  <advance width="391"/>
  <unicode hex="0161"/>
  <outline>
    <contour>
      <point x="87.5" y="160.5" type="line"/>
      <point x="95" y="107.5"/>
      <point x="128.5" y="66"/>
      <point x="185.5" y="65.5" type="curve" smooth="yes"/>
      <point x="229.5" y="65"/>
      <point x="268" y="84.5"/>
      <point x="275" y="123.5" type="curve" smooth="yes"/>
      <point x="284" y="172.5"/>
      <point x="236" y="195"/>
      <point x="192" y="215" type="curve" smooth="yes"/>
      <point x="134" y="242"/>
      <point x="73.5" y="277"/>
      <point x="84" y="349.5" type="curve" smooth="yes"/>
      <point x="95" y="423.5"/>
      <point x="174.5" y="469"/>
      <point x="247.5" y="469.5" type="curve" smooth="yes"/>
      <point x="316.5" y="470"/>
      <point x="377.5" y="435"/>
      <point x="396.5" y="379" type="curve"/>
      <point x="329" y="339.5" type="line"/>
      <point x="309" y="369"/>
      <point x="277.5" y="393.5"/>
      <point x="240.5" y="393.5" type="curve" smooth="yes"/>
      <point x="205" y="393.5"/>
      <point x="166.5" y="378"/>
      <point x="161.5" y="343.5" type="curve" smooth="yes"/>
      <point x="155" y="304"/>
      <point x="216" y="284"/>
      <point x="255.5" y="266" type="curve" smooth="yes"/>
      <point x="314" y="238.5"/>
      <point x="366.5" y="194.5"/>
      <point x="358" y="129.5" type="curve" smooth="yes"/>
      <point x="346.5" y="36.5"/>
      <point x="265.5" y="-10.5"/>
      <point x="173" y="-9.5" type="curve" smooth="yes"/>
      <point x="89.5" y="-9"/>
      <point x="26.5" y="47"/>
      <point x="17.5" y="123.5" type="curve"/>
    </contour>
    <contour>
      <point x="272" y="615.5" type="line"/>
      <point x="396" y="709.5" type="line"/>
      <point x="440.5" y="668.5" type="line"/>
      <point x="262" y="530" type="line"/>
      <point x="128" y="671" type="line"/>
      <point x="182" y="709.5" type="line"/>
    </contour>
  </outline>
</glyph>
<glyph name="Utilde" format="1">
  <advance width="607"/>
  <unicode hex="0168"/>
  <outline>
    <contour>
      <point x="164.5" y="700" type="line"/>
      <point x="249.5" y="700" type="line"/>
      <point x="167.5" y="230" type="line" smooth="yes"/>
      <point x="156" y="145"/>
      <point x="187.5" y="71.5"/>
      <point x="284.5" y="70.5" type="curve" smooth="yes"/>
      <point x="382.5" y="69"/>
      <point x="446" y="140.5"/>
      <point x="462.5" y="230" type="curve"/>
      <point x="543.5" y="700" type="line"/>
      <point x="629" y="700" type="line"/>
      <point x="549" y="230" type="line" smooth="yes"/>
      <point x="526" y="97.5"/>
      <point x="423" y="-9.5"/>
      <point x="279.5" y="-9.5" type="curve" smooth="yes"/>
      <point x="138.5" y="-9.5"/>
      <point x="66.5" y="100.5"/>
      <point x="84" y="230" type="curve"/>
    </contour>
    <contour>
      <point x="253" y="808.5" type="line"/>
      <point x="253" y="852.5"/>
      <point x="328.5" y="889"/>
      <point x="365" y="888.5" type="curve" smooth="yes"/>
      <point x="417" y="887.5"/>
      <point x="431" y="841"/>
      <point x="477.5" y="842.5" type="curve" smooth="yes"/>
      <point x="501" y="843.5"/>
      <point x="522" y="865.5"/>
      <point x="541.5" y="890" type="curve"/>
      <point x="582" y="845" type="line"/>
      <point x="559.5" y="811"/>
      <point x="518.5" y="772.5"/>
      <point x="470" y="774.5" type="curve" smooth="yes"/>
      <point x="423.5" y="776"/>
      <point x="402.5" y="821.5"/>
      <point x="361" y="820.5" type="curve" smooth="yes"/>
      <point x="325.5" y="819.5"/>
      <point x="310.5" y="788.5"/>
      <point x="302" y="770.5" type="curve"/>
    </contour>
  </outline>
</glyph>
<glyph name="Umacron" format="1">
  <advance width="607"/>
  <unicode hex="016A"/>
  <outline>
    <contour>
      <point x="164.5" y="700" type="line"/>
      <point x="249.5" y="700" type="line"/>
      <point x="167.5" y="230" type="line" smooth="yes"/>
      <point x="156" y="145"/>
      <point x="187.5" y="71.5"/>
      <point x="284.5" y="70.5" type="curve" smooth="yes"/>
      <point x="382.5" y="69"/>
      <point x="446" y="140.5"/>
      <point x="462.5" y="230" type="curve"/>
      <point x="543.5" y="700" type="line"/>
      <point x="629" y="700" type="line"/>
      <point x="549" y="230" type="line" smooth="yes"/>
      <point x="526" y="97.5"/>
      <point x="423" y="-9.5"/>
      <point x="279.5" y="-9.5" type="curve" smooth="yes"/>
      <point x="138.5" y="-9.5"/>
      <point x="66.5" y="100.5"/>
      <point x="84" y="230" type="curve"/>
    </contour>
    <contour>
      <point x="239.125" y="770.5" type="line"/>
      <point x="250.625" y="845" type="line"/>
      <point x="593.125" y="845" type="line"/>
      <point x="580.625" y="770.5" type="line"/>
    </contour>
  </outline>
</glyph>
<glyph name="umacron" format="1">
  <advance width="509"/>
  <unicode hex="016B"/>
  <outline>
    <contour>
      <point x="330" y="0" type="line"/>
      <point x="409.5" y="460" type="line"/>
      <point x="490" y="460" type="line"/>
      <point x="410.5" y="0" type="line"/>
    </contour>
    <contour>
      <point x="154" y="180" type="line" smooth="yes"/>
      <point x="146.5" y="118"/>
      <point x="160" y="67.5"/>
      <point x="225.5" y="66" type="curve" smooth="yes"/>
      <point x="296" y="64"/>
      <point x="345" y="118.5"/>
      <point x="361" y="179" type="curve"/>
      <point x="388.5" y="178.5" type="line"/>
      <point x="370" y="80"/>
      <point x="302" y="-9"/>
      <point x="201.5" y="-9.5" type="curve" smooth="yes"/>
      <point x="101.5" y="-10"/>
      <point x="62" y="69"/>
      <point x="74" y="170" type="curve"/>
      <point x="124" y="459.5" type="line"/>
      <point x="201.5" y="459.5" type="line"/>
    </contour>
    <contour>
      <point x="149.375" y="530.5" type="line"/>
      <point x="160.875" y="605" type="line"/>
      <point x="503.375" y="605" type="line"/>
      <point x="490.875" y="530.5" type="line"/>
    </contour>
  </outline>
</glyph>
<glyph name="ubreve" format="1">
  <advance width="509"/>
  <unicode hex="016D"/>
  <outline>
    <contour>
      <point x="330" y="0" type="line"/>
      <point x="409.5" y="460" type="line"/>
      <point x="490" y="460" type="line"/>
      <point x="410.5" y="0" type="line"/>
    </contour>
    <contour>
      <point x="154" y="180" type="line" smooth="yes"/>
      <point x="146.5" y="118"/>
      <point x="160" y="67.5"/>
      <point x="225.5" y="66" type="curve" smooth="yes"/>
      <point x="296" y="64"/>
      <point x="345" y="118.5"/>
      <point x="361" y="179" type="curve"/>
      <point x="388.5" y="178.5" type="line"/>
      <point x="370" y="80"/>
      <point x="302" y="-9"/>
      <point x="201.5" y="-9.5" type="curve" smooth="yes"/>
      <point x="101.5" y="-10"/>
      <point x="62" y="69"/>
      <point x="74" y="170" type="curve"/>
      <point x="124" y="459.5" type="line"/>
      <point x="201.5" y="459.5" type="line"/>
    </contour>
    <contour>
      <point x="187.25" y="670" type="curve"/>
      <point x="256.25" y="669.5" type="line"/>
      <point x="254.25" y="637"/>
      <point x="266.25" y="596"/>
      <point x="324.75" y="595.5" type="curve" smooth="yes"/>
      <point x="385.25" y="595"/>
      <point x="410.75" y="637.5"/>
      <point x="424.25" y="669.5" type="curve"/>
      <point x="495.75" y="668.5" type="line"/>
      <point x="477.75" y="596"/>
      <point x="419.25" y="530.5"/>
      <point x="322.25" y="530.5" type="curve" smooth="yes"/>
      <point x="226.25" y="530.5"/>
      <point x="182.25" y="596"/>
    </contour>
  </outline>
</glyph>
<glyph name="Ycircumflex" format="1">
  <advance width="544"/>
  <unicode hex="0176"/>
  <outline>
    <contour>
      <point x="537" y="699.5" type="line"/>
      <point x="636" y="699.5" type="line"/>
      <point x="338" y="298.5" type="line"/>
      <point x="287" y="0" type="line"/>
      <point x="202" y="0" type="line"/>
      <point x="256" y="305.5" type="line"/>
      <point x="98.5" y="700" type="line"/>
      <point x="188.5" y="700" type="line"/>
      <point x="307" y="378.5" type="line"/>
    </contour>
    <contour>
      <point x="396.75" y="864" type="line"/>
      <point x="272.75" y="770.5" type="line"/>
      <point x="227.25" y="812" type="line"/>
      <point x="404.25" y="950" type="line"/>
      <point x="539.75" y="808.5" type="line"/>
      <point x="486.75" y="770" type="line"/>
    </contour>
  </outline>
</glyph>
<glyph name="zacute" format="1">
  <advance width="446"/>
  <unicode hex="017A"/>
  <outline>
    <contour>
      <point x="327.5" y="384.5" type="line"/>
      <point x="81" y="385" type="line"/>
      <point x="94.5" y="460" type="line"/>
      <point x="486" y="459.5" type="line"/>
      <point x="143" y="75.5" type="line"/>
      <point x="399.5" y="75" type="line"/>
      <point x="386" y="0" type="line"/>
      <point x="-15" y="0" type="line"/>
    </contour>
    <contour>
      <point x="486" y="697.5" type="line"/>
      <point x="287" y="551" type="line"/>
      <point x="245.5" y="581.5" type="line"/>
      <point x="417.5" y="739.5" type="line"/>
    </contour>
  </outline>
</glyph>
<glyph name="Zdotaccent" format="1">
  <advance width="528"/>
  <unicode hex="017B"/>
  <outline>
    <contour>
      <point x="111.5" y="620" type="line"/>
      <point x="126" y="700" type="line"/>
      <point x="604" y="699.5" type="line"/>
      <point x="141" y="80.5" type="line"/>
      <point x="478" y="80" type="line"/>
      <point x="463.5" y="0" type="line"/>
      <point x="-15" y="0" type="line"/>
      <point x="448.5" y="619.5" type="line"/>
    </contour>
    <contour>
      <point x="331.5" y="826" type="curve" smooth="yes"/>
      <point x="334.5" y="853"/>
      <point x="366" y="881"/>
      <point x="393.5" y="879.5" type="curve" smooth="yes"/>
      <point x="422" y="878"/>
      <point x="442.5" y="852"/>
      <point x="439.5" y="824" type="curve" smooth="yes"/>
      <point x="436.5" y="797"/>
      <point x="404.5" y="769"/>
      <point x="377" y="770.5" type="curve" smooth="yes"/>
      <point x="348.5" y="772"/>
      <point x="328.5" y="798"/>
    </contour>
  </outline>
</glyph>
<glyph name="zdotaccent" format="1">
  <advance width="446"/>
  <unicode hex="017C"/>
  <outline>
    <contour>
      <point x="327.5" y="384.5" type="line"/>
      <point x="81" y="385" type="line"/>
      <point x="94.5" y="460" type="line"/>
      <point x="486" y="459.5" type="line"/>
      <point x="143" y="75.5" type="line"/>
      <point x="399.5" y="75" type="line"/>
      <point x="386" y="0" type="line"/>
      <point x="-15" y="0" type="line"/>
    </contour>
    <contour>
      <point x="261.5" y="616" type="curve" smooth="yes"/>
      <point x="264.5" y="643"/>
      <point x="296.5" y="671"/>
      <point x="324" y="669.5" type="curve" smooth="yes"/>
      <point x="352.5" y="668"/>
      <point x="372.5" y="642"/>
      <point x="369.5" y="614" type="curve" smooth="yes"/>
      <point x="366.5" y="587"/>
      <point x="335" y="559"/>
      <point x="307.5" y="560.5" type="curve" smooth="yes"/>
      <point x="279" y="562"/>
      <point x="258.5" y="588"/>
    </contour>
  </outline>
</glyph>
<glyph name="florin" format="1">
  <advance width="600"/>
  <unicode hex="0192"/>
  <outline>
    <contour>
      <point x="159" y="-200" type="curve" smooth="yes"/>
      <point x="129" y="-199"/>
      <point x="104" y="-188"/>
      <point x="70" y="-158" type="curve"/>
      <point x="118" y="-96" type="line"/>
      <point x="139" y="-116"/>
      <point x="150" y="-122"/>
      <point x="162" y="-122" type="curve" smooth="yes"/>
      <point x="192" y="-122"/>
      <point x="216.855" y="-86.7965"/>
      <point x="229" y="-32" type="curve" smooth="yes"/>
      <point x="323" y="385" type="line"/>
      <point x="261" y="385" type="line"/>
      <point x="277" y="460" type="line"/>
      <point x="339" y="460" type="line"/>
      <point x="376" y="626" type="line" smooth="yes"/>
      <point x="396.587" y="721.914"/>
      <point x="452" y="791"/>
      <point x="527" y="789" type="curve" smooth="yes"/>
      <point x="557" y="788"/>
      <point x="582" y="777"/>
      <point x="616" y="747" type="curve"/>
      <point x="568" y="685" type="line"/>
      <point x="547" y="705"/>
      <point x="536" y="711"/>
      <point x="524" y="711" type="curve" smooth="yes"/>
      <point x="494" y="711"/>
      <point x="469.435" y="674.296"/>
      <point x="457" y="620" type="curve" smooth="yes"/>
      <point x="419" y="460" type="line"/>
      <point x="497" y="460" type="line"/>
      <point x="481" y="385" type="line"/>
      <point x="403" y="385" type="line"/>
      <point x="310" y="-38" type="line" smooth="yes"/>
      <point x="289.501" y="-134.413"/>
      <point x="233" y="-202"/>
    </contour>
  </outline>
</glyph>
<glyph name="uni021A" format="1">
  <advance width="451"/>
  <unicode hex="021A"/>
  <outline>
    <contour>
      <point x="87" y="620" type="line"/>
      <point x="101.5" y="700" type="line"/>
      <point x="535" y="700" type="line"/>
      <point x="521" y="620" type="line"/>
      <point x="346.5" y="620" type="line"/>
      <point x="240" y="0" type="line"/>
      <point x="156" y="0" type="line"/>
      <point x="262.5" y="620" type="line"/>
    </contour>
    <contour>
      <point x="190.509" y="-60" type="line"/>
      <point x="266.509" y="-91" type="line"/>
      <point x="117.009" y="-338" type="line"/>
      <point x="61.5088" y="-317" type="line"/>
    </contour>
  </outline>
</glyph>
<glyph name="uni021B" format="1">
  <advance width="232"/>
  <unicode hex="021B"/>
  <outline>
    <contour>
      <point x="57.5" y="460" type="line"/>
      <point x="282" y="460" type="line"/>
      <point x="268.5" y="385" type="line"/>
      <point x="43.5" y="385" type="line"/>
    </contour>
    <contour>
      <point x="155" y="619.5" type="line"/>
      <point x="235.5" y="620" type="line"/>
      <point x="128" y="0" type="line"/>
      <point x="51" y="0" type="line"/>
    </contour>
    <contour>
      <point x="82.0088" y="-60" type="line"/>
      <point x="158.009" y="-91" type="line"/>
      <point x="8.50879" y="-338" type="line"/>
      <point x="-46.9912" y="-317" type="line"/>
    </contour>
  </outline>
</glyph>
<glyph name="circumflex" format="1">
  <advance width="465"/>
  <unicode hex="02C6"/>
  <outline>
    <contour>
      <point x="318.5" y="644.5" type="line"/>
      <point x="194.5" y="550.5" type="line"/>
      <point x="150.5" y="591.5" type="line"/>
      <point x="328.5" y="730" type="line"/>
      <point x="462.5" y="589" type="line"/>
      <point x="409" y="550.5" type="line"/>
    </contour>
  </outline>
</glyph>
<glyph name="caron" format="1">
  <advance width="465"/>
  <unicode hex="02C7"/>
  <outline>
    <contour>
      <point x="315" y="655.5" type="line"/>
      <point x="438.5" y="749.5" type="line"/>
      <point x="483" y="708.5" type="line"/>
      <point x="305" y="570" type="line"/>
      <point x="171" y="711" type="line"/>
      <point x="224.5" y="749.5" type="line"/>
    </contour>
  </outline>
</glyph>
<glyph name="breve" format="1">
  <advance width="529"/>
  <unicode hex="02D8"/>
  <outline>
    <contour>
      <point x="224.5" y="850" type="curve"/>
      <point x="293.5" y="850" type="line"/>
      <point x="292.5" y="817"/>
      <point x="306" y="776"/>
      <point x="364.5" y="775.5" type="curve" smooth="yes"/>
      <point x="425" y="775"/>
      <point x="449.5" y="817"/>
      <point x="462" y="849.5" type="curve"/>
      <point x="532.5" y="849" type="line"/>
      <point x="515" y="776.5"/>
      <point x="456.5" y="710.5"/>
      <point x="359.5" y="710.5" type="curve" smooth="yes"/>
      <point x="264" y="710.5"/>
      <point x="220" y="776"/>
    </contour>
  </outline>
</glyph>
<glyph name="dotaccent" format="1">
  <advance width="291"/>
  <unicode hex="02D9"/>
  <outline>
    <contour>
      <point x="199.5" y="791" type="curve" smooth="yes"/>
      <point x="199.5" y="821"/>
      <point x="224.5" y="846"/>
      <point x="254.5" y="846" type="curve" smooth="yes"/>
      <point x="284.5" y="846"/>
      <point x="309.5" y="821"/>
      <point x="309.5" y="791" type="curve" smooth="yes"/>
      <point x="309.5" y="761"/>
      <point x="284.5" y="736"/>
      <point x="254.5" y="736" type="curve" smooth="yes"/>
      <point x="224.5" y="736"/>
      <point x="199.5" y="761"/>
    </contour>
  </outline>
</glyph>
<glyph name="ring" format="1">
  <advance width="269"/>
  <unicode hex="02DA"/>
  <outline>
    <contour>
      <point x="142" y="786" type="curve" smooth="yes"/>
      <point x="149.5" y="841"/>
      <point x="204" y="885"/>
      <point x="257" y="884.5" type="curve" smooth="yes"/>
      <point x="310" y="884"/>
      <point x="349" y="838.5"/>
      <point x="341.5" y="784" type="curve" smooth="yes"/>
      <point x="334" y="729"/>
      <point x="279.5" y="685"/>
      <point x="226.5" y="685.5" type="curve" smooth="yes"/>
      <point x="173.5" y="686"/>
      <point x="134.5" y="731.5"/>
    </contour>
    <contour>
      <point x="192" y="784.5" type="curve" smooth="yes"/>
      <point x="189" y="758"/>
      <point x="207" y="734"/>
      <point x="231" y="732.5" type="curve" smooth="yes"/>
      <point x="255.5" y="730.5"/>
      <point x="288.5" y="758"/>
      <point x="291.5" y="785.5" type="curve" smooth="yes"/>
      <point x="294.5" y="812"/>
      <point x="276.5" y="836"/>
      <point x="252.5" y="837.5" type="curve" smooth="yes"/>
      <point x="228" y="839.5"/>
      <point x="195" y="812"/>
    </contour>
  </outline>
</glyph>
<glyph name="hungarumlaut" format="1">
  <advance width="0"/>
  <unicode hex="02DD"/>
  <outline>
    <contour>
      <point x="55" y="508.5" type="line"/>
      <point x="0" y="528" type="line"/>
      <point x="129" y="722" type="line"/>
      <point x="214" y="699.5" type="line"/>
    </contour>
    <contour>
      <point x="219" y="508.5" type="line"/>
      <point x="165" y="528" type="line"/>
      <point x="293" y="722" type="line"/>
      <point x="380" y="699.5" type="line"/>
    </contour>
  </outline>
</glyph>
<glyph name="gravecomb" format="1">
  <advance width="0"/>
  <unicode hex="0300"/>
  <outline>
    <contour>
      <point x="271" y="545" type="line"/>
      <point x="116.5" y="695" type="line"/>
      <point x="193" y="735" type="line"/>
      <point x="316" y="575" type="line"/>
    </contour>
  </outline>
</glyph>
<glyph name="acutecomb" format="1">
  <advance width="0"/>
  <unicode hex="0301"/>
  <outline>
    <contour>
      <point x="161" y="540" type="line"/>
      <point x="111" y="575" type="line"/>
      <point x="288" y="735" type="line"/>
      <point x="366.5" y="690" type="line"/>
    </contour>
  </outline>
</glyph>
<glyph name="uni0302" format="1">
  <advance width="0"/>
  <unicode hex="0302"/>
  <outline>
    <contour>
      <point x="137.5" y="546" type="line"/>
      <point x="99.5" y="596" type="line"/>
      <point x="272.5" y="726" type="line"/>
      <point x="401.5" y="596" type="line"/>
      <point x="352.5" y="547" type="line"/>
      <point x="248.5" y="653" type="line"/>
      <point x="282.5" y="653" type="line"/>
    </contour>
  </outline>
</glyph>
<glyph name="tildecomb" format="1">
  <advance width="0"/>
  <unicode hex="0303"/>
  <outline>
    <contour>
      <point x="151.5" y="583" type="curve"/>
      <point x="104.5" y="625" type="line"/>
      <point x="122.5" y="674"/>
      <point x="172.5" y="707"/>
      <point x="217.5" y="707" type="curve" smooth="yes"/>
      <point x="277.5" y="707"/>
      <point x="284.5" y="660"/>
      <point x="333.5" y="660" type="curve" smooth="yes"/>
      <point x="352.5" y="660"/>
      <point x="377" y="676"/>
      <point x="402.5" y="708" type="curve"/>
      <point x="441.5" y="660" type="line"/>
      <point x="419.5" y="623"/>
      <point x="378" y="587"/>
      <point x="328" y="587" type="curve" smooth="yes"/>
      <point x="278" y="587"/>
      <point x="253.5" y="634"/>
      <point x="213.5" y="634" type="curve" smooth="yes"/>
      <point x="172.5" y="634"/>
      <point x="154" y="598"/>
    </contour>
  </outline>
</glyph>
<glyph name="uni0304" format="1">
  <advance width="0"/>
  <unicode hex="0304"/>
  <outline>
    <contour>
      <point x="100.5" y="600" type="line"/>
      <point x="113" y="675" type="line"/>
      <point x="463" y="675" type="line"/>
      <point x="450.5" y="600" type="line"/>
    </contour>
  </outline>
</glyph>
<glyph name="uni0306" format="1">
  <advance width="0"/>
  <unicode hex="0306"/>
  <outline>
    <contour>
      <point x="253.5" y="540" type="curve" smooth="yes"/>
      <point x="161.5" y="540"/>
      <point x="100.5" y="599"/>
      <point x="114" y="680" type="curve"/>
      <point x="185" y="680" type="line"/>
      <point x="178" y="637"/>
      <point x="209" y="605"/>
      <point x="259" y="605" type="curve" smooth="yes"/>
      <point x="304" y="605"/>
      <point x="352" y="637"/>
      <point x="359" y="680" type="curve"/>
      <point x="430" y="680" type="line"/>
      <point x="416.5" y="599"/>
      <point x="345.5" y="540"/>
    </contour>
  </outline>
</glyph>
<glyph name="uni0307" format="1">
  <advance width="0"/>
  <unicode hex="0307"/>
  <outline>
    <contour>
      <point x="159.5" y="570" type="curve" smooth="yes"/>
      <point x="129.5" y="570"/>
      <point x="104.5" y="595"/>
      <point x="104.5" y="625" type="curve" smooth="yes"/>
      <point x="104.5" y="655"/>
      <point x="129.5" y="680"/>
      <point x="159.5" y="680" type="curve" smooth="yes"/>
      <point x="189.5" y="680"/>
      <point x="214.5" y="655"/>
      <point x="214.5" y="625" type="curve" smooth="yes"/>
      <point x="214.5" y="595"/>
      <point x="189.5" y="570"/>
    </contour>
  </outline>
</glyph>
<glyph name="uni0308" format="1">
  <advance width="0"/>
  <unicode hex="0308"/>
  <outline>
    <contour>
      <point x="265.5" y="605" type="curve" smooth="yes"/>
      <point x="234" y="605"/>
      <point x="210.5" y="628.5"/>
      <point x="210.5" y="660" type="curve" smooth="yes"/>
      <point x="210.5" y="691.5"/>
      <point x="234" y="715"/>
      <point x="265.5" y="715" type="curve" smooth="yes"/>
      <point x="297" y="715"/>
      <point x="320.5" y="691.5"/>
      <point x="320.5" y="660" type="curve" smooth="yes"/>
      <point x="320.5" y="628.5"/>
      <point x="297" y="605"/>
    </contour>
    <contour>
      <point x="265.5" y="605" type="curve" smooth="yes"/>
      <point x="234" y="605"/>
      <point x="210.5" y="628.5"/>
      <point x="210.5" y="660" type="curve" smooth="yes"/>
      <point x="210.5" y="691.5"/>
      <point x="234" y="715"/>
      <point x="265.5" y="715" type="curve" smooth="yes"/>
      <point x="297" y="715"/>
      <point x="320.5" y="691.5"/>
      <point x="320.5" y="660" type="curve" smooth="yes"/>
      <point x="320.5" y="628.5"/>
      <point x="297" y="605"/>
    </contour>
  </outline>
</glyph>
<glyph name="uni030A" format="1">
  <advance width="0"/>
  <unicode hex="030A"/>
  <outline>
    <contour>
      <point x="199" y="520" type="curve" smooth="yes"/>
      <point x="137" y="520"/>
      <point x="95.5" y="569"/>
      <point x="105.5" y="630" type="curve" smooth="yes"/>
      <point x="115.5" y="691"/>
      <point x="174" y="740"/>
      <point x="236" y="740" type="curve" smooth="yes"/>
      <point x="298" y="740"/>
      <point x="340.5" y="691"/>
      <point x="330.5" y="630" type="curve" smooth="yes"/>
      <point x="320.5" y="569"/>
      <point x="261" y="520"/>
    </contour>
    <contour>
      <point x="207.5" y="572" type="curve" smooth="yes"/>
      <point x="238.5" y="572"/>
      <point x="268" y="598"/>
      <point x="273.5" y="630" type="curve" smooth="yes"/>
      <point x="279" y="662"/>
      <point x="258" y="688"/>
      <point x="227" y="688" type="curve" smooth="yes"/>
      <point x="196" y="688"/>
      <point x="167" y="662"/>
      <point x="161.5" y="630" type="curve" smooth="yes"/>
      <point x="156" y="598"/>
      <point x="176.5" y="572"/>
    </contour>
  </outline>
</glyph>
<glyph name="uni030B" format="1">
  <advance width="0"/>
  <unicode hex="030B"/>
  <outline>
    <contour>
      <point x="55" y="508.5" type="line"/>
      <point x="0" y="528" type="line"/>
      <point x="129" y="722" type="line"/>
      <point x="214" y="699.5" type="line"/>
    </contour>
    <contour>
      <point x="219" y="508.5" type="line"/>
      <point x="165" y="528" type="line"/>
      <point x="293" y="722" type="line"/>
      <point x="380" y="699.5" type="line"/>
    </contour>
  </outline>
</glyph>
<glyph name="uni030C" format="1">
  <advance width="0"/>
  <unicode hex="030C"/>
  <outline>
    <contour>
      <point x="242.5" y="547" type="line"/>
      <point x="113.5" y="678" type="line"/>
      <point x="162" y="726" type="line"/>
      <point x="267" y="621" type="line"/>
      <point x="233" y="621" type="line"/>
      <point x="377" y="727.5" type="line"/>
      <point x="415.5" y="678" type="line"/>
    </contour>
  </outline>
</glyph>
<glyph name="uni0326" format="1">
  <advance width="0"/>
  <unicode hex="0326"/>
  <outline>
    <contour>
      <point x="7.5" y="-224.5" type="line"/>
      <point x="-33" y="-197" type="line"/>
      <point x="95" y="-17" type="line"/>
      <point x="150" y="-54.5" type="line"/>
    </contour>
  </outline>
</glyph>
<glyph name="uni0327" format="1">
  <advance width="0"/>
  <unicode hex="0327"/>
  <outline>
    <contour>
      <point x="52" y="-220" type="curve" smooth="yes"/>
      <point x="15" y="-220"/>
      <point x="-7.5" y="-212"/>
      <point x="-32" y="-192" type="curve"/>
      <point x="-1.5" y="-147" type="line"/>
      <point x="24" y="-163"/>
      <point x="35" y="-166"/>
      <point x="61" y="-166" type="curve" smooth="yes"/>
      <point x="93" y="-166"/>
      <point x="113.5" y="-152"/>
      <point x="118" y="-126" type="curve" smooth="yes"/>
      <point x="122" y="-102"/>
      <point x="108" y="-90"/>
      <point x="74" y="-90" type="curve" smooth="yes"/>
      <point x="58" y="-90"/>
      <point x="30" y="-91"/>
      <point x="16.5" y="-93" type="curve"/>
      <point x="122" y="60" type="line"/>
      <point x="188" y="60" type="line"/>
      <point x="91" y="-72" type="line"/>
      <point x="67" y="-72" type="line"/>
      <point x="80.5" y="-52"/>
      <point x="90" y="-47"/>
      <point x="115" y="-47" type="curve" smooth="yes"/>
      <point x="158" y="-47"/>
      <point x="186.15" y="-86.5493"/>
      <point x="179.5" y="-126.5" type="curve" smooth="yes"/>
      <point x="170.5" y="-180.5"/>
      <point x="124" y="-220"/>
    </contour>
  </outline>
</glyph>
<glyph name="uni0328" format="1">
  <advance width="0"/>
  <unicode hex="0328"/>
  <outline>
    <contour>
      <point x="86" y="-220" type="curve" smooth="yes"/>
      <point x="12" y="-220"/>
      <point x="-30" y="-179"/>
      <point x="-20" y="-120" type="curve" smooth="yes"/>
      <point x="-10" y="-61"/>
      <point x="55" y="-11"/>
      <point x="131" y="25" type="curve"/>
      <point x="173" y="0" type="line"/>
      <point x="117.5" y="-22"/>
      <point x="69.5" y="-63"/>
      <point x="63.5" y="-100" type="curve" smooth="yes"/>
      <point x="57.5" y="-136"/>
      <point x="78" y="-150"/>
      <point x="103" y="-150" type="curve" smooth="yes"/>
      <point x="129" y="-150"/>
      <point x="140.5" y="-143"/>
      <point x="156.5" y="-130" type="curve"/>
      <point x="181" y="-180" type="line"/>
      <point x="162.5" y="-200"/>
      <point x="129" y="-220"/>
    </contour>
  </outline>
</glyph>
<glyph name="uni0394" format="1">
  <advance width="600"/>
  <unicode hex="0394"/>
  <outline>
    <contour>
      <point x="-27" y="0" type="line"/>
      <point x="536" y="0" type="line"/>
      <point x="389" y="800" type="line"/>
    </contour>
    <contour>
      <point x="105.5" y="76" type="line"/>
      <point x="353" y="575" type="line"/>
      <point x="429.5" y="76" type="line"/>
    </contour>
  </outline>
</glyph>
<glyph name="uni03A9" format="1">
  <advance width="600"/>
  <unicode hex="03A9"/>
  <outline>
    <contour>
      <point x="21" y="0" type="line"/>
      <point x="214" y="0" type="line"/>
      <point x="227" y="78" type="line"/>
      <point x="177.5" y="123"/>
      <point x="150.5" y="224"/>
      <point x="165" y="311" type="curve" smooth="yes"/>
      <point x="182" y="413"/>
      <point x="241" y="466"/>
      <point x="333" y="466" type="curve" smooth="yes"/>
      <point x="425" y="466"/>
      <point x="464" y="413"/>
      <point x="447" y="311" type="curve" smooth="yes"/>
      <point x="432.5" y="223"/>
      <point x="372.5" y="123"/>
      <point x="308" y="78" type="curve"/>
      <point x="295" y="0" type="line"/>
      <point x="488" y="0" type="line"/>
      <point x="499.5" y="68" type="line"/>
      <point x="412.5" y="68" type="line"/>
      <point x="476.5" y="140"/>
      <point x="524.5" y="235"/>
      <point x="538" y="317" type="curve" smooth="yes"/>
      <point x="561" y="455"/>
      <point x="480.5" y="559"/>
      <point x="348.5" y="559" type="curve" smooth="yes"/>
      <point x="216.5" y="559"/>
      <point x="100" y="455"/>
      <point x="77" y="317" type="curve" smooth="yes"/>
      <point x="63.5" y="235"/>
      <point x="79.5" y="140"/>
      <point x="119.5" y="68" type="curve"/>
      <point x="32.5" y="68" type="line"/>
    </contour>
  </outline>
</glyph>
<glyph name="uni0400" format="1">
  <advance width="533"/>
  <unicode hex="0400"/>
  <outline>
    <contour>
      <point x="97" y="0" type="line"/>
      <point x="109.5" y="80" type="line"/>
      <point x="454.5" y="80" type="line"/>
      <point x="441.5" y="0" type="line"/>
    </contour>
    <contour>
      <point x="202.5" y="620.5" type="line"/>
      <point x="215" y="700" type="line"/>
      <point x="560.5" y="700" type="line"/>
      <point x="547" y="620.5" type="line"/>
    </contour>
    <contour>
      <point x="155" y="340.5" type="line"/>
      <point x="167.5" y="420" type="line"/>
      <point x="493" y="420" type="line"/>
      <point x="480" y="340.5" type="line"/>
    </contour>
    <contour>
      <point x="167.5" y="699.5" type="line"/>
      <point x="255" y="700" type="line"/>
      <point x="133" y="0" type="line"/>
      <point x="51" y="0" type="line"/>
    </contour>
    <contour>
      <point x="233.418" y="920.5" type="line"/>
      <point x="311.418" y="959.5" type="line"/>
      <point x="434.918" y="798.5" type="line"/>
      <point x="387.918" y="770" type="line"/>
    </contour>
  </outline>
</glyph>
<glyph name="uni0403" format="1">
  <advance width="422"/>
  <unicode hex="0403"/>
  <outline>
    <contour>
      <point x="167" y="699.5" type="line"/>
      <point x="506.5" y="700" type="line"/>
      <point x="492" y="620" type="line"/>
      <point x="240.5" y="620" type="line"/>
      <point x="133" y="0" type="line"/>
      <point x="51" y="0" type="line"/>
    </contour>
    <contour>
      <point x="534.168" y="917" type="line"/>
      <point x="337.168" y="770" type="line"/>
      <point x="295.668" y="800.5" type="line"/>
      <point x="464.668" y="958.5" type="line"/>
    </contour>
  </outline>
</glyph>
<glyph name="uni040C" format="1">
  <advance width="548"/>
  <unicode hex="040C"/>
  <outline>
    <contour>
      <point x="167.5" y="699.5" type="line"/>
      <point x="255" y="700" type="line"/>
      <point x="133" y="0" type="line"/>
      <point x="51" y="0" type="line"/>
    </contour>
    <contour>
      <point x="516" y="699.5" type="line"/>
      <point x="625.5" y="699.5" type="line"/>
      <point x="270.5" y="368.5" type="line"/>
      <point x="514.5" y="0" type="line"/>
      <point x="416.5" y="0" type="line"/>
      <point x="171" y="373.5" type="line"/>
    </contour>
    <contour>
      <point x="593.75" y="916.5" type="line"/>
      <point x="395.75" y="770.5" type="line"/>
      <point x="352.75" y="802.5" type="line"/>
      <point x="523.75" y="959.5" type="line"/>
    </contour>
  </outline>
</glyph>
<glyph name="uni040E" format="1">
  <advance width="548"/>
  <unicode hex="040E"/>
  <outline>
    <contour>
      <point x="644.5" y="700" type="line"/>
      <point x="204.5" y="0" type="line"/>
      <point x="106" y="0" type="line"/>
      <point x="233" y="211" type="line"/>
      <point x="93" y="700" type="line"/>
      <point x="191" y="700" type="line"/>
      <point x="312" y="230" type="line"/>
      <point x="262" y="235" type="line"/>
      <point x="546" y="700" type="line"/>
    </contour>
    <contour>
      <point x="244.332" y="909.5" type="curve"/>
      <point x="313.332" y="909.5" type="line"/>
      <point x="312.332" y="876.5"/>
      <point x="325.832" y="835.5"/>
      <point x="384.332" y="835" type="curve" smooth="yes"/>
      <point x="444.832" y="834.5"/>
      <point x="469.332" y="876.5"/>
      <point x="481.832" y="909" type="curve"/>
      <point x="552.332" y="908.5" type="line"/>
      <point x="534.832" y="836"/>
      <point x="476.332" y="770"/>
      <point x="379.332" y="770" type="curve" smooth="yes"/>
      <point x="283.832" y="770"/>
      <point x="239.832" y="835.5"/>
    </contour>
  </outline>
</glyph>
<glyph name="uni0411" format="1">
  <advance width="531"/>
  <unicode hex="0411"/>
  <outline>
    <contour>
      <point x="152" y="340" type="line"/>
      <point x="167" y="420" type="line"/>
      <point x="302" y="420" type="line"/>
      <point x="429" y="417.5"/>
      <point x="521.5" y="334.5"/>
      <point x="503" y="209.5" type="curve" smooth="yes"/>
      <point x="484" y="82.5"/>
      <point x="370.5" y="2.5"/>
      <point x="239.5" y="0" type="curve"/>
      <point x="94" y="0" type="line"/>
      <point x="108.5" y="80" type="line"/>
      <point x="244" y="80" type="line" smooth="yes"/>
      <point x="330.5" y="82"/>
      <point x="403" y="126.5"/>
      <point x="418.5" y="210" type="curve" smooth="yes"/>
      <point x="433" y="291"/>
      <point x="380" y="337"/>
      <point x="297" y="339.5" type="curve"/>
    </contour>
    <contour>
      <point x="167" y="699.5" type="line"/>
      <point x="535.5" y="700" type="line"/>
      <point x="521.5" y="620" type="line"/>
      <point x="240.5" y="620" type="line"/>
      <point x="133" y="0" type="line"/>
      <point x="51" y="0" type="line"/>
    </contour>
  </outline>
</glyph>
<glyph name="uni0412" format="1">
  <advance width="541"/>
  <unicode hex="0412"/>
  <outline>
    <contour>
      <point x="178.5" y="370.5" type="line"/>
      <point x="185.5" y="416.5" type="line"/>
      <point x="292.5" y="417" type="line"/>
      <point x="360" y="419.5"/>
      <point x="421" y="455"/>
      <point x="433" y="520" type="curve" smooth="yes"/>
      <point x="444" y="582.5"/>
      <point x="400.5" y="622"/>
      <point x="336" y="624.5" type="curve"/>
      <point x="241" y="625" type="line"/>
      <point x="147" y="75" type="line"/>
      <point x="243" y="75.5" type="line"/>
      <point x="330.5" y="78"/>
      <point x="403" y="126.5"/>
      <point x="418.5" y="210" type="curve" smooth="yes"/>
      <point x="433" y="291"/>
      <point x="380.5" y="339.5"/>
      <point x="297" y="342.5" type="curve"/>
      <point x="173.5" y="343.5" type="line"/>
      <point x="181" y="389.5" type="line"/>
      <point x="297.5" y="390" type="line"/>
      <point x="420.5" y="388.5"/>
      <point x="520" y="330.5"/>
      <point x="502" y="204.5" type="curve" smooth="yes"/>
      <point x="483.5" y="71.5"/>
      <point x="370.5" y="2.5"/>
      <point x="239.5" y="0" type="curve"/>
      <point x="49" y="0" type="line"/>
      <point x="169" y="700" type="line"/>
      <point x="340" y="700" type="line"/>
      <point x="454" y="698"/>
      <point x="535.5" y="639"/>
      <point x="518" y="524.5" type="curve" smooth="yes"/>
      <point x="501.5" y="422.5"/>
      <point x="405.5" y="372"/>
      <point x="292" y="370.5" type="curve" smooth="yes"/>
    </contour>
  </outline>
</glyph>
<glyph name="uni0414" format="1">
  <advance width="771"/>
  <unicode hex="0414"/>
  <outline>
    <contour>
      <point x="451.5" y="542.5" type="line"/>
      <point x="174.5" y="30.5" type="line"/>
      <point x="81.5" y="30.5" type="line"/>
      <point x="482" y="738" type="line"/>
      <point x="637" y="30" type="line"/>
      <point x="552.5" y="30" type="line"/>
    </contour>
    <contour>
      <point x="630" y="0" type="line"/>
      <point x="86.5" y="0" type="line"/>
      <point x="67" y="-109.5" type="line"/>
      <point x="-8" y="-109.5" type="line"/>
      <point x="24.5" y="80" type="line"/>
      <point x="716.5" y="80" type="line"/>
      <point x="683" y="-109.5" type="line"/>
      <point x="609.5" y="-109.5" type="line"/>
    </contour>
  </outline>
</glyph>
<glyph name="uni0415" format="1">
  <advance width="533"/>
  <unicode hex="0415"/>
  <outline>
    <contour>
      <point x="97" y="0" type="line"/>
      <point x="109.5" y="80" type="line"/>
      <point x="454.5" y="80" type="line"/>
      <point x="441.5" y="0" type="line"/>
    </contour>
    <contour>
      <point x="202.5" y="620.5" type="line"/>
      <point x="215" y="700" type="line"/>
      <point x="560.5" y="700" type="line"/>
      <point x="547" y="620.5" type="line"/>
    </contour>
    <contour>
      <point x="155" y="340.5" type="line"/>
      <point x="167.5" y="420" type="line"/>
      <point x="493" y="420" type="line"/>
      <point x="480" y="340.5" type="line"/>
    </contour>
    <contour>
      <point x="167.5" y="699.5" type="line"/>
      <point x="255" y="700" type="line"/>
      <point x="133" y="0" type="line"/>
      <point x="51" y="0" type="line"/>
    </contour>
  </outline>
</glyph>
<glyph name="uni041C" format="1">
  <advance width="786"/>
  <unicode hex="041C"/>
  <outline>
    <contour>
      <point x="227" y="471.5" type="line"/>
      <point x="95.5" y="0" type="line"/>
      <point x="9" y="0" type="line"/>
      <point x="219" y="736.5" type="line"/>
      <point x="403" y="230.5" type="line"/>
      <point x="766.5" y="741" type="line"/>
      <point x="720.5" y="0" type="line"/>
      <point x="636" y="0" type="line"/>
      <point x="666" y="466" type="line"/>
      <point x="378" y="63" type="line"/>
    </contour>
  </outline>
</glyph>
<glyph name="uni041D" format="1">
  <advance width="693"/>
  <unicode hex="041D"/>
  <outline>
    <contour>
      <point x="155" y="340.5" type="line"/>
      <point x="167.5" y="420" type="line"/>
      <point x="636" y="420" type="line"/>
      <point x="622.5" y="340.5" type="line"/>
    </contour>
    <contour>
      <point x="623.5" y="699.5" type="line"/>
      <point x="711" y="700" type="line"/>
      <point x="589.5" y="0" type="line"/>
      <point x="507" y="0" type="line"/>
    </contour>
    <contour>
      <point x="167.5" y="699.5" type="line"/>
      <point x="255" y="700" type="line"/>
      <point x="133" y="0" type="line"/>
      <point x="51" y="0" type="line"/>
    </contour>
  </outline>
</glyph>
<glyph name="uni041F" format="1">
  <advance width="693"/>
  <unicode hex="041F"/>
  <outline>
    <contour>
      <point x="614" y="620.5" type="line"/>
      <point x="240.5" y="620" type="line"/>
      <point x="134" y="0" type="line"/>
      <point x="48.5" y="0" type="line"/>
      <point x="169" y="700" type="line"/>
      <point x="710" y="700" type="line"/>
      <point x="589.5" y="0" type="line"/>
      <point x="507" y="0" type="line"/>
    </contour>
  </outline>
</glyph>
<glyph name="uni0420" format="1">
  <advance width="531"/>
  <unicode hex="0420"/>
  <outline>
    <contour>
      <point x="167.5" y="699.5" type="line"/>
      <point x="255" y="700" type="line"/>
      <point x="133" y="0" type="line"/>
      <point x="51" y="0" type="line"/>
    </contour>
    <contour>
      <point x="200" y="620" type="line"/>
      <point x="214.5" y="700" type="line"/>
      <point x="350" y="700" type="line"/>
      <point x="477" y="697.5"/>
      <point x="569.5" y="614.5"/>
      <point x="551" y="489.5" type="curve" smooth="yes"/>
      <point x="532" y="362.5"/>
      <point x="418" y="282.5"/>
      <point x="287" y="280" type="curve"/>
      <point x="142" y="280" type="line"/>
      <point x="156.5" y="360" type="line"/>
      <point x="292" y="360" type="line" smooth="yes"/>
      <point x="378.5" y="362"/>
      <point x="451" y="406.5"/>
      <point x="466.5" y="490" type="curve" smooth="yes"/>
      <point x="481" y="571"/>
      <point x="428" y="617"/>
      <point x="345" y="619.5" type="curve"/>
    </contour>
  </outline>
</glyph>
<glyph name="uni0422" format="1">
  <advance width="451"/>
  <unicode hex="0422"/>
  <outline>
    <contour>
      <point x="86.5" y="620" type="line"/>
      <point x="101" y="700" type="line"/>
      <point x="535.5" y="700" type="line"/>
      <point x="521.5" y="620" type="line"/>
      <point x="347" y="620" type="line"/>
      <point x="240.5" y="0" type="line"/>
      <point x="155.5" y="0" type="line"/>
      <point x="262" y="620" type="line"/>
    </contour>
  </outline>
</glyph>
<glyph name="uni0424" format="1">
  <advance width="759"/>
  <unicode hex="0424"/>
  <outline>
    <contour>
      <point x="428.5" y="699.5" type="line"/>
      <point x="516" y="700" type="line"/>
      <point x="394.5" y="0" type="line"/>
      <point x="312" y="0" type="line"/>
    </contour>
    <contour>
      <point x="670.5" y="350" type="curve" smooth="yes"/>
      <point x="692.5" y="469.5"/>
      <point x="603" y="532.5"/>
      <point x="479" y="534.5" type="curve"/>
      <point x="418" y="535" type="line" smooth="yes"/>
      <point x="288" y="533"/>
      <point x="177" y="471.5"/>
      <point x="154.5" y="350" type="curve" smooth="yes"/>
      <point x="132.5" y="230.5"/>
      <point x="222" y="167.5"/>
      <point x="346" y="165.5" type="curve"/>
      <point x="407" y="165" type="line" smooth="yes"/>
      <point x="537" y="167"/>
      <point x="648" y="228.5"/>
    </contour>
    <contour>
      <point x="755" y="350" type="curve" smooth="yes"/>
      <point x="729" y="182.5"/>
      <point x="577.5" y="82.5"/>
      <point x="401.5" y="80" type="curve"/>
      <point x="340.5" y="80" type="line"/>
      <point x="171" y="82"/>
      <point x="45" y="185"/>
      <point x="70" y="350" type="curve" smooth="yes"/>
      <point x="96" y="517.5"/>
      <point x="247.5" y="617.5"/>
      <point x="423.5" y="620" type="curve"/>
      <point x="484.5" y="620" type="line"/>
      <point x="654" y="618"/>
      <point x="780" y="515"/>
    </contour>
  </outline>
</glyph>
<glyph name="uni0425" format="1">
  <advance width="538"/>
  <unicode hex="0425"/>
  <outline>
    <contour>
      <point x="507" y="699.5" type="line"/>
      <point x="610.5" y="699.5" type="line"/>
      <point x="348.5" y="363" type="line"/>
      <point x="500.5" y="0" type="line"/>
      <point x="405.5" y="0" type="line"/>
      <point x="296.5" y="290.5" type="line"/>
      <point x="82.5" y="0" type="line"/>
      <point x="-21.5" y="0" type="line"/>
      <point x="267" y="371" type="line"/>
      <point x="127.5" y="700" type="line"/>
      <point x="222.5" y="700" type="line"/>
      <point x="319" y="443.5" type="line"/>
    </contour>
  </outline>
</glyph>
<glyph name="uni0427" format="1">
  <advance width="596"/>
  <unicode hex="0427"/>
  <outline>
    <contour>
      <point x="302.5" y="280.5" type="line"/>
      <point x="314.5" y="355" type="line"/>
      <point x="528" y="355" type="line"/>
      <point x="515" y="280.5" type="line"/>
    </contour>
    <contour>
      <point x="526.5" y="699.5" type="line"/>
      <point x="614" y="700" type="line"/>
      <point x="492.5" y="0" type="line"/>
      <point x="410" y="0" type="line"/>
    </contour>
    <contour>
      <point x="249.5" y="700" type="line"/>
      <point x="217" y="518" type="line" smooth="yes"/>
      <point x="203.075" y="434.009"/>
      <point x="233.5" y="355"/>
      <point x="314.5" y="355" type="curve"/>
      <point x="302.5" y="280.5" type="line"/>
      <point x="177.5" y="280.5"/>
      <point x="120.5" y="393"/>
      <point x="138" y="518" type="curve"/>
      <point x="169" y="700" type="line"/>
    </contour>
  </outline>
</glyph>
<glyph name="uni0429" format="1">
  <advance width="999"/>
  <unicode hex="0429"/>
  <outline>
    <contour>
      <point x="780.5" y="80" type="line"/>
      <point x="887" y="700" type="line"/>
      <point x="972.5" y="700" type="line"/>
      <point x="866" y="80" type="line"/>
      <point x="949" y="80" type="line"/>
      <point x="916" y="-109.5" type="line"/>
      <point x="841" y="-109.5" type="line"/>
      <point x="860" y="0" type="line"/>
      <point x="49" y="0" type="line"/>
      <point x="169" y="700" type="line"/>
      <point x="254.5" y="700" type="line"/>
      <point x="148" y="80" type="line"/>
      <point x="421.5" y="80" type="line"/>
      <point x="528" y="700" type="line"/>
      <point x="613.5" y="700" type="line"/>
      <point x="507" y="80" type="line"/>
    </contour>
  </outline>
</glyph>
<glyph name="uni042A" format="1">
  <advance width="638"/>
  <unicode hex="042A"/>
  <outline>
    <contour>
      <point x="259" y="340" type="line"/>
      <point x="273.5" y="420" type="line"/>
      <point x="409" y="420" type="line" smooth="yes"/>
      <point x="536" y="420"/>
      <point x="628.5" y="334.5"/>
      <point x="610" y="209.5" type="curve" smooth="yes"/>
      <point x="591" y="82.5"/>
      <point x="477" y="0"/>
      <point x="346" y="0" type="curve" smooth="yes"/>
      <point x="201" y="0" type="line"/>
      <point x="215.5" y="80" type="line"/>
      <point x="350.5" y="80" type="line" smooth="yes"/>
      <point x="437" y="82"/>
      <point x="510" y="126.5"/>
      <point x="525.5" y="210" type="curve" smooth="yes"/>
      <point x="540" y="291"/>
      <point x="487" y="339"/>
      <point x="404" y="339.5" type="curve" smooth="yes"/>
    </contour>
    <contour>
      <point x="264.5" y="620.5" type="line"/>
      <point x="86.5" y="620" type="line"/>
      <point x="101" y="700" type="line"/>
      <point x="361" y="700" type="line"/>
      <point x="240" y="0" type="line"/>
      <point x="158" y="0" type="line"/>
    </contour>
  </outline>
</glyph>
<glyph name="uni042B" format="1">
  <advance width="742"/>
  <unicode hex="042B"/>
  <outline>
    <contour>
      <point x="672" y="699.5" type="line"/>
      <point x="759.5" y="700" type="line"/>
      <point x="638" y="0" type="line"/>
      <point x="555.5" y="0" type="line"/>
    </contour>
    <contour>
      <point x="167.5" y="699.5" type="line"/>
      <point x="255" y="700" type="line"/>
      <point x="133" y="0" type="line"/>
      <point x="51" y="0" type="line"/>
    </contour>
    <contour>
      <point x="152" y="340" type="line"/>
      <point x="167" y="420" type="line"/>
      <point x="302" y="420" type="line" smooth="yes"/>
      <point x="429" y="420"/>
      <point x="521.5" y="334.5"/>
      <point x="503" y="209.5" type="curve" smooth="yes"/>
      <point x="484" y="82.5"/>
      <point x="370.5" y="0"/>
      <point x="239.5" y="0" type="curve" smooth="yes"/>
      <point x="94" y="0" type="line"/>
      <point x="108.5" y="80" type="line"/>
      <point x="244" y="80" type="line" smooth="yes"/>
      <point x="330.5" y="82"/>
      <point x="403" y="126.5"/>
      <point x="418.5" y="210" type="curve" smooth="yes"/>
      <point x="433" y="291"/>
      <point x="380" y="339"/>
      <point x="297" y="339.5" type="curve" smooth="yes"/>
    </contour>
  </outline>
</glyph>
<glyph name="uni042D" format="1">
  <advance width="664"/>
  <unicode hex="042D"/>
  <outline>
    <contour>
      <point x="154.5" y="310.5" type="line"/>
      <point x="167" y="390" type="line"/>
      <point x="580.5" y="390" type="line"/>
      <point x="567" y="310.5" type="line"/>
    </contour>
    <contour>
      <point x="570" y="350" type="curve" smooth="yes"/>
      <point x="592" y="491"/>
      <point x="514.5" y="623"/>
      <point x="370.5" y="624.5" type="curve" smooth="yes"/>
      <point x="274" y="625.5"/>
      <point x="192" y="579.5"/>
      <point x="130.5" y="522" type="curve"/>
      <point x="147" y="633.5" type="line"/>
      <point x="211.5" y="682.5"/>
      <point x="282" y="710.5"/>
      <point x="375.5" y="710" type="curve" smooth="yes"/>
      <point x="571" y="709"/>
      <point x="687" y="539"/>
      <point x="660" y="350" type="curve" smooth="yes"/>
      <point x="630.5" y="151.5"/>
      <point x="461" y="-9"/>
      <point x="262" y="-10" type="curve" smooth="yes"/>
      <point x="172.5" y="-10.5"/>
      <point x="109" y="14.5"/>
      <point x="52" y="67.5" type="curve"/>
      <point x="69" y="179" type="line"/>
      <point x="111.5" y="114"/>
      <point x="179" y="75.5"/>
      <point x="267.5" y="75.5" type="curve" smooth="yes"/>
      <point x="413.5" y="76"/>
      <point x="544.5" y="199.5"/>
    </contour>
  </outline>
</glyph>
<glyph name="uni042F" format="1">
  <advance width="543"/>
  <unicode hex="042F"/>
  <outline>
    <contour>
      <point x="380.5" y="344.5" type="line"/>
      <point x="87.5" y="0" type="line"/>
      <point x="-21.5" y="0" type="line"/>
      <point x="281" y="344.5" type="line"/>
    </contour>
    <contour>
      <point x="560" y="700" type="line"/>
      <point x="439.5" y="0" type="line"/>
      <point x="354.5" y="0" type="line"/>
      <point x="475" y="700" type="line"/>
    </contour>
    <contour>
      <point x="501" y="625" type="line"/>
      <point x="365.5" y="625" type="line" smooth="yes"/>
      <point x="278.5" y="625"/>
      <point x="205.5" y="573.5"/>
      <point x="190" y="490" type="curve" smooth="yes"/>
      <point x="175.5" y="409.5"/>
      <point x="227" y="358.5"/>
      <point x="311" y="355.5" type="curve"/>
      <point x="455.5" y="355" type="line"/>
      <point x="442" y="280" type="line"/>
      <point x="306.5" y="280" type="line"/>
      <point x="179.5" y="282.5"/>
      <point x="87" y="365.5"/>
      <point x="105.5" y="490.5" type="curve" smooth="yes"/>
      <point x="124.5" y="617.5"/>
      <point x="238.5" y="700"/>
      <point x="369.5" y="700" type="curve" smooth="yes"/>
      <point x="514.5" y="700" type="line"/>
    </contour>
  </outline>
</glyph>
<glyph name="uni0431" format="1">
  <advance width="529"/>
  <unicode hex="0431"/>
  <outline>
    <contour>
      <point x="308" y="395" type="curve"/>
      <point x="320" y="469.5" type="line"/>
      <point x="451.5" y="469.5"/>
      <point x="532.742" y="361.072"/>
      <point x="515.5" y="229.5" type="curve" smooth="yes"/>
      <point x="498" y="97"/>
      <point x="385.5" y="-10"/>
      <point x="250.5" y="-10" type="curve" smooth="yes"/>
      <point x="108.5" y="-10"/>
      <point x="53.5" y="112"/>
      <point x="53.5" y="233.5" type="curve"/>
      <point x="128.5" y="203.5" type="line"/>
      <point x="129" y="138"/>
      <point x="167" y="66.0054"/>
      <point x="254" y="65.5" type="curve" smooth="yes"/>
      <point x="345.499" y="64.9405"/>
      <point x="421" y="140.5"/>
      <point x="435" y="230" type="curve" smooth="yes"/>
      <point x="450" y="322"/>
      <point x="397" y="395"/>
    </contour>
    <contour>
      <point x="94" y="231" type="line"/>
      <point x="116.5" y="368"/>
      <point x="193.5" y="469.5"/>
      <point x="320" y="469.5" type="curve"/>
      <point x="308" y="395" type="line"/>
      <point x="225" y="395"/>
      <point x="128.5" y="324.5"/>
      <point x="128.5" y="203.5" type="curve"/>
    </contour>
    <contour>
      <point x="53.5" y="233.5" type="line"/>
      <point x="53.5" y="433.5"/>
      <point x="151.38" y="595.83"/>
      <point x="314.5" y="656" type="curve" smooth="yes"/>
      <point x="395.412" y="685.562"/>
      <point x="445" y="724.5"/>
      <point x="473" y="779.5" type="curve"/>
      <point x="552.5" y="779" type="line"/>
      <point x="522" y="684.5"/>
      <point x="437.041" y="628.65"/>
      <point x="332" y="591" type="curve" smooth="yes"/>
      <point x="212.114" y="548.045"/>
      <point x="123.5" y="414.558"/>
      <point x="123.5" y="295" type="curve" smooth="yes"/>
      <point x="123.5" y="207" type="line"/>
    </contour>
  </outline>
</glyph>
<glyph name="uni0432" format="1">
  <advance width="439"/>
  <unicode hex="0432"/>
  <outline>
    <contour>
      <point x="131" y="239.5" type="line"/>
      <point x="257.5" y="240" type="line" smooth="yes"/>
      <point x="341" y="239"/>
      <point x="418" y="213"/>
      <point x="406" y="124.5" type="curve" smooth="yes"/>
      <point x="395" y="50.5"/>
      <point x="334" y="1"/>
      <point x="243.5" y="0.5" type="curve" smooth="yes"/>
      <point x="91" y="0" type="line"/>
      <point x="101.5" y="69.5" type="line"/>
      <point x="228.5" y="70" type="line" smooth="yes"/>
      <point x="279" y="70"/>
      <point x="321.5" y="95.5"/>
      <point x="328.5" y="135.5" type="curve" smooth="yes"/>
      <point x="335" y="174"/>
      <point x="304.5" y="197"/>
      <point x="257" y="197.5" type="curve" smooth="yes"/>
      <point x="124.5" y="198.5" type="line"/>
    </contour>
    <contour>
      <point x="128.5" y="220.5" type="line"/>
      <point x="136" y="266.5" type="line"/>
      <point x="253" y="267" type="line" smooth="yes"/>
      <point x="296" y="267"/>
      <point x="336.5" y="292.5"/>
      <point x="342.5" y="330.5" type="curve" smooth="yes"/>
      <point x="348" y="366.5"/>
      <point x="320" y="389"/>
      <point x="280" y="389.5" type="curve" smooth="yes"/>
      <point x="157.5" y="390.5" type="line"/>
      <point x="168" y="460" type="line"/>
      <point x="285.5" y="460" type="line" smooth="yes"/>
      <point x="364.5" y="460"/>
      <point x="435.5" y="420"/>
      <point x="422.5" y="334.5" type="curve" smooth="yes"/>
      <point x="410.5" y="256"/>
      <point x="332" y="222"/>
      <point x="252" y="220.5" type="curve" smooth="yes"/>
    </contour>
    <contour>
      <point x="121.5" y="460" type="line"/>
      <point x="204.5" y="460" type="line"/>
      <point x="123.5" y="0" type="line"/>
      <point x="46" y="0" type="line"/>
    </contour>
  </outline>
</glyph>
<glyph name="uni0434" format="1">
  <advance width="635"/>
  <unicode hex="0434"/>
  <outline>
    <contour>
      <point x="346.5" y="322" type="line"/>
      <point x="165" y="30.5" type="line"/>
      <point x="71.5" y="30.5" type="line"/>
      <point x="372.5" y="497.5" type="line"/>
      <point x="510.5" y="30" type="line"/>
      <point x="426.5" y="29.5" type="line"/>
    </contour>
    <contour>
      <point x="489.5" y="0" type="line"/>
      <point x="96" y="0" type="line"/>
      <point x="79.5" y="-90" type="line"/>
      <point x="-6" y="-90" type="line"/>
      <point x="23.5" y="75" type="line"/>
      <point x="579.5" y="75" type="line"/>
      <point x="550" y="-90" type="line"/>
      <point x="473" y="-90" type="line"/>
    </contour>
  </outline>
</glyph>
<glyph name="uni0437" format="1">
  <advance width="459"/>
  <unicode hex="0437"/>
  <outline>
    <contour>
      <point x="244.5" y="230.5" type="curve"/>
      <point x="251.5" y="279.5" type="line"/>
      <point x="301.5" y="282.5"/>
      <point x="342" y="301.5"/>
      <point x="348.5" y="341" type="curve" smooth="yes"/>
      <point x="353" y="375"/>
      <point x="327" y="396.5"/>
      <point x="288" y="397" type="curve" smooth="yes"/>
      <point x="234" y="398"/>
      <point x="204.5" y="359.5"/>
      <point x="192" y="326.5" type="curve"/>
      <point x="110.5" y="327.5" type="line"/>
      <point x="128" y="403.5"/>
      <point x="197" y="469.5"/>
      <point x="289.5" y="469.5" type="curve" smooth="yes"/>
      <point x="372" y="469.5"/>
      <point x="440" y="412.5"/>
      <point x="427.5" y="339" type="curve" smooth="yes"/>
      <point x="414.5" y="264"/>
      <point x="334.5" y="233"/>
    </contour>
    <contour>
      <point x="215" y="-9.5" type="curve" smooth="yes"/>
      <point x="113" y="-9.5"/>
      <point x="57.5" y="56"/>
      <point x="54.5" y="145" type="curve"/>
      <point x="133" y="145" type="line"/>
      <point x="138.5" y="99"/>
      <point x="157" y="61.5"/>
      <point x="219" y="60.5" type="curve" smooth="yes"/>
      <point x="274.5" y="59.5"/>
      <point x="326" y="88.5"/>
      <point x="334" y="135" type="curve" smooth="yes"/>
      <point x="344" y="187"/>
      <point x="297.5" y="206.5"/>
      <point x="241" y="210" type="curve"/>
      <point x="249" y="260" type="line"/>
      <point x="341.5" y="257"/>
      <point x="426" y="223.5"/>
      <point x="413" y="134.5" type="curve" smooth="yes"/>
      <point x="400.5" y="45.5"/>
      <point x="307" y="-9.5"/>
    </contour>
  </outline>
</glyph>
<glyph name="uni0439" format="1">
  <advance width="528"/>
  <unicode hex="0439"/>
  <outline>
    <contour>
      <point x="484.5" y="377" type="line"/>
      <point x="39.5" y="-41" type="line"/>
      <point x="68.5" y="83" type="line"/>
      <point x="513.5" y="501.5" type="line"/>
    </contour>
    <contour>
      <point x="208.5" y="460" type="line"/>
      <point x="141" y="71.5" type="line"/>
      <point x="39.5" y="-41" type="line"/>
      <point x="128" y="460" type="line"/>
    </contour>
    <contour>
      <point x="513.5" y="501.5" type="line"/>
      <point x="425" y="0" type="line"/>
      <point x="344.5" y="0" type="line"/>
      <point x="412" y="388.5" type="line"/>
    </contour>
    <contour>
      <point x="197.904" y="686" type="curve"/>
      <point x="266.904" y="686" type="line"/>
      <point x="265.904" y="653"/>
      <point x="279.404" y="612"/>
      <point x="337.904" y="611.5" type="curve" smooth="yes"/>
      <point x="398.404" y="611"/>
      <point x="422.904" y="653"/>
      <point x="435.404" y="685.5" type="curve"/>
      <point x="505.904" y="685" type="line"/>
      <point x="488.404" y="612.5"/>
      <point x="429.904" y="546.5"/>
      <point x="332.904" y="546.5" type="curve" smooth="yes"/>
      <point x="237.404" y="546.5"/>
      <point x="193.404" y="612"/>
    </contour>
  </outline>
</glyph>
<glyph name="uni043B" format="1">
  <advance width="541"/>
  <unicode hex="043B"/>
  <outline>
    <contour>
      <point x="517" y="460" type="line"/>
      <point x="437.5" y="0" type="line"/>
      <point x="357" y="0" type="line"/>
      <point x="424" y="385" type="line"/>
      <point x="198.5" y="385" type="line"/>
      <point x="160.5" y="159.5" type="line" smooth="yes"/>
      <point x="142.5" y="56"/>
      <point x="85.5" y="7"/>
      <point x="-17.5" y="0.5" type="curve"/>
      <point x="-6.5" y="72.5" type="line"/>
      <point x="38" y="79.5"/>
      <point x="69" y="103"/>
      <point x="79" y="160" type="curve"/>
      <point x="131" y="460" type="line"/>
    </contour>
  </outline>
</glyph>
<glyph name="uni043C" format="1">
  <advance width="589"/>
  <unicode hex="043C"/>
  <outline>
    <contour>
      <point x="469" y="0" type="line"/>
      <point x="459" y="369.5" type="line"/>
      <point x="527" y="500" type="line"/>
      <point x="557" y="0" type="line"/>
    </contour>
    <contour>
      <point x="248.5" y="73.5" type="line"/>
      <point x="527" y="500" type="line"/>
      <point x="507.5" y="331" type="line"/>
      <point x="261" y="-33" type="line"/>
    </contour>
    <contour>
      <point x="261" y="-33" type="line"/>
      <point x="141.5" y="339.5" type="line"/>
      <point x="179.5" y="499" type="line"/>
      <point x="307" y="64.5" type="line"/>
    </contour>
    <contour>
      <point x="-25.5" y="0" type="line"/>
      <point x="179.5" y="499" type="line"/>
      <point x="200" y="360" type="line"/>
      <point x="66.5" y="0" type="line"/>
    </contour>
  </outline>
</glyph>
<glyph name="uni043D" format="1">
  <advance width="548"/>
  <unicode hex="043D"/>
  <outline>
    <contour>
      <point x="127" y="205.5" type="line"/>
      <point x="138.5" y="280" type="line"/>
      <point x="471" y="280" type="line"/>
      <point x="459" y="205.5" type="line"/>
    </contour>
    <contour>
      <point x="446.5" y="459.5" type="line"/>
      <point x="529.5" y="460" type="line"/>
      <point x="448.5" y="0" type="line"/>
      <point x="371.5" y="0" type="line"/>
    </contour>
    <contour>
      <point x="121.5" y="459.5" type="line"/>
      <point x="204.5" y="460" type="line"/>
      <point x="123.5" y="0" type="line"/>
      <point x="46" y="0" type="line"/>
    </contour>
  </outline>
</glyph>
<glyph name="uni0440" format="1">
  <advance width="553"/>
  <unicode hex="0440"/>
  <outline>
    <contour>
      <point x="83.5" y="-219.5" type="line"/>
      <point x="1" y="-220" type="line"/>
      <point x="119" y="460" type="line"/>
      <point x="196.5" y="459.5" type="line"/>
    </contour>
    <contour>
      <point x="532.5" y="230" type="curve" smooth="yes"/>
      <point x="513.5" y="94.5"/>
      <point x="403.5" y="-11"/>
      <point x="273.5" y="-10" type="curve" smooth="yes"/>
      <point x="150" y="-9"/>
      <point x="106" y="105.5"/>
      <point x="121.5" y="230" type="curve" smooth="yes"/>
      <point x="139" y="361"/>
      <point x="224" y="469"/>
      <point x="346.5" y="469.5" type="curve" smooth="yes"/>
      <point x="476" y="470.5"/>
      <point x="550" y="360.5"/>
    </contour>
    <contour>
      <point x="452" y="230" type="curve" smooth="yes"/>
      <point x="465.5" y="319"/>
      <point x="421.5" y="394.5"/>
      <point x="333" y="394.5" type="curve" smooth="yes"/>
      <point x="253" y="394.5"/>
      <point x="173.5" y="322.5"/>
      <point x="158.5" y="230" type="curve" smooth="yes"/>
      <point x="146" y="144"/>
      <point x="189.5" y="67.5"/>
      <point x="268" y="65.5" type="curve" smooth="yes"/>
      <point x="357.5" y="63"/>
      <point x="436.5" y="136"/>
    </contour>
  </outline>
</glyph>
<glyph name="uni0441" format="1">
  <advance width="463"/>
  <unicode hex="0441"/>
  <outline>
    <contour>
      <point x="120.5" y="230" type="curve" smooth="yes"/>
      <point x="106.5" y="145.5"/>
      <point x="150" y="67.5"/>
      <point x="240" y="66" type="curve" smooth="yes"/>
      <point x="312" y="65"/>
      <point x="376.5" y="104"/>
      <point x="413" y="148" type="curve"/>
      <point x="398.5" y="48.5" type="line"/>
      <point x="357.5" y="12"/>
      <point x="298" y="-10"/>
      <point x="235.5" y="-10" type="curve" smooth="yes"/>
      <point x="101.5" y="-9.5"/>
      <point x="22" y="102"/>
      <point x="40" y="230" type="curve" smooth="yes"/>
      <point x="59.5" y="363"/>
      <point x="173.5" y="469"/>
      <point x="309" y="469.5" type="curve" smooth="yes"/>
      <point x="368.5" y="469.5"/>
      <point x="423.5" y="449"/>
      <point x="458.5" y="410.5" type="curve"/>
      <point x="443.5" y="311" type="line"/>
      <point x="424" y="361"/>
      <point x="371.5" y="395"/>
      <point x="305" y="394.5" type="curve" smooth="yes"/>
      <point x="213" y="394"/>
      <point x="136.5" y="320"/>
    </contour>
  </outline>
</glyph>
<glyph name="uni0442" format="1">
  <advance width="271"/>
  <unicode hex="0442"/>
  <outline>
    <contour>
      <point x="55" y="460" type="line"/>
      <point x="320" y="460" type="line"/>
      <point x="306.5" y="385" type="line"/>
      <point x="41.5" y="385" type="line"/>
    </contour>
    <contour>
      <point x="142.5" y="439.5" type="line"/>
      <point x="225" y="440" type="line"/>
      <point x="147.5" y="0" type="line"/>
      <point x="70.5" y="0" type="line"/>
    </contour>
  </outline>
</glyph>
<glyph name="uni0443" format="1">
  <advance width="426"/>
  <unicode hex="0443"/>
  <outline>
    <contour>
      <point x="482" y="459.5" type="line"/>
      <point x="73.5" y="-219.5" type="line"/>
      <point x="-20" y="-219.5" type="line"/>
      <point x="155.5" y="69" type="line"/>
      <point x="52" y="460" type="line"/>
      <point x="143.5" y="460" type="line"/>
      <point x="224.5" y="100" type="line"/>
      <point x="191" y="105" type="line"/>
      <point x="388.5" y="459.5" type="line"/>
    </contour>
  </outline>
</glyph>
<glyph name="uni0444" format="1">
  <advance width="568"/>
  <unicode hex="0444"/>
  <outline>
    <contour>
      <point x="311.5" y="559.5" type="line"/>
      <point x="394" y="560" type="line"/>
      <point x="279" y="-99.5" type="line"/>
      <point x="202" y="-99.5" type="line"/>
    </contour>
    <contour>
      <point x="45" y="230" type="curve" smooth="yes"/>
      <point x="65.5" y="367"/>
      <point x="184.5" y="470.5"/>
      <point x="333" y="470" type="curve" smooth="yes"/>
      <point x="478.5" y="469.5"/>
      <point x="567.5" y="363.5"/>
      <point x="548" y="230" type="curve" smooth="yes"/>
      <point x="527.5" y="93"/>
      <point x="408.5" y="-10.5"/>
      <point x="260" y="-10" type="curve" smooth="yes"/>
      <point x="114.5" y="-9.5"/>
      <point x="25.5" y="96.5"/>
    </contour>
    <contour>
      <point x="125.5" y="230" type="curve" smooth="yes"/>
      <point x="109.5" y="140"/>
      <point x="161.5" y="66.5"/>
      <point x="264" y="65.5" type="curve" smooth="yes"/>
      <point x="368.5" y="64.5"/>
      <point x="450.5" y="136.5"/>
      <point x="467.5" y="230" type="curve" smooth="yes"/>
      <point x="483.5" y="320"/>
      <point x="431.5" y="393.5"/>
      <point x="329" y="394.5" type="curve" smooth="yes"/>
      <point x="224.5" y="395.5"/>
      <point x="142.5" y="323.5"/>
    </contour>
  </outline>
</glyph>
<glyph name="uni0445" format="1">
  <advance width="407"/>
  <unicode hex="0445"/>
  <outline>
    <contour>
      <point x="359" y="459.5" type="line"/>
      <point x="453.5" y="459.5" type="line"/>
      <point x="258" y="233.5" type="line"/>
      <point x="379" y="0" type="line"/>
      <point x="294.5" y="0" type="line"/>
      <point x="209" y="172" type="line"/>
      <point x="63" y="0" type="line"/>
      <point x="-31.5" y="0" type="line"/>
      <point x="176" y="240.5" type="line"/>
      <point x="62.5" y="460" type="line"/>
      <point x="147" y="460" type="line"/>
      <point x="225.5" y="302" type="line"/>
    </contour>
  </outline>
</glyph>
<glyph name="uni0446" format="1">
  <advance width="548"/>
  <unicode hex="0446"/>
  <outline>
    <contour>
      <point x="421.5" y="74.5" type="line"/>
      <point x="502.5" y="74.5" type="line"/>
      <point x="473.5" y="-89.5" type="line"/>
      <point x="403.5" y="-89.5" type="line"/>
      <point x="419" y="0" type="line"/>
      <point x="44" y="0" type="line"/>
      <point x="123.5" y="460" type="line"/>
      <point x="204" y="460" type="line"/>
      <point x="137" y="75" type="line"/>
      <point x="343" y="75" type="line"/>
      <point x="410.5" y="459.5" type="line"/>
      <point x="487.5" y="459.5" type="line"/>
    </contour>
  </outline>
</glyph>
<glyph name="uni0447" format="1">
  <advance width="470"/>
  <unicode hex="0447"/>
  <outline>
    <contour>
      <point x="220.5" y="140.5" type="line"/>
      <point x="232.5" y="214.5" type="line"/>
      <point x="387.5" y="215" type="line"/>
      <point x="374.5" y="140.5" type="line"/>
    </contour>
    <contour>
      <point x="369" y="459.5" type="line"/>
      <point x="451.5" y="460" type="line"/>
      <point x="371" y="0" type="line"/>
      <point x="293.5" y="0" type="line"/>
    </contour>
    <contour>
      <point x="179.5" y="459.5" type="line"/>
      <point x="155.5" y="328" type="line" smooth="yes"/>
      <point x="143.597" y="255.514"/>
      <point x="160" y="214.5"/>
      <point x="232.5" y="214.5" type="curve"/>
      <point x="220.5" y="140.5" type="line"/>
      <point x="91.5" y="140.5"/>
      <point x="57.9322" y="206.034"/>
      <point x="76.5" y="328" type="curve" smooth="yes"/>
      <point x="99" y="460" type="line"/>
    </contour>
  </outline>
</glyph>
<glyph name="uni0448" format="1">
  <advance width="756"/>
  <unicode hex="0448"/>
  <outline>
    <contour>
      <point x="401.5" y="74.5" type="line"/>
      <point x="590.5" y="75" type="line"/>
      <point x="657" y="460" type="line"/>
      <point x="737.5" y="460" type="line"/>
      <point x="658" y="0" type="line"/>
      <point x="44" y="0" type="line"/>
      <point x="123.5" y="460" type="line"/>
      <point x="204" y="460" type="line"/>
      <point x="137" y="75" type="line"/>
      <point x="323.5" y="75" type="line"/>
      <point x="391" y="459.5" type="line"/>
      <point x="468.5" y="459.5" type="line"/>
    </contour>
  </outline>
</glyph>
<glyph name="uni044A" format="1">
  <advance width="560"/>
  <unicode hex="044A"/>
  <outline>
    <contour>
      <point x="220" y="216.5" type="line"/>
      <point x="230.5" y="285.5" type="line"/>
      <point x="367" y="286" type="line" smooth="yes"/>
      <point x="456.5" y="286.5"/>
      <point x="524.5" y="236.5"/>
      <point x="511" y="142.5" type="curve" smooth="yes"/>
      <point x="497.5" y="48"/>
      <point x="418" y="0"/>
      <point x="326" y="0" type="curve" smooth="yes"/>
      <point x="183.5" y="0" type="line"/>
      <point x="194" y="69.5" type="line"/>
      <point x="330.5" y="70" type="line" smooth="yes"/>
      <point x="383" y="70"/>
      <point x="422.5" y="97"/>
      <point x="431.5" y="143.5" type="curve" smooth="yes"/>
      <point x="440" y="188"/>
      <point x="411.5" y="215"/>
      <point x="362" y="215.5" type="curve" smooth="yes"/>
    </contour>
    <contour>
      <point x="205" y="385.5" type="line"/>
      <point x="41.5" y="385" type="line"/>
      <point x="55" y="460" type="line"/>
      <point x="295.5" y="460" type="line"/>
      <point x="215.5" y="0" type="line"/>
      <point x="138.5" y="0" type="line"/>
    </contour>
  </outline>
</glyph>
<glyph name="uni044B" format="1">
  <advance width="625"/>
  <unicode hex="044B"/>
  <outline>
    <contour>
      <point x="524.5" y="459.5" type="line"/>
      <point x="607" y="460" type="line"/>
      <point x="526" y="0" type="line"/>
      <point x="449" y="0" type="line"/>
    </contour>
    <contour>
      <point x="121.5" y="459.5" type="line"/>
      <point x="204.5" y="460" type="line"/>
      <point x="123.5" y="0" type="line"/>
      <point x="46" y="0" type="line"/>
    </contour>
    <contour>
      <point x="128" y="216.5" type="line"/>
      <point x="138.5" y="285.5" type="line"/>
      <point x="275" y="286" type="line" smooth="yes"/>
      <point x="364.5" y="286.5"/>
      <point x="432" y="236.5"/>
      <point x="418.5" y="142.5" type="curve" smooth="yes"/>
      <point x="405" y="48"/>
      <point x="326" y="0"/>
      <point x="234" y="0" type="curve" smooth="yes"/>
      <point x="91" y="0" type="line"/>
      <point x="101.5" y="69.5" type="line"/>
      <point x="238.5" y="70" type="line" smooth="yes"/>
      <point x="291" y="70"/>
      <point x="330.5" y="97"/>
      <point x="339.5" y="143.5" type="curve" smooth="yes"/>
      <point x="348" y="188"/>
      <point x="319.5" y="215"/>
      <point x="270" y="215.5" type="curve" smooth="yes"/>
    </contour>
  </outline>
</glyph>
<glyph name="uni044F" format="1">
  <advance width="468"/>
  <unicode hex="044F"/>
  <outline>
    <contour>
      <point x="113.5" y="0" type="line"/>
      <point x="20" y="0" type="line"/>
      <point x="228" y="239" type="line"/>
      <point x="316" y="238.5" type="line"/>
    </contour>
    <contour>
      <point x="395.5" y="0" type="line"/>
      <point x="313" y="0" type="line"/>
      <point x="394" y="459.5" type="line"/>
      <point x="471" y="459.5" type="line"/>
    </contour>
    <contour>
      <point x="391" y="253.5" type="line"/>
      <point x="380.5" y="184.5" type="line"/>
      <point x="244" y="184" type="line" smooth="yes"/>
      <point x="155" y="183.5"/>
      <point x="86.5" y="228"/>
      <point x="99.5" y="322.5" type="curve" smooth="yes"/>
      <point x="112.5" y="416.5"/>
      <point x="192.5" y="457.5"/>
      <point x="283.5" y="459.5" type="curve" smooth="yes"/>
      <point x="426" y="459.5" type="line"/>
      <point x="415.5" y="390.5" type="line"/>
      <point x="279" y="390" type="line" smooth="yes"/>
      <point x="228" y="390"/>
      <point x="186" y="368"/>
      <point x="178.5" y="321.5" type="curve" smooth="yes"/>
      <point x="171" y="276.5"/>
      <point x="200.5" y="255"/>
      <point x="249" y="254.5" type="curve" smooth="yes"/>
    </contour>
  </outline>
</glyph>
<glyph name="uni0453" format="1">
  <advance width="320"/>
  <unicode hex="0453"/>
  <outline>
    <contour>
      <point x="126" y="459.5" type="line"/>
      <point x="368.5" y="460" type="line"/>
      <point x="355" y="385" type="line"/>
      <point x="195.5" y="385" type="line"/>
      <point x="128.5" y="0" type="line"/>
      <point x="51" y="0" type="line"/>
    </contour>
    <contour>
      <point x="460.75" y="676.5" type="line"/>
      <point x="263.25" y="530.5" type="line"/>
      <point x="220.25" y="562.5" type="line"/>
      <point x="390.75" y="719.5" type="line"/>
    </contour>
  </outline>
</glyph>
<glyph name="uni2010" format="1">
  <advance width="203"/>
  <unicode hex="2010"/>
  <outline>
    <contour>
      <point x="12" y="200.5" type="line"/>
      <point x="24.5" y="275" type="line"/>
      <point x="220.5" y="275" type="line"/>
      <point x="207.5" y="200.5" type="line"/>
    </contour>
  </outline>
</glyph>
<glyph name="figuredash" format="1">
  <advance width="572"/>
  <unicode hex="2012"/>
  <outline>
    <contour>
      <point x="75.5" y="200.5" type="line"/>
      <point x="87.5" y="275" type="line"/>
      <point x="526" y="275" type="line"/>
      <point x="513.5" y="200" type="line"/>
    </contour>
  </outline>
</glyph>
<glyph name="emdash" format="1">
  <advance width="863"/>
  <unicode hex="2014"/>
  <outline>
    <contour>
      <point x="75.5" y="200.5" type="line"/>
      <point x="87.5" y="275" type="line"/>
      <point x="817" y="275" type="line"/>
      <point x="804.5" y="200" type="line"/>
    </contour>
  </outline>
</glyph>
<glyph name="quotesinglbase" format="1">
  <advance width="266"/>
  <unicode hex="201A"/>
  <outline>
    <contour>
      <point x="101.5" y="79.5" type="line"/>
      <point x="198" y="79.5" type="line"/>
      <point x="60" y="-149" type="line"/>
      <point x="5" y="-149" type="line"/>
    </contour>
  </outline>
</glyph>
<glyph name="quotedblbase" format="1">
  <advance width="460"/>
  <unicode hex="201E"/>
  <outline>
    <contour>
      <point x="96.5" y="79.5" type="line"/>
      <point x="193" y="79.5" type="line"/>
      <point x="55" y="-149" type="line"/>
      <point x="0" y="-149" type="line"/>
    </contour>
    <contour>
      <point x="290.5" y="79.5" type="line"/>
      <point x="387.5" y="79.5" type="line"/>
      <point x="249.5" y="-149" type="line"/>
      <point x="194" y="-149" type="line"/>
    </contour>
  </outline>
</glyph>
<glyph name="bullet" format="1">
  <advance width="291"/>
  <unicode hex="2022"/>
  <outline>
    <contour>
      <point x="135" y="416.5" type="curve" smooth="yes"/>
      <point x="135" y="446.5"/>
      <point x="159.5" y="471"/>
      <point x="189.5" y="471" type="curve" smooth="yes"/>
      <point x="219.5" y="471"/>
      <point x="244" y="446.5"/>
      <point x="244" y="416.5" type="curve" smooth="yes"/>
      <point x="244" y="386.5"/>
      <point x="219.5" y="362"/>
      <point x="189.5" y="362" type="curve" smooth="yes"/>
      <point x="159.5" y="362"/>
      <point x="135" y="386.5"/>
    </contour>
  </outline>
</glyph>
<glyph name="uni2031" format="1">
  <advance width="1466"/>
  <unicode hex="2031"/>
  <outline>
    <contour>
      <point x="1123.5" y="150.5" type="curve" smooth="yes"/>
      <point x="1136.5" y="236.5"/>
      <point x="1209.5" y="309.5"/>
      <point x="1302" y="309.5" type="curve" smooth="yes"/>
      <point x="1394" y="309.5"/>
      <point x="1444" y="233"/>
      <point x="1432" y="149.5" type="curve" smooth="yes"/>
      <point x="1419" y="63.5"/>
      <point x="1345.5" y="-9.5"/>
      <point x="1253" y="-9.5" type="curve" smooth="yes"/>
      <point x="1161" y="-9.5"/>
      <point x="1111.5" y="67"/>
    </contour>
    <contour>
      <point x="1193" y="150" type="curve" smooth="yes"/>
      <point x="1186" y="104.5"/>
      <point x="1206.5" y="57"/>
      <point x="1259" y="55.5" type="curve" smooth="yes"/>
      <point x="1312" y="54"/>
      <point x="1354" y="102"/>
      <point x="1362" y="150" type="curve" smooth="yes"/>
      <point x="1369" y="195.5"/>
      <point x="1348.5" y="243"/>
      <point x="1296" y="244.5" type="curve" smooth="yes"/>
      <point x="1243" y="246"/>
      <point x="1201" y="198"/>
    </contour>
    <contour>
      <point x="754.5" y="150.5" type="curve" smooth="yes"/>
      <point x="767.5" y="236.5"/>
      <point x="841" y="309.5"/>
      <point x="933.5" y="309.5" type="curve" smooth="yes"/>
      <point x="1025.5" y="309.5"/>
      <point x="1075" y="233"/>
      <point x="1063" y="149.5" type="curve" smooth="yes"/>
      <point x="1050" y="63.5"/>
      <point x="976.5" y="-9.5"/>
      <point x="884" y="-9.5" type="curve" smooth="yes"/>
      <point x="792" y="-9.5"/>
      <point x="742.5" y="67"/>
    </contour>
    <contour>
      <point x="824.5" y="150" type="curve" smooth="yes"/>
      <point x="817.5" y="104.5"/>
      <point x="837.5" y="57"/>
      <point x="890" y="55.5" type="curve" smooth="yes"/>
      <point x="943" y="54"/>
      <point x="985" y="102"/>
      <point x="993" y="150" type="curve" smooth="yes"/>
      <point x="1000" y="195.5"/>
      <point x="980" y="243"/>
      <point x="927.5" y="244.5" type="curve" smooth="yes"/>
      <point x="874.5" y="246"/>
      <point x="832.5" y="198"/>
    </contour>
    <contour>
      <point x="100" y="550.5" type="curve" smooth="yes"/>
      <point x="113" y="636.5"/>
      <point x="186" y="709.5"/>
      <point x="278.5" y="709.5" type="curve" smooth="yes"/>
      <point x="370.5" y="709.5"/>
      <point x="420.5" y="633"/>
      <point x="408.5" y="549.5" type="curve" smooth="yes"/>
      <point x="395.5" y="463.5"/>
      <point x="322" y="390.5"/>
      <point x="229.5" y="390.5" type="curve" smooth="yes"/>
      <point x="137.5" y="390.5"/>
      <point x="88" y="467"/>
    </contour>
    <contour>
      <point x="169.5" y="550" type="curve" smooth="yes"/>
      <point x="162.5" y="504.5"/>
      <point x="183" y="457"/>
      <point x="235.5" y="455.5" type="curve" smooth="yes"/>
      <point x="288.5" y="454"/>
      <point x="330.5" y="502"/>
      <point x="338.5" y="550" type="curve" smooth="yes"/>
      <point x="345.5" y="595.5"/>
      <point x="325.5" y="643"/>
      <point x="273" y="644.5" type="curve" smooth="yes"/>
      <point x="220" y="646"/>
      <point x="177.5" y="598"/>
    </contour>
    <contour>
      <point x="386" y="150.5" type="curve" smooth="yes"/>
      <point x="399" y="236.5"/>
      <point x="472" y="309.5"/>
      <point x="564.5" y="309.5" type="curve" smooth="yes"/>
      <point x="656.5" y="309.5"/>
      <point x="706" y="233"/>
      <point x="694" y="149.5" type="curve" smooth="yes"/>
      <point x="681" y="63.5"/>
      <point x="608" y="-9.5"/>
      <point x="515.5" y="-9.5" type="curve" smooth="yes"/>
      <point x="423.5" y="-9.5"/>
      <point x="374" y="67"/>
    </contour>
    <contour>
      <point x="455.5" y="150" type="curve" smooth="yes"/>
      <point x="448.5" y="104.5"/>
      <point x="469" y="57"/>
      <point x="521.5" y="55.5" type="curve" smooth="yes"/>
      <point x="574.5" y="54"/>
      <point x="616.5" y="102"/>
      <point x="624.5" y="150" type="curve" smooth="yes"/>
      <point x="631.5" y="195.5"/>
      <point x="611" y="243"/>
      <point x="558.5" y="244.5" type="curve" smooth="yes"/>
      <point x="505.5" y="246"/>
      <point x="463.5" y="198"/>
    </contour>
    <contour>
      <point x="636.5" y="699.5" type="line"/>
      <point x="714.5" y="699.5" type="line"/>
      <point x="157" y="0" type="line"/>
      <point x="82" y="0" type="line"/>
    </contour>
  </outline>
</glyph>
